 <svg  version="1.0" xmlns="http://www.w3.org/2000/svg"  width="300.000000pt" height="300.000000pt" viewBox="0 0 300.000000 300.000000"  preserveAspectRatio="xMidYMid meet">  <g transform="translate(0.000000,300.000000) scale(0.050000,-0.050000)" fill="#ff66c7" stroke="none"> <path d="M620 5976 c0 -10 9 -13 20 -6 18 11 33 -111 19 -160 -3 -11 -5 -63 -4 -115 1 -52 -7 -100 -19 -107 -13 -8 -11 -19 7 -30 22 -15 22 -21 -3 -38 -20 -13 -22 -19 -5 -20 14 0 25 -14 25 -31 0 -20 -9 -26 -25 -16 -17 10 -16 4 2 -19 23 -28 23 -39 2 -66 -17 -20 -19 -36 -6 -45 20 -13 23 -114 4 -133 -6 -6 -5 -48 1 -95 7 -47 12 -140 12 -208 0 -68 8 -118 17 -112 10 5 11 -9 4 -32 -8 -24 -5 -43 5 -43 11 0 24 -20 30 -45 6 -25 20 -79 31 -121 19 -76 -6 -194 -43 -194 -9 0 -11 9 -4 20 7 11 3 20 -9 20 -27 0 -28 -54 -1 -70 12 -7 15 -21 9 -31 -6 -11 -3 -19 7 -19 10 0 18 -41 19 -90 1 -50 -7 -85 -17 -79 -10 6 -18 3 -18 -8 0 -11 11 -24 25 -30 19 -7 19 -10 1 -11 -14 -1 -20 -15 -14 -30 6 -16 1 -48 -11 -70 -15 -28 -15 -42 -2 -42 13 0 16 -43 9 -115 -13 -134 -23 -267 -34 -437 -4 -66 -13 -131 -21 -143 -7 -12 -2 -25 11 -30 16 -5 25 -61 25 -169 1 -89 7 -158 15 -154 7 5 14 -7 15 -27 4 -89 11 -121 25 -112 9 5 16 -2 16 -17 1 -21 4 -21 17 0 9 14 18 410 21 879 3 470 13 868 23 884 10 17 18 22 19 11 1 -11 13 7 28 40 22 51 21 67 -6 109 -28 43 -32 141 -32 715 l0 666 -95 -3 c-52 -2 -95 -11 -95 -21z"/> <path d="M923 5908 c-1 -75 4 -90 29 -80 17 7 45 12 61 12 16 0 24 9 17 20 -7 11 3 20 21 20 27 0 29 6 10 28 -32 39 5 57 50 24 35 -26 34 -28 -7 -50 -47 -25 -40 -82 10 -82 19 0 26 12 19 30 -9 22 3 30 43 30 42 1 48 5 24 20 -25 17 -23 22 15 32 125 34 50 88 -122 88 l-168 0 -2 -92z"/> <path d="M2022 5981 c28 -9 87 -9 130 -1 69 14 63 15 -52 16 -93 0 -115 -4 -78 -15z"/> <path d="M3507 5971 c20 -15 59 -24 87 -19 40 8 48 3 39 -21 -6 -17 -3 -31 7 -31 31 0 120 -85 120 -114 0 -24 86 -129 195 -236 25 -25 45 -54 45 -66 0 -12 12 -29 27 -38 15 -9 37 -36 50 -60 19 -35 39 -43 108 -40 94 4 116 47 43 84 -23 11 -38 31 -33 45 6 17 -15 25 -63 25 -40 0 -72 9 -72 20 0 11 25 20 55 21 46 0 50 3 21 20 -19 11 -29 33 -23 50 8 20 -3 29 -36 31 -26 0 -36 6 -22 11 44 18 27 47 -26 47 -47 0 -49 3 -20 31 42 43 40 45 -32 42 -35 -2 -67 8 -72 22 -5 14 8 25 31 25 30 0 38 10 30 40 -6 23 -27 40 -50 40 -21 0 -33 9 -26 21 9 13 -5 16 -38 8 -33 -9 -52 -5 -52 9 0 14 -19 18 -50 10 -51 -13 -72 20 -25 39 14 5 -38 10 -115 11 -124 1 -136 -3 -103 -27z"/> <path d="M4030 5979 l-60 -14 66 -3 c38 -1 70 -15 77 -32 6 -16 18 -26 26 -21 8 5 29 -22 48 -60 36 -76 12 -108 -58 -81 -18 6 -26 3 -19 -8 7 -11 37 -20 66 -20 67 -1 114 -28 96 -57 -7 -11 5 -31 27 -43 59 -31 149 -236 119 -272 -18 -22 -15 -28 17 -28 55 0 106 -59 52 -62 -21 0 -26 -6 -12 -11 44 -18 27 -47 -30 -49 l-55 -1 60 -21 c87 -31 118 -59 87 -78 -32 -19 17 -30 261 -58 104 -12 196 -26 205 -32 9 -6 17 -1 17 10 0 19 -47 28 -280 52 -104 11 -215 50 -140 49 17 0 125 -13 240 -29 116 -16 233 -28 260 -27 85 2 -71 33 -244 48 -84 8 -183 21 -220 31 -66 17 -33 16 354 -10 l140 -10 -120 18 c-66 10 -195 27 -286 37 -203 22 -249 53 -54 36 93 -8 130 -6 110 7 -16 11 -68 20 -114 20 -46 0 -89 9 -96 20 -8 14 14 17 64 10 42 -5 162 -19 266 -30 105 -11 213 -25 240 -31 36 -9 42 -7 20 7 -30 19 -120 35 -310 54 -205 21 -299 36 -275 45 43 15 27 42 -30 52 -51 10 91 3 395 -17 166 -11 9 19 -188 36 -65 6 -124 21 -132 33 -7 13 -40 31 -72 40 -53 16 -49 18 42 22 102 4 98 7 -37 29 -94 15 -79 40 23 36 50 -2 31 6 -56 24 l-130 27 170 -11 c94 -6 164 -5 158 2 -12 12 -90 23 -223 29 -30 2 -55 10 -55 18 0 8 47 13 105 12 58 -2 85 1 60 6 -87 19 -44 40 55 27 56 -7 94 -6 85 2 -8 8 -69 19 -135 24 -66 6 -109 6 -95 0 54 -21 21 -36 -65 -29 -49 4 -90 15 -90 25 0 10 28 14 62 8 41 -8 57 -4 47 11 -7 12 -23 18 -36 13 -13 -5 -41 -1 -63 7 -34 14 -31 16 18 18 74 1 57 21 -31 34 -100 16 -100 34 0 21 102 -13 95 5 -12 28 -48 11 -9 13 110 7 112 -6 185 -3 185 9 0 11 49 16 115 11 142 -10 101 4 -80 27 -144 18 -162 15 -90 -17 36 -16 29 -18 -35 -10 -44 6 -127 11 -185 11 -58 0 -105 9 -105 20 0 11 7 19 15 18 52 -9 75 3 45 22 -18 12 -21 20 -6 20 13 0 34 -16 47 -35 19 -31 21 -31 12 -1 -7 21 2 37 23 43 54 15 -300 7 -366 -8z"/> <path d="M5258 5705 c-2 -162 -5 -340 -8 -395 -2 -55 -11 -752 -19 -1550 -9 -797 -16 -1489 -17 -1537 -1 -54 9 -93 27 -104 20 -13 21 -18 4 -19 -16 0 -25 -28 -24 -75 0 -65 3 -70 23 -37 12 22 21 96 20 165 -2 79 6 127 19 127 16 0 15 8 0 27 -13 15 -16 33 -9 40 8 8 11 55 8 104 -3 63 3 89 21 89 20 1 21 5 4 15 -23 15 -26 173 -4 195 6 6 8 65 3 131 -6 77 -2 119 12 119 12 0 22 27 22 61 0 33 13 91 28 128 22 52 23 66 4 59 -18 -7 -23 8 -16 52 6 41 18 59 35 52 17 -6 23 1 16 19 -6 16 -21 23 -34 15 -13 -8 -11 2 4 20 24 30 23 34 -8 34 -33 0 -33 2 1 40 20 22 28 40 17 40 -10 0 -20 25 -22 55 -4 42 0 48 15 25 17 -26 19 -26 20 3 0 19 -11 38 -25 44 -18 7 -18 10 2 11 23 2 23 8 3 32 -20 24 -20 30 3 30 21 1 21 5 -3 19 -24 16 -25 30 -6 80 12 34 15 57 6 51 -9 -5 -16 125 -16 290 1 264 4 300 33 300 23 1 26 5 9 16 -16 10 -22 60 -18 145 3 71 -3 146 -13 166 -11 21 -11 33 -2 27 16 -10 26 250 34 921 l3 265 -75 0 -75 0 -2 -295z"/> <path d="M1540 5945 c0 -22 12 -26 45 -15 25 7 81 21 125 30 73 14 70 16 -45 15 -96 -1 -125 -8 -125 -30z"/> <path d="M4820 5930 c215 -31 251 -35 236 -19 -16 16 -78 25 -259 37 l-167 11 190 -29z"/> <path d="M1915 5927 c37 -15 9 -47 -41 -47 -62 -1 -95 -27 -99 -77 -2 -24 -13 -44 -24 -45 -12 -2 -30 -5 -41 -7 -11 -3 -31 -6 -45 -8 -30 -4 -33 -55 -5 -73 10 -6 37 -2 58 9 29 16 46 14 67 -7 45 -44 126 -49 119 -8 -4 23 12 39 45 48 28 7 46 20 40 30 -6 9 12 23 40 29 34 9 48 25 44 51 -8 53 -28 67 -60 40 -31 -25 -64 23 -42 60 6 10 -9 17 -35 16 -25 0 -35 -6 -21 -11z"/> <path d="M2187 5912 c-18 -21 -11 -26 35 -28 31 -1 63 8 70 19 21 34 -9 44 -45 15 -23 -19 -30 -20 -20 -3 20 33 -11 31 -40 -3z"/> <path d="M1340 5825 l-70 -35 70 -12 c60 -11 62 -13 16 -15 -55 -3 -184 -108 -161 -131 19 -20 102 -14 115 9 9 13 -7 17 -43 10 -31 -6 -43 -5 -27 2 17 7 40 27 52 44 17 22 62 31 175 31 84 0 153 8 153 16 0 9 -34 16 -75 16 -93 1 -152 31 -99 51 19 7 46 4 61 -9 15 -12 32 -16 40 -9 49 50 -119 75 -207 32z"/> <path d="M4660 5842 c0 -10 -47 -14 -105 -8 -143 14 -114 -7 33 -25 79 -9 113 -7 104 7 -7 12 8 25 33 30 39 7 38 9 -10 11 -30 2 -55 -5 -55 -15z"/> <path d="M2130 5821 c-38 -16 -38 -17 -3 -32 20 -8 43 -6 50 5 7 11 27 25 43 31 21 9 18 12 -10 12 -22 0 -58 -7 -80 -16z"/> <path d="M1031 5783 c-7 -21 -46 -47 -92 -61 -75 -22 -93 -62 -27 -62 25 0 25 -8 3 -55 -35 -73 -23 -165 21 -165 43 1 108 39 67 40 -22 0 -23 6 -4 29 14 16 19 38 12 49 -6 11 4 29 24 40 33 20 33 21 0 21 -19 1 -35 15 -35 31 0 17 14 30 31 30 17 0 26 9 19 20 -7 11 -5 20 5 20 22 0 27 76 5 90 -9 6 -22 -6 -29 -27z"/> <path d="M4870 5780 c81 -18 224 -26 208 -12 -4 4 -71 12 -148 18 -108 9 -121 7 -60 -6z"/> <path d="M2770 5727 c-111 -14 -152 -28 -140 -48 8 -11 26 -12 46 -2 73 38 217 48 183 13 -17 -17 -78 -36 -135 -43 -57 -7 -99 -19 -94 -27 9 -14 -16 -26 -110 -53 -16 -5 -52 -10 -80 -12 -59 -5 -85 -35 -59 -67 13 -15 8 -32 -15 -50 -22 -19 -29 -20 -19 -3 9 14 6 25 -4 25 -11 0 -26 -17 -33 -39 -7 -24 -26 -36 -50 -31 -25 5 -34 -2 -28 -19 7 -17 -13 -31 -59 -39 -52 -10 -71 -25 -78 -62 -16 -86 201 -73 336 20 124 85 373 177 570 210 82 14 173 37 203 52 61 32 148 37 165 10 6 -10 -9 -13 -34 -7 -25 6 -38 3 -29 -6 9 -10 -27 -38 -80 -62 l-96 -44 104 6 c73 4 107 -3 114 -22 6 -15 -2 -27 -17 -27 -18 0 -26 -15 -21 -40 8 -42 14 -42 -143 -9 -49 11 -52 9 -25 -23 25 -32 24 -34 -9 -22 -20 8 -41 14 -46 14 -5 0 -4 9 2 19 7 11 -13 6 -43 -10 -31 -16 -71 -29 -90 -29 -44 0 -68 -40 -36 -60 19 -12 18 -18 -3 -26 -19 -8 -16 -11 8 -12 19 -1 35 5 35 13 0 8 22 16 50 18 27 1 45 -4 40 -13 -5 -9 4 -21 21 -28 18 -6 25 -22 17 -35 -9 -15 -5 -18 9 -9 13 8 19 22 14 30 -5 9 4 33 20 54 22 28 29 30 27 8 -6 -60 3 -80 32 -80 17 0 30 9 30 21 0 14 13 14 40 -1 27 -15 40 -15 40 -1 0 12 -11 21 -23 21 -13 0 -17 7 -9 15 9 8 28 -3 44 -24 27 -37 28 -36 28 14 0 29 16 62 35 73 32 19 32 21 -5 22 -31 0 -34 4 -12 19 18 11 44 8 70 -7 23 -14 56 -24 72 -23 17 1 42 -16 56 -38 25 -40 25 -40 13 4 -13 51 1 58 41 18 21 -21 22 -33 5 -50 -17 -17 -14 -23 14 -23 20 0 51 -16 69 -35 44 -49 121 -79 187 -72 30 2 55 -5 55 -17 0 -11 22 -16 49 -11 28 5 45 2 39 -8 -6 -9 3 -17 19 -17 43 0 57 -56 17 -68 -19 -5 9 -8 61 -6 100 4 100 5 61 -99 -9 -24 72 -56 197 -78 46 -8 87 -32 114 -69 28 -38 67 -60 118 -69 63 -11 125 -92 66 -87 -63 5 -81 -9 -81 -64 0 -40 -10 -60 -30 -60 -36 0 -40 -52 -5 -68 14 -7 -2 -7 -35 -2 -42 8 -52 6 -31 -8 23 -15 24 -29 6 -70 -26 -57 -3 -86 61 -75 68 11 100 -35 63 -91 -21 -33 -25 -57 -12 -72 32 -40 35 -106 6 -141 -16 -19 -19 -33 -7 -33 11 0 34 -5 51 -12 43 -16 90 137 55 180 -16 19 -17 33 -4 41 13 8 5 45 -21 99 -60 123 -41 192 48 174 76 -14 199 -226 157 -268 -12 -12 -22 -42 -22 -66 0 -34 -16 -48 -65 -59 l-65 -15 50 -21 c28 -12 60 -35 72 -50 22 -29 111 -1 105 33 -6 42 7 64 38 64 30 1 31 3 5 20 -43 29 12 64 85 54 30 -4 55 0 55 9 0 10 -22 17 -49 17 -56 0 -92 40 -37 41 34 0 33 2 -3 30 -28 21 -31 29 -10 30 21 0 18 8 -10 30 -21 16 -28 29 -15 29 13 0 24 9 24 20 0 11 -7 18 -15 15 -8 -3 -17 4 -19 15 -2 11 13 19 34 19 47 -2 31 30 -16 33 -21 1 -15 8 16 18 48 15 10 32 -48 21 -10 -2 -7 11 8 29 23 28 21 34 -17 43 -57 15 -56 46 2 35 41 -8 42 -7 5 9 -22 10 -47 14 -56 9 -9 -5 -31 2 -50 17 -31 24 -31 22 1 -15 48 -57 -24 -131 -110 -114 -54 10 -98 46 -57 46 11 0 35 31 53 70 18 38 41 65 51 59 36 -23 16 11 -41 70 -33 34 -51 61 -40 61 57 0 1 44 -141 112 -88 43 -160 89 -160 102 0 14 -34 42 -75 62 -46 22 -74 48 -72 70 1 18 -4 29 -12 24 -8 -5 -27 13 -41 40 -15 27 -43 55 -63 61 -20 6 -37 19 -37 29 0 10 -18 23 -40 30 -22 7 -40 26 -40 41 0 17 -19 29 -45 29 -83 0 -349 128 -445 215 -52 47 -110 85 -129 85 -19 0 -41 6 -48 14 -26 25 -163 66 -269 79 -58 7 -110 20 -116 30 -10 17 -138 18 -258 4z m410 -127 c-16 -11 -71 -20 -121 -20 -50 0 -100 -9 -110 -19 -10 -10 -59 -24 -109 -30 l-90 -10 104 35 c57 19 110 42 118 50 8 8 65 14 126 14 80 -1 103 -6 82 -20z"/> <path d="M4940 5719 c50 -9 122 -15 160 -15 57 1 52 4 -30 17 -137 21 -252 20 -130 -2z"/> <path d="M1371 5641 c-6 -10 4 -22 24 -27 19 -5 -10 -11 -65 -12 -55 -1 -113 -11 -130 -22 -20 -13 13 -15 100 -7 72 7 136 22 143 33 7 10 22 13 33 6 12 -7 27 -4 34 8 7 11 1 21 -14 21 -14 1 -46 6 -70 10 -24 5 -49 0 -55 -10z"/> <path d="M4815 5639 c18 -17 212 -39 196 -23 -7 6 -57 17 -112 24 -55 7 -93 7 -84 -1z"/> <path d="M1603 5589 c-31 -68 -29 -79 7 -49 19 16 49 19 85 9 51 -14 47 -17 -43 -31 -89 -14 -131 -41 -132 -83 0 -8 14 -15 30 -15 17 0 30 8 30 18 0 22 98 42 110 22 14 -23 -45 -66 -69 -51 -11 7 -37 4 -58 -7 -25 -14 -44 -13 -58 1 -23 23 -65 7 -65 -25 0 -11 11 -14 25 -5 17 10 16 4 -2 -19 -24 -29 -24 -34 0 -35 15 0 2 -14 -29 -31 -30 -16 -50 -38 -43 -49 10 -17 -38 -26 -136 -26 -19 0 -39 -16 -46 -35 -9 -31 -125 -67 -181 -57 -42 8 -49 -3 -20 -32 17 -17 25 -45 17 -65 -11 -30 -8 -31 21 -7 36 30 48 74 14 53 -11 -7 -20 -2 -20 10 0 12 16 21 35 19 19 -2 42 -1 50 1 8 3 22 7 30 9 8 2 50 19 92 37 43 19 89 34 102 34 13 0 45 23 71 50 26 28 57 47 69 43 11 -4 50 4 86 19 56 22 65 22 65 -3 0 -16 -17 -29 -37 -29 -55 0 -63 -19 -27 -62 33 -38 97 -55 75 -20 -6 11 4 23 24 28 33 9 33 9 0 12 -74 5 -5 102 72 102 29 0 53 9 53 20 0 11 -8 18 -18 15 -10 -3 -18 3 -18 13 0 10 -12 24 -25 33 -17 10 -4 25 39 48 39 20 61 46 58 66 -3 19 5 35 19 37 47 6 48 8 19 37 -20 20 -52 26 -102 18 -51 -9 -72 -5 -72 13 0 19 -8 18 -34 -3 -23 -18 -29 -19 -19 -2 9 14 7 25 -3 25 -9 0 -28 -23 -41 -51z"/> <path d="M4740 5602 c0 -12 20 -22 45 -23 77 -1 264 -21 291 -30 14 -5 21 -1 15 9 -5 9 -74 23 -153 31 -78 8 -155 19 -170 25 -15 5 -28 0 -28 -12z"/> <path d="M1133 5510 c-13 -33 39 -40 124 -17 35 9 40 17 20 29 -44 28 -132 20 -144 -12z"/> <path d="M4700 5500 c0 -11 26 -20 57 -20 31 0 115 -4 185 -9 l128 -9 -110 17 c-60 10 -144 23 -185 30 -45 7 -75 3 -75 -9z"/> <path d="M4740 5441 c180 -27 382 -42 300 -21 -38 9 -146 22 -240 28 -138 8 -149 7 -60 -7z"/> <path d="M1140 5398 l-70 -40 89 12 c101 13 110 18 92 49 -18 28 -29 26 -111 -21z"/> <path d="M905 5406 c39 -10 48 -46 12 -46 -13 0 -19 -5 -13 -11 6 -6 35 -5 65 2 l53 14 -53 27 c-30 16 -64 27 -76 26 -13 -2 -7 -7 12 -12z"/> <path d="M2640 5300 c0 -11 -16 -20 -35 -21 -33 0 -33 -1 0 -21 20 -11 31 -29 24 -39 -6 -11 -2 -19 10 -19 11 0 21 14 21 31 0 17 9 26 20 19 23 -14 25 -6 8 38 -14 35 -48 44 -48 12z"/> <path d="M4860 5220 c49 -16 214 -27 198 -13 -4 4 -62 12 -128 19 -75 7 -101 5 -70 -6z"/> <path d="M2027 5160 c-70 -10 -247 -106 -247 -134 0 -28 321 66 345 101 11 17 19 17 31 -1 9 -14 26 -17 41 -8 43 27 -75 56 -170 42z"/> <path d="M2716 5135 c-3 -25 -16 -45 -29 -45 -13 0 -31 -7 -40 -17 -9 -9 -8 -14 3 -11 32 7 91 -24 79 -43 -5 -9 9 -27 32 -40 38 -20 40 -18 21 18 -12 22 -22 44 -22 49 0 17 101 29 110 13 12 -19 90 0 90 21 0 26 -60 40 -60 14 -1 -13 -18 -2 -38 24 -41 54 -116 46 -94 -9 7 -19 3 -26 -9 -18 -11 7 -15 30 -8 51 6 21 3 38 -8 38 -11 0 -23 -20 -27 -45z"/> <path d="M2366 5121 c-57 -20 -111 -42 -120 -47 -70 -44 -557 -109 -534 -72 21 35 -198 6 -300 -40 -45 -20 -169 -118 -274 -218 -106 -101 -197 -179 -202 -173 -5 5 -9 -4 -9 -20 0 -16 8 -24 19 -17 24 14 -1 -134 -28 -166 -10 -12 -12 -27 -5 -34 7 -7 4 -25 -6 -39 -11 -14 -19 -38 -18 -55 1 -16 -5 -35 -13 -41 -9 -6 -8 -39 2 -72 10 -34 13 -84 8 -112 -5 -28 0 -70 13 -93 17 -31 17 -42 -1 -42 -17 0 -17 -8 1 -29 14 -16 19 -38 13 -48 -17 -27 69 -367 102 -406 16 -18 21 -37 12 -42 -9 -4 -5 -6 8 -3 37 9 62 -36 80 -140 l16 -96 52 49 c50 46 54 47 76 11 13 -21 32 -32 43 -26 37 24 18 -14 -26 -50 -40 -33 -42 -40 -15 -73 44 -54 86 -133 64 -119 -10 6 -19 -11 -19 -38 0 -27 7 -45 16 -39 9 5 22 -9 29 -31 7 -22 21 -36 30 -30 10 6 27 -7 39 -28 14 -27 15 -44 1 -52 -30 -19 -4 -50 31 -37 21 8 33 -7 42 -52 9 -45 18 -56 30 -38 13 21 16 19 17 -6 0 -19 -11 -38 -25 -44 -23 -9 33 -21 70 -15 8 1 15 -7 15 -18 0 -11 10 -20 22 -20 12 0 17 13 11 28 -8 23 1 22 47 -4 65 -37 34 -78 -40 -54 -24 8 -40 4 -40 -10 0 -12 9 -17 20 -10 11 7 21 1 22 -14 3 -30 10 -61 17 -76 7 -16 15 -100 9 -100 -3 0 -21 16 -40 35 -34 33 -35 33 -23 0 10 -25 4 -35 -19 -35 -29 0 -28 -4 5 -30 33 -25 35 -32 10 -49 -20 -13 -35 -11 -45 5 -8 14 -13 6 -11 -19 2 -28 13 -39 31 -32 22 8 26 -1 16 -37 -6 -26 -6 -37 0 -23 18 40 48 8 48 -51 -1 -36 -6 -45 -17 -28 -9 14 -31 20 -49 13 -27 -11 -24 -20 22 -62 51 -48 52 -50 9 -40 -57 12 -83 -26 -28 -40 24 -7 36 -22 30 -39 -6 -15 -21 -22 -34 -14 -17 10 -17 6 -1 -15 37 -48 47 -137 14 -125 -16 6 -23 25 -17 41 8 20 2 26 -19 18 -16 -7 -30 -3 -30 8 0 10 11 20 25 20 14 1 7 10 -15 19 -26 11 -29 18 -11 19 21 1 18 10 -12 30 -40 28 -81 142 -43 118 11 -6 13 21 5 66 -8 42 -17 93 -20 112 -4 19 2 39 12 46 11 6 19 -16 19 -50 0 -33 7 -61 15 -61 8 0 15 32 15 70 0 43 -10 70 -25 70 -34 0 -32 33 4 47 15 6 33 0 38 -13 5 -13 10 -15 11 -4 3 43 -37 82 -55 53 -13 -20 -20 -16 -29 17 -6 24 -20 38 -31 32 -32 -20 -49 27 -22 59 19 23 17 31 -8 40 -22 9 -29 35 -24 95 4 59 -4 91 -26 109 -30 23 -30 24 2 13 19 -7 35 -3 35 8 0 11 -9 24 -21 28 -11 3 -22 27 -24 51 -4 55 -2 56 -67 -5 -30 -27 -42 -50 -28 -50 15 0 21 -6 14 -13 -7 -7 -3 -30 8 -51 16 -30 13 -48 -11 -75 -28 -31 -29 -38 -3 -47 16 -7 34 -3 39 8 6 10 8 8 5 -6 -3 -15 -25 -29 -49 -32 -23 -4 -43 -16 -43 -27 0 -11 17 -14 38 -8 21 7 43 5 49 -5 21 -34 33 -144 16 -144 -10 0 -14 -25 -9 -55 5 -30 8 -73 8 -94 0 -22 9 -45 20 -52 12 -8 13 -30 1 -61 -14 -36 -10 -56 14 -78 29 -27 29 -30 -3 -36 -31 -6 -31 -9 -1 -40 22 -22 25 -35 9 -40 -16 -5 -12 -17 10 -33 19 -14 36 -43 38 -63 2 -21 10 -67 18 -103 13 -55 9 -65 -21 -66 -32 -1 -31 -4 5 -19 61 -24 97 -305 43 -327 -20 -8 -20 -10 0 -11 14 -1 25 -12 25 -23 0 -12 -9 -16 -20 -9 -31 19 -24 -3 13 -40 23 -23 26 -39 11 -54 -14 -14 -5 -35 33 -68 36 -32 43 -47 23 -48 -25 0 -25 -4 -2 -18 48 -31 84 -162 45 -163 -26 -1 -24 -6 7 -19 31 -13 32 -18 7 -19 -43 -1 -88 -54 -55 -65 15 -5 11 -21 -14 -46 -34 -34 -34 -36 -3 -25 26 10 35 4 35 -26 0 -21 -9 -39 -20 -39 -11 0 -20 -9 -20 -20 0 -11 14 -20 30 -20 17 0 30 -13 30 -30 0 -17 -18 -30 -43 -30 -60 0 -36 -19 30 -24 55 -5 68 -24 32 -47 -15 -9 -14 -20 0 -38 16 -19 9 -34 -29 -59 -28 -19 -47 -41 -41 -51 6 -9 -5 -23 -24 -30 -33 -13 -33 -15 0 -34 20 -11 31 -27 26 -36 -15 -23 63 -87 88 -72 11 7 21 30 21 50 0 64 54 63 81 0 l24 -59 208 0 c202 0 208 1 187 40 -12 22 -33 40 -48 40 -44 0 -106 159 -71 181 92 58 184 -26 219 -201 8 -38 24 -51 72 -56 83 -8 74 95 -14 158 -54 38 -78 81 -43 76 51 -8 46 8 -10 32 -51 22 -63 38 -58 74 5 25 -1 57 -12 71 -11 14 -13 25 -5 25 7 0 -5 33 -29 73 -34 58 -38 77 -17 90 18 12 13 16 -18 17 -24 0 -54 16 -66 35 -21 32 -22 31 -14 -7 5 -22 -5 -58 -21 -80 -28 -36 -29 -36 -16 7 8 27 5 45 -8 45 -11 0 -21 -14 -21 -32 0 -17 -11 -28 -25 -23 -36 12 -33 107 3 99 53 -11 88 120 45 167 -40 43 -63 198 -32 215 16 9 29 25 29 36 0 11 -10 14 -23 6 -16 -10 -20 -1 -12 29 9 35 3 43 -38 43 -28 0 -44 9 -37 20 7 11 -8 29 -34 39 -25 10 -34 19 -20 20 15 0 21 9 15 19 -14 23 38 66 59 47 8 -8 11 -1 5 15 -5 17 -20 28 -33 25 -12 -3 -22 7 -22 23 0 15 -14 38 -30 52 -18 15 -26 41 -19 63 6 20 3 37 -7 37 -28 0 -44 78 -20 92 13 8 11 19 -6 29 -20 12 -20 22 -2 44 13 16 19 33 13 39 -15 16 55 156 78 156 10 0 2 19 -18 41 -21 23 -29 39 -18 35 10 -3 19 3 19 14 0 11 -7 18 -15 15 -9 -3 -10 20 -4 50 21 96 28 108 54 93 19 -11 20 -8 2 12 -13 13 -19 39 -12 56 8 21 4 26 -14 15 -19 -12 -20 -7 -3 25 27 51 28 70 2 54 -28 -17 -25 2 12 74 25 48 26 65 7 77 -17 10 -10 18 23 22 32 5 58 29 77 74 24 53 39 64 75 57 25 -5 46 -1 46 8 0 10 22 7 49 -5 38 -18 57 -17 80 3 25 20 37 20 61 0 26 -22 29 -20 17 12 -18 48 -49 69 -76 52 -32 -20 -72 -23 -61 -4 6 10 1 23 -10 30 -11 7 -16 20 -10 30 6 9 -24 47 -66 83 -43 37 -83 83 -90 103 -8 20 -23 31 -34 24 -11 -7 -20 -4 -20 6 0 11 -19 24 -41 30 -33 9 -37 6 -18 -17 12 -15 15 -39 7 -53 -64 -104 70 -210 137 -108 8 13 15 3 15 -23 0 -25 11 -45 23 -45 13 0 18 -6 11 -13 -20 -20 -101 -21 -140 -2 -38 19 -9 -57 35 -88 11 -8 7 -28 -10 -48 -29 -35 -211 -30 -237 6 -7 9 -36 31 -66 51 -34 21 -50 45 -43 64 6 17 0 30 -13 30 -13 0 -19 13 -13 30 7 17 3 30 -8 30 -11 0 -26 16 -33 35 -8 19 -25 44 -40 55 -15 11 -30 40 -35 65 -5 25 -27 72 -50 103 l-41 58 45 29 c25 16 77 37 115 45 239 51 380 144 339 223 -25 46 -24 54 10 79 34 24 30 36 -11 31 -13 -1 -16 14 -24 128 -9 121 -34 147 -67 69 -31 -75 -35 -103 -7 -60 17 26 19 25 20 -5 0 -19 -10 -35 -21 -35 -12 0 -16 -9 -9 -20 7 -11 -7 -20 -30 -20 -40 0 -41 -2 -9 -34 19 -19 25 -37 14 -41 -12 -4 -16 -24 -11 -46 6 -23 1 -39 -14 -39 -13 0 -20 -12 -14 -27 7 -19 -5 -28 -38 -28 -27 0 -48 12 -48 28 0 15 -8 27 -18 27 -10 0 -14 -18 -8 -40 7 -28 1 -40 -22 -40 -17 0 -32 -14 -32 -31 0 -17 -8 -27 -17 -21 -9 6 -34 -2 -55 -18 -53 -40 -108 -38 -106 5 1 21 5 25 11 10 13 -32 60 -32 79 -2 10 16 3 20 -21 10 -24 -9 -32 -5 -26 12 5 14 -7 42 -28 63 -36 38 -37 38 -37 -10 -1 -37 -5 -41 -19 -19 -10 16 -14 36 -9 45 6 9 0 16 -14 16 -13 0 10 27 52 60 42 33 67 60 56 60 -11 0 -41 -18 -66 -40 -73 -63 -152 -47 -149 30 3 81 22 111 65 97 28 -9 29 -7 4 10 -40 29 -106 -31 -92 -84 7 -27 3 -32 -11 -18 -12 12 -18 57 -14 101 6 59 -1 86 -26 101 -21 13 -33 48 -33 96 0 42 -10 79 -22 83 -12 4 -22 22 -22 41 1 26 4 27 18 6 23 -37 35 -10 40 94 2 52 -4 82 -16 74 -34 -21 -83 70 -60 113 11 20 15 45 9 55 -17 27 31 121 62 121 15 0 27 10 27 21 0 12 8 16 18 10 9 -6 52 -15 95 -21 61 -8 68 -6 32 10 -25 10 -45 35 -45 54 1 31 4 32 20 6 11 -16 20 -23 20 -15 0 7 22 5 50 -5 60 -23 116 -5 102 33 -10 26 -3 31 53 35 42 3 92 56 81 86 -6 16 -25 23 -41 17 -17 -7 -41 3 -54 22 -20 26 -28 28 -41 7 -11 -17 -8 -21 7 -12 13 8 23 5 23 -7 0 -26 -21 -26 -60 -1 -27 18 -27 22 0 40 22 14 23 19 4 20 -20 0 -19 8 5 32 18 18 64 32 103 32 77 0 110 -18 75 -40 -16 -10 -15 -21 4 -39 15 -14 32 -17 38 -6 7 11 37 11 76 0 80 -23 80 -23 65 1 -7 11 6 20 29 20 23 0 41 13 41 30 0 16 -7 29 -15 28 -58 -9 -94 4 -65 23 23 16 16 19 -30 15 -33 -3 -66 -15 -74 -26 -20 -28 -64 20 -46 50 8 13 31 19 52 14 26 -7 39 1 40 23 0 18 5 23 10 11 9 -22 137 -20 210 3 19 6 41 1 48 -11 7 -11 2 -19 -11 -15 -13 3 -29 -8 -34 -23 -7 -19 -2 -23 17 -11 24 14 24 12 1 -17 -16 -19 -41 -34 -57 -34 -15 0 -23 -8 -17 -18 6 -9 -2 -28 -16 -40 -16 -13 -23 -44 -17 -75 7 -37 3 -49 -13 -39 -14 9 -23 -1 -23 -26 0 -22 -9 -45 -20 -52 -11 -7 -20 -29 -20 -50 0 -20 -15 -52 -33 -70 -31 -31 -31 -38 3 -95 51 -87 106 -138 122 -113 7 12 3 31 -10 44 -16 16 -10 34 22 68 23 25 33 46 21 46 -12 0 -26 -11 -32 -25 -8 -20 -10 -20 -11 0 -1 15 21 35 48 45 43 17 61 51 52 105 -1 8 6 15 15 15 10 0 13 23 8 50 -6 30 0 50 14 50 12 0 20 16 17 35 -3 20 5 33 19 30 14 -3 25 12 25 33 0 42 47 89 68 67 8 -7 8 3 0 24 -9 22 -7 33 4 26 11 -7 37 14 58 45 22 32 59 63 84 69 26 7 46 21 46 31 0 11 14 20 30 20 17 0 30 7 30 16 0 37 198 39 222 2 9 -16 18 -18 18 -6 0 12 29 32 65 43 36 12 50 22 32 23 -24 1 -30 14 -22 45 9 34 4 41 -21 31 -18 -7 -38 -4 -45 7 -6 10 -22 19 -34 19 -12 0 -5 -13 16 -28 21 -16 45 -24 54 -19 8 5 15 0 15 -12 0 -26 -5 -26 -74 2 -31 13 -74 22 -96 21 -28 -2 -31 1 -10 10 125 53 81 76 -54 27z m-711 -4013 c-22 -22 33 -62 74 -55 23 4 30 2 17 -4 -20 -9 -20 -18 0 -38 13 -15 30 -23 37 -19 7 4 9 -10 3 -32 -6 -22 -19 -35 -28 -29 -10 6 -18 -2 -18 -19 0 -19 14 -27 40 -22 51 10 52 -33 2 -78 -40 -36 -122 54 -122 135 0 18 -7 32 -15 31 -39 -7 -48 5 -24 33 14 17 17 30 7 28 -38 -7 -68 2 -68 20 0 11 15 14 33 7 21 -8 29 -5 20 9 -7 12 -2 26 12 32 36 14 43 15 30 1z m173 -365 c26 -50 26 -60 -1 -88 -36 -36 -21 -75 29 -75 29 -1 30 -3 4 -20 -20 -13 -22 -19 -5 -20 14 0 25 -25 25 -55 1 -36 6 -46 17 -29 21 33 89 8 75 -29 -6 -15 -2 -27 9 -27 10 0 19 10 19 21 0 12 9 16 20 9 46 -28 20 -87 -45 -101 -87 -19 -185 -73 -187 -104 -1 -14 -3 -41 -5 -61 -2 -29 -17 -34 -72 -28 -45 5 -65 17 -58 34 5 14 -4 58 -21 98 -17 42 -21 72 -10 72 11 0 15 9 7 21 -7 11 -2 34 12 50 19 23 19 35 0 58 -26 31 -11 111 20 111 27 0 98 74 84 88 -6 6 -22 3 -35 -8 -16 -13 -23 -11 -23 8 0 19 18 26 56 21 32 -4 57 2 57 13 0 11 -8 15 -19 9 -31 -19 -45 27 -17 58 34 38 30 40 64 -26z m119 -607 c-6 -10 6 -32 26 -49 20 -16 27 -25 14 -19 -12 6 -34 -2 -47 -18 -57 -69 -122 -37 -117 57 l4 87 66 -20 c36 -11 60 -28 54 -38z"/> <path d="M1717 604 c-13 -64 -10 -146 5 -155 10 -6 18 -39 18 -72 0 -39 9 -57 25 -52 14 5 25 32 26 61 0 30 18 67 40 84 27 21 29 27 7 19 -18 -6 -46 2 -63 19 -17 17 -36 25 -43 18 -6 -7 -12 -3 -12 10 0 12 14 30 32 40 30 17 30 19 0 30 -18 7 -33 6 -35 -2z"/> <path d="M3389 5139 c-5 -9 -25 -12 -43 -5 -25 10 -30 5 -19 -22 17 -46 -6 -86 -29 -49 -14 21 -17 20 -18 -7 0 -19 -16 -43 -35 -54 -29 -17 -30 -21 -4 -21 53 -1 201 -81 188 -102 -6 -11 -20 -14 -30 -8 -11 6 -19 -2 -19 -19 0 -19 -11 -26 -30 -19 -16 6 -30 1 -30 -12 0 -15 28 -20 80 -14 46 6 75 2 69 -9 -6 -10 -2 -18 10 -18 35 0 24 -36 -14 -46 -19 -5 -5 -10 32 -12 53 -2 65 5 55 29 -6 18 -3 26 8 19 28 -17 25 2 -9 68 -16 32 -25 62 -19 68 21 21 -43 94 -82 94 -30 -1 -33 -5 -13 -18 19 -12 21 -21 5 -31 -36 -22 -57 5 -47 59 6 29 15 47 21 41 6 -6 23 8 39 30 16 23 23 47 16 54 -20 21 -70 23 -82 4z"/> <path d="M4480 5058 l-50 -14 50 -4 c188 -15 245 -21 364 -39 157 -25 231 -25 153 -1 -30 8 -115 22 -190 29 -75 8 -168 21 -207 29 -38 8 -92 8 -120 0z"/> <path d="M2955 5028 c-23 -36 18 -78 50 -52 16 13 35 18 42 10 7 -7 13 2 13 20 0 37 -59 24 -61 -13 -1 -13 -9 -6 -17 16 -8 21 -21 30 -27 19z"/> <path d="M4610 4981 c126 -25 323 -40 290 -22 -16 9 -106 21 -200 27 -110 7 -142 6 -90 -5z"/> <path d="M3804 4935 c9 -67 76 -120 137 -108 50 10 104 -9 101 -34 -6 -40 1 -53 24 -53 15 0 45 -17 68 -39 23 -21 49 -32 58 -25 9 8 6 0 -7 -17 -14 -19 -16 -41 -4 -60 10 -16 19 -51 19 -79 0 -37 5 -43 18 -22 10 16 14 40 8 54 -16 42 13 74 44 48 18 -15 30 -15 39 -1 8 12 9 21 3 21 -5 0 2 30 18 66 25 61 24 66 -12 69 -21 1 -34 -6 -27 -17 7 -11 -15 -17 -52 -14 -69 5 -87 32 -97 143 -3 25 -52 3 -54 -24 -6 -48 -9 -50 -35 -14 -21 29 -42 34 -92 24 -53 -10 -63 -7 -54 17 7 18 0 30 -18 30 -16 0 -29 13 -29 28 0 15 -14 33 -31 40 -24 9 -30 1 -25 -33z"/> <path d="M3152 4946 c-30 -8 -32 -14 -10 -28 21 -13 15 -18 -22 -20 l-50 -2 50 -15 c28 -8 48 -26 45 -39 -4 -14 3 -20 14 -13 10 7 17 39 15 72 -2 32 -4 58 -4 57 0 -2 -17 -7 -38 -12z"/> <path d="M4960 4953 c0 -7 29 -20 65 -31 87 -25 -64 -28 -210 -4 -52 9 -95 9 -95 1 0 -8 70 -21 155 -29 230 -23 278 -26 250 -16 -14 5 -25 18 -25 29 0 11 9 14 20 7 11 -7 20 -3 20 9 0 11 -20 21 -45 21 -25 0 -65 6 -90 13 -25 6 -45 6 -45 0z"/> <path d="M2529 4890 c-6 -22 -10 -48 -8 -58 1 -10 -10 -25 -24 -34 -19 -12 -20 -17 -3 -18 13 0 32 14 41 30 15 27 28 27 116 0 54 -16 101 -30 104 -30 3 0 5 14 5 30 0 17 -19 31 -45 31 -43 2 -43 3 -5 19 40 17 40 17 0 18 -22 1 -53 -7 -70 -18 -22 -14 -39 -7 -65 26 -34 43 -35 43 -46 4z"/> <path d="M3010 4858 c-62 -31 -97 -118 -47 -118 21 0 37 11 36 25 -7 53 2 75 31 75 17 0 30 9 30 20 0 23 2 23 -50 -2z"/> <path d="M4754 4859 c9 -9 84 -21 166 -27 122 -9 134 -7 64 8 -124 26 -249 37 -230 19z"/> <path d="M3602 4777 c16 -30 27 -35 37 -18 12 18 18 17 27 -5 6 -16 1 -39 -12 -52 -16 -16 -5 -22 43 -22 44 0 61 -7 51 -23 -8 -13 -5 -18 6 -10 52 31 42 91 -16 103 -32 7 -58 24 -58 37 0 13 -23 26 -51 28 -45 4 -48 1 -27 -38z"/> <path d="M4910 4781 c64 -17 202 -27 188 -13 -4 5 -62 14 -128 19 -82 7 -101 5 -60 -6z"/> <path d="M3199 4775 c-12 -39 -16 -95 -7 -95 24 0 61 52 53 75 -7 21 -42 36 -46 20z"/> <path d="M3300 4725 c1 -30 3 -31 20 -5 17 26 19 26 20 -1 0 -41 -39 -78 -69 -67 -13 6 -24 -4 -24 -21 0 -43 19 -39 72 18 27 28 41 62 34 80 -16 42 -53 39 -53 -4z"/> <path d="M3043 4699 c-25 -20 -58 -32 -74 -26 -38 15 -37 -21 1 -53 25 -21 38 -19 72 12 22 20 39 28 37 17 -13 -68 63 -91 100 -30 13 21 18 20 27 -2 7 -19 11 -16 12 9 1 24 -18 39 -60 47 -36 8 -52 18 -38 27 17 11 16 17 -4 25 -15 6 -48 -6 -73 -26z"/> <path d="M4890 4719 c55 -8 141 -15 190 -15 l90 1 -80 16 c-44 9 -129 16 -190 15 l-110 -1 100 -16z"/> <path d="M2500 4700 c0 -11 -14 -20 -31 -20 -16 0 -35 -12 -40 -27 -15 -38 27 -138 51 -123 11 7 16 20 10 30 -6 9 1 21 15 27 14 5 6 11 -17 11 -23 1 -41 15 -41 32 0 24 5 25 30 5 22 -18 26 -18 17 -1 -9 14 2 28 26 36 22 7 35 21 29 31 -15 25 -49 24 -49 -1z"/> <path d="M2814 4666 c-6 -9 2 -34 18 -55 15 -21 28 -27 28 -14 0 14 8 20 19 14 10 -6 25 0 33 14 8 14 7 18 -2 10 -9 -8 -32 -1 -51 16 -19 17 -40 24 -45 15z"/> <path d="M4980 4660 c28 -9 82 -16 120 -16 63 0 65 2 20 16 -27 9 -81 16 -120 16 -63 0 -65 -2 -20 -16z"/> <path d="M2674 4534 c-18 -23 -34 -55 -34 -70 0 -19 -14 -25 -43 -17 -65 17 -161 -8 -149 -39 6 -14 -1 -22 -14 -17 -38 14 -140 -20 -150 -50 -6 -16 0 -21 13 -13 13 8 23 5 23 -7 0 -13 19 -17 46 -10 31 7 63 -2 95 -29 30 -25 38 -41 22 -41 -23 -1 -23 -7 -3 -31 20 -24 31 -25 54 -7 24 20 26 15 14 -33 -12 -47 -9 -55 19 -44 18 7 33 5 33 -4 0 -9 -47 -28 -105 -41 -169 -38 -237 -47 -233 -28 21 116 -120 61 -149 -58 -13 -50 -21 -55 -85 -48 -63 7 -70 3 -61 -31 7 -27 2 -36 -17 -29 -20 8 -24 -2 -17 -33 6 -24 16 -93 22 -154 9 -90 14 -101 28 -63 10 28 28 43 45 37 19 -8 25 2 20 32 -5 24 -3 33 4 19 8 -19 24 -14 58 18 46 45 38 99 -20 142 -11 8 -4 15 17 15 20 0 61 17 90 38 118 84 246 45 176 -53 -22 -31 14 -33 70 -3 22 11 55 15 74 8 25 -11 17 -19 -35 -37 -38 -13 -73 -36 -78 -51 -5 -16 0 -22 12 -14 12 7 27 3 35 -9 37 -61 111 -60 201 2 49 34 83 71 76 82 -6 11 0 18 15 15 15 -2 44 3 64 12 23 10 43 7 52 -9 9 -13 23 -23 33 -22 10 2 23 -23 30 -55 6 -31 19 -69 28 -84 12 -19 8 -23 -16 -14 -22 8 -29 3 -21 -17 8 -21 20 -23 49 -8 21 11 38 16 38 10 0 -5 -26 -23 -57 -39 -41 -21 -55 -43 -51 -76 2 -25 5 -57 6 -71 1 -14 17 -25 34 -25 26 0 28 -6 10 -27 -18 -22 -13 -26 28 -18 27 5 45 17 40 25 -15 24 11 82 31 70 9 -6 22 -2 29 10 7 11 1 20 -14 20 -16 0 -18 6 -6 15 23 17 26 75 5 97 -8 7 4 30 27 50 23 20 36 45 29 56 -7 11 7 30 30 42 35 19 38 28 15 55 -22 28 -21 31 9 19 19 -7 35 -4 35 7 0 10 -11 19 -24 19 -19 0 -19 5 0 24 13 13 24 33 24 43 0 11 -6 14 -13 7 -6 -7 -37 0 -67 16 -31 16 -74 25 -98 20 -33 -6 -42 2 -42 41 0 27 9 49 20 49 11 0 20 -8 20 -18 0 -9 18 -22 39 -28 22 -5 39 -4 38 3 -4 33 4 63 18 61 65 -11 81 3 63 57 -40 123 -43 128 -81 118 -20 -5 -32 -2 -27 7 14 23 -25 45 -51 29 -14 -9 -14 -21 2 -40 31 -38 16 -134 -26 -165 -19 -15 -35 -40 -35 -56 0 -22 -9 -25 -37 -10 -26 14 -44 13 -61 -4 -19 -19 -21 -16 -11 12 10 27 3 39 -27 47 -23 6 -37 21 -32 34 12 33 -117 70 -158 45 -18 -11 -38 -15 -45 -8 -21 21 12 96 42 96 16 0 29 9 29 20 0 11 10 20 21 20 12 0 36 14 53 31 45 45 5 81 -53 49 -40 -21 -42 -20 -23 16 11 21 14 46 6 54 -8 8 6 9 31 1 36 -11 45 -6 45 26 0 59 -26 66 -66 17z m20 -582 l42 -48 -61 -12 c-33 -7 -73 -28 -87 -47 -25 -33 -27 -33 -27 0 -1 19 -19 46 -41 60 -77 48 -42 83 91 92 23 2 61 -19 83 -45z m-614 -102 c14 -17 20 -37 13 -44 -7 -7 -13 -2 -13 11 0 13 -13 23 -30 23 -16 0 -30 -10 -30 -21 0 -12 10 -15 22 -8 18 11 -7 -57 -32 -87 -5 -5 1 96 8 141 3 25 35 17 62 -15z"/> <path d="M3772 4505 c-8 -25 -23 -45 -33 -45 -11 0 -19 -21 -19 -46 0 -26 -18 -66 -40 -89 -41 -45 -55 -97 -20 -75 11 7 20 4 20 -6 0 -11 -20 -26 -45 -34 -32 -10 -37 -17 -15 -23 21 -6 30 -31 27 -83 -2 -41 4 -83 13 -94 9 -11 21 -54 28 -95 12 -77 -12 -100 -44 -43 -13 24 -18 15 -19 -35 0 -37 4 -56 9 -42 5 14 18 25 29 25 11 0 14 -9 7 -20 -7 -11 2 -34 19 -52 32 -32 44 -168 14 -168 -26 0 30 -224 61 -242 14 -9 34 -8 45 3 29 29 51 23 51 -15 0 -25 6 -28 22 -12 13 13 35 18 50 12 17 -6 28 3 28 23 0 25 -11 30 -40 21 -44 -14 -58 36 -17 62 16 10 12 22 -12 40 -20 15 -29 36 -20 50 10 15 7 19 -8 10 -15 -10 -23 5 -23 46 0 33 9 65 20 72 12 7 15 23 7 35 -9 14 -2 17 20 9 21 -8 33 -3 33 17 0 16 -16 29 -35 30 -31 0 -30 3 5 23 52 29 72 60 60 91 -5 14 7 25 26 25 19 0 46 18 59 40 14 22 39 40 55 40 17 0 65 36 108 80 78 81 168 107 189 55 8 -20 10 -20 11 0 1 14 17 25 34 25 27 0 28 5 8 30 -14 17 -17 30 -7 30 48 0 18 101 -33 111 -75 16 -107 80 -50 102 16 6 25 19 19 29 -7 10 -22 13 -33 5 -14 -8 -16 -4 -7 11 8 13 34 19 58 13 24 -6 32 -5 18 1 -14 6 -21 19 -15 27 5 9 -6 15 -25 14 -21 -2 -51 -38 -72 -88 -21 -46 -44 -80 -52 -75 -20 12 -65 -88 -50 -112 7 -10 22 -13 33 -5 13 7 16 4 9 -8 -7 -12 -43 -28 -78 -35 -115 -23 -131 -31 -141 -70 -8 -30 -26 -37 -89 -34 -63 4 -78 -1 -69 -24 6 -17 2 -23 -11 -15 -12 7 -25 -2 -29 -22 -4 -19 -7 34 -7 119 -1 85 4 150 9 145 5 -5 27 7 49 26 22 19 33 24 25 10 -19 -33 -3 -32 69 6 32 16 59 21 59 10 0 -11 14 -14 31 -8 23 9 25 18 7 39 -12 15 -31 23 -40 17 -10 -6 -18 -1 -18 12 0 17 -23 21 -71 13 -69 -12 -71 -10 -62 47 8 47 2 59 -27 59 -20 0 -41 11 -45 25 -5 14 -15 5 -23 -20z m-82 -445 c-7 -11 -3 -20 9 -20 11 0 22 11 22 25 1 14 10 3 21 -24 22 -55 9 -110 -23 -90 -14 8 -13 23 5 45 22 27 21 30 -7 19 -33 -12 -66 29 -42 53 19 19 29 14 15 -8z"/> <path d="M4420 4512 c1 -32 26 -61 57 -68 18 -4 24 6 15 27 -6 18 -12 39 -12 47 0 9 -13 15 -30 15 -16 0 -30 -9 -30 -21z"/> <path d="M2820 4490 c0 -17 23 -40 51 -50 70 -27 82 -25 82 10 0 17 -4 26 -9 21 -5 -5 -35 4 -67 20 -51 27 -57 27 -57 -1z"/> <path d="M1960 4279 c0 -12 10 -15 23 -7 15 9 18 5 9 -9 -35 -57 -36 -130 -1 -95 21 21 48 29 74 21 28 -9 36 -6 25 11 -8 13 -34 19 -57 13 -37 -10 -39 -8 -11 13 27 20 28 29 6 49 -32 31 -68 32 -68 4z"/> <path d="M1844 4123 c-14 -9 -30 -43 -36 -75 -6 -32 -19 -67 -29 -77 -44 -44 -21 -88 42 -80 54 6 148 69 104 69 -55 0 -85 51 -67 115 11 36 18 65 16 65 -2 0 -16 -8 -30 -17z"/> <path d="M3454 4113 c-8 -19 4 -28 38 -28 28 0 46 10 42 23 -11 34 -67 38 -80 5z"/> <path d="M1313 3930 c23 -16 49 -54 57 -85 14 -54 15 -54 32 -10 9 25 33 46 52 47 21 1 26 5 11 11 -14 6 -25 19 -25 30 0 11 10 13 23 5 15 -9 18 -5 7 12 -13 21 -21 19 -41 -8 -16 -22 -30 -27 -38 -13 -8 12 -22 17 -31 11 -9 -6 -23 -2 -30 10 -7 11 -23 20 -36 20 -12 0 -4 -13 19 -30z"/> <path d="M4250 3944 c-153 -25 -198 -91 -55 -81 74 6 96 0 101 -25 7 -38 -122 -67 -174 -39 -21 11 -46 7 -71 -11 -34 -24 -34 -28 -5 -28 44 0 43 -13 -6 -74 -43 -55 -37 -86 15 -86 27 0 26 -5 -6 -28 -56 -41 -30 -54 78 -39 99 13 173 92 173 184 0 72 106 113 181 69 55 -32 81 -86 41 -86 -10 0 -16 -16 -15 -35 2 -22 -13 -37 -41 -41 -24 -4 -49 -24 -56 -44 -7 -21 -30 -44 -51 -50 -21 -7 -39 -20 -39 -30 0 -9 -27 -22 -60 -28 -33 -7 -87 -17 -120 -24 -72 -14 -80 -48 -11 -48 35 0 46 -9 39 -29 -8 -20 0 -25 30 -17 23 6 37 18 31 27 -5 9 17 16 51 15 33 -1 60 -10 60 -20 0 -10 9 -13 20 -6 43 26 16 -23 -52 -97 -42 -45 -83 -72 -100 -65 -16 6 -39 -7 -53 -29 -14 -21 -36 -39 -50 -39 -32 0 -33 -74 -1 -85 15 -5 17 -17 5 -36 -11 -16 -20 -47 -21 -69 -7 -102 -7 -102 -30 -70 -18 25 -20 23 -10 -8 15 -43 -23 -98 -54 -78 -13 8 -16 0 -9 -19 9 -23 2 -32 -26 -29 -22 1 -39 13 -39 26 0 65 -99 42 -112 -25 -11 -58 -19 -66 -55 -57 -36 10 -35 7 7 -18 28 -17 38 -31 24 -31 -15 -1 -21 -10 -15 -20 7 -10 -5 -52 -27 -92 -22 -40 -35 -85 -29 -99 5 -14 0 -32 -12 -39 -37 -23 -23 -47 37 -61 65 -14 85 -45 69 -106 -19 -70 19 -115 61 -73 19 19 29 47 23 63 -6 15 -2 23 8 17 10 -7 23 -3 30 7 6 10 -3 23 -20 30 -33 12 -22 52 13 52 11 0 14 -11 5 -25 -10 -17 -5 -17 19 2 33 27 36 72 7 118 -9 14 -6 25 6 25 32 0 101 66 101 96 0 42 86 106 105 77 11 -16 23 -13 43 12 14 19 42 35 62 35 29 0 31 5 10 30 -14 17 -35 30 -48 30 -53 0 -27 137 30 161 38 15 51 33 44 59 -7 25 4 41 35 50 29 9 36 19 21 29 -26 16 -9 81 21 81 31 0 62 105 35 121 -16 10 -12 26 15 55 65 71 89 104 77 104 -6 0 -2 18 10 40 12 22 41 40 66 41 41 0 41 2 9 27 -52 39 -46 45 97 93 73 24 152 63 175 86 24 24 50 41 58 38 38 -13 8 15 -57 54 -80 46 -208 51 -208 6 0 -21 -8 -22 -45 -2 -37 21 -39 26 -12 32 44 10 66 65 25 65 -17 0 -24 -10 -17 -22 10 -16 3 -16 -24 -2 -20 11 -46 19 -57 17 -11 -2 -23 20 -26 49 -6 53 -98 68 -254 42z m-301 -1348 c-10 -53 -29 -73 -29 -30 0 19 -11 28 -27 22 -15 -5 -39 6 -55 25 -18 22 -19 29 -3 20 14 -9 25 -6 25 7 0 12 9 17 20 10 11 -7 20 -2 20 11 0 18 7 18 29 0 15 -13 25 -42 20 -65z"/> <path d="M2200 3760 c0 -10 -15 -13 -33 -6 -27 10 -31 4 -20 -36 7 -26 13 -55 13 -64 0 -9 7 -12 15 -7 8 5 16 -12 18 -39 1 -26 -5 -43 -15 -37 -10 6 -18 25 -18 41 0 18 -10 24 -23 16 -16 -10 -20 -1 -12 29 6 24 3 48 -6 54 -10 6 -17 -33 -15 -85 1 -61 7 -82 15 -57 8 21 20 29 26 19 16 -26 9 -77 -11 -83 -34 -10 -68 -56 -59 -80 5 -14 -1 -25 -14 -25 -13 0 -18 9 -11 20 7 11 1 20 -14 21 -16 0 -11 13 14 32 35 28 36 31 3 20 -20 -7 -43 -13 -51 -13 -7 0 -16 -33 -19 -72 -2 -40 -6 -78 -7 -85 -9 -46 137 -403 165 -403 24 0 150 -206 143 -235 -4 -19 14 -23 75 -13 87 14 218 -77 161 -112 -16 -10 -14 -18 8 -27 37 -14 44 -93 9 -93 -13 0 -18 -6 -11 -13 8 -7 4 -25 -8 -40 -18 -21 -3 -21 74 3 53 15 100 24 105 20 5 -5 36 28 70 73 58 79 59 83 23 110 -33 24 -34 27 -4 27 47 0 43 33 -6 46 -22 6 -36 4 -32 -3 22 -35 -42 -84 -69 -52 -20 25 -29 26 -43 5 -10 -16 -13 -5 -7 31 8 51 4 56 -39 48 -26 -5 -59 0 -74 10 -20 14 -18 16 7 8 65 -20 112 38 56 68 -45 23 -47 23 -22 -8 24 -28 23 -33 -3 -33 -18 0 -37 9 -44 20 -7 11 -32 21 -56 22 -24 0 -33 6 -19 11 14 6 25 19 25 30 0 11 -9 14 -20 7 -11 -7 -20 2 -20 20 0 18 -9 27 -20 20 -12 -7 -16 -20 -11 -28 5 -8 -4 -15 -20 -15 -17 0 -22 8 -11 21 31 41 19 95 -15 67 -24 -20 -28 -20 -16 0 9 14 5 25 -8 25 -18 0 -18 7 1 30 18 22 34 24 62 9 29 -16 38 -14 38 10 0 19 12 26 35 18 27 -8 29 -6 7 9 -15 11 -21 29 -14 40 7 12 2 28 -11 36 -14 8 -18 6 -10 -8 8 -11 5 -27 -6 -33 -11 -7 -15 7 -10 33 10 51 -77 196 -116 195 -16 0 -14 -9 7 -25 50 -39 77 -103 57 -135 -15 -24 -18 -22 -19 7 0 20 -8 31 -18 25 -10 -6 -13 8 -7 31 8 33 3 40 -27 35 -25 -5 -38 -25 -38 -57 0 -28 -8 -63 -18 -78 -12 -18 -11 -24 2 -16 11 7 30 -9 43 -37 13 -30 15 -49 3 -49 -11 0 -21 16 -22 35 -1 22 -5 26 -12 9 -7 -20 -16 -20 -38 -3 -15 13 -23 32 -17 41 6 10 0 18 -13 18 -14 0 -19 5 -12 12 6 7 -6 45 -27 84 -26 49 -31 76 -17 85 15 9 12 23 -7 41 -21 19 -25 43 -14 83 9 30 10 55 3 55 -20 1 42 39 63 40 10 0 12 -13 6 -29 -7 -19 -1 -25 18 -18 21 8 26 2 17 -21 -7 -17 -23 -32 -35 -33 -13 0 -7 -12 12 -27 19 -14 29 -32 21 -39 -7 -7 -2 -13 12 -13 14 0 18 -11 10 -25 -8 -14 4 -8 27 12 26 23 53 31 69 21 17 -11 16 0 -6 32 -39 60 -82 77 -67 27 11 -35 11 -35 -11 -2 -12 19 -17 43 -11 53 6 10 -3 29 -19 42 -17 14 -30 35 -30 47 0 12 19 -3 43 -32 l44 -54 46 51 c26 27 47 59 47 70 0 11 11 14 25 5 16 -9 15 -2 -3 20 -28 34 -73 8 -51 -29 5 -8 -5 -19 -23 -26 -59 -23 -74 -12 -39 27 23 25 30 53 21 81 -9 30 -2 52 23 73 35 28 35 30 1 19 -21 -7 -40 0 -46 17 -13 33 -68 58 -68 31z"/> <path d="M2437 3725 c31 -58 82 -82 142 -66 71 18 74 56 4 46 -35 -5 -80 5 -114 27 -55 36 -55 36 -32 -7z"/> <path d="M1508 3725 c8 -14 4 -25 -8 -25 -13 0 -19 -11 -14 -25 5 -14 19 -23 31 -20 12 2 16 -9 9 -27 -9 -24 -2 -30 26 -24 21 4 50 -6 64 -23 22 -26 23 -25 6 11 -14 29 -13 49 3 65 17 17 17 23 -1 23 -13 0 -24 -9 -24 -20 0 -11 -10 -20 -21 -20 -12 0 -17 7 -13 15 5 8 -9 33 -32 55 -22 22 -34 29 -26 15z"/> <path d="M3460 3601 c0 -11 -26 -27 -57 -35 -47 -13 -55 -23 -42 -56 14 -34 16 -35 18 -5 1 37 31 47 50 17 6 -11 -2 -32 -19 -49 -22 -22 -23 -32 -5 -38 20 -7 20 -23 0 -77 l-24 -68 38 50 c21 27 46 42 55 32 9 -10 5 -21 -9 -26 -14 -5 -25 -33 -24 -63 0 -50 2 -51 29 -15 16 21 24 46 18 55 -6 9 6 18 26 19 21 0 26 5 11 11 -30 12 -34 87 -5 87 37 0 21 44 -20 54 -49 13 -33 46 22 46 26 0 35 -9 26 -23 -9 -15 -5 -18 9 -9 33 21 9 52 -40 52 -29 0 -38 9 -30 30 7 17 3 30 -8 30 -10 0 -19 -9 -19 -19z"/> <path d="M4980 3481 c0 -10 -42 -25 -94 -33 -84 -12 -89 -16 -47 -32 30 -11 55 -10 68 3 12 12 37 21 57 21 20 0 36 14 36 30 0 17 -4 30 -10 30 -5 0 -10 -8 -10 -19z"/> <path d="M2714 3457 c-20 -11 -50 -15 -67 -9 -19 8 -34 -1 -40 -25 -8 -27 -23 -34 -62 -27 -32 6 -46 2 -38 -11 15 -24 -41 -51 -69 -34 -10 7 -13 22 -5 34 9 14 2 17 -20 9 -18 -7 -33 -4 -33 7 0 10 -8 19 -17 19 -10 0 -13 -25 -7 -55 6 -30 14 -44 19 -31 13 41 65 4 65 -46 0 -57 4 -57 84 -16 59 30 94 18 96 -34 1 -36 -147 -54 -197 -25 -48 28 -47 26 7 -21 60 -52 103 -69 80 -32 -7 11 -3 20 9 20 11 0 21 -10 21 -22 0 -12 27 4 60 35 58 55 85 125 37 95 -15 -9 -18 -5 -7 12 13 20 22 18 43 -11 26 -35 27 -34 27 7 0 24 9 44 19 44 11 0 15 -12 10 -27 -6 -14 1 -26 15 -26 16 0 28 28 30 69 3 53 -2 64 -19 47 -33 -33 -76 -28 -62 7 6 16 19 25 28 20 9 -6 22 -1 30 11 19 32 4 39 -37 16z"/> <path d="M2814 3320 c12 -45 50 -62 88 -39 22 14 23 22 3 42 -19 19 -25 19 -25 1 0 -13 -10 -24 -21 -24 -12 0 -16 8 -10 18 6 10 -2 23 -17 28 -19 8 -24 0 -18 -26z"/> <path d="M4710 3331 c-33 -15 -46 -28 -30 -29 49 -2 120 21 120 40 0 24 -18 22 -90 -11z"/> <path d="M4900 3340 c-27 -17 -27 -20 0 -22 17 -2 3 -10 -30 -18 l-60 -15 64 -3 c35 -1 69 7 76 18 7 11 2 20 -10 20 -12 0 -17 9 -10 20 15 25 8 25 -30 0z"/> <path d="M2949 3318 c-7 -12 -3 -32 9 -44 25 -25 29 -55 7 -52 -55 9 -70 -4 -36 -29 38 -27 31 -147 -7 -124 -10 6 -22 -7 -28 -29 -11 -43 16 -56 33 -15 5 14 11 9 11 -12 2 -29 13 -35 52 -28 28 5 50 1 50 -9 0 -10 10 -12 22 -5 12 7 17 30 12 51 -6 21 0 35 13 32 28 -5 19 84 -12 122 -12 14 -33 21 -48 16 -15 -6 -27 -2 -27 9 0 10 19 19 41 19 80 0 122 36 94 81 -14 21 -38 38 -55 37 -23 -1 -24 -4 -3 -12 22 -9 22 -14 2 -27 -15 -9 -37 -3 -54 13 -33 34 -58 36 -76 6z"/> <path d="M4963 3217 c-81 -23 -77 -28 27 -44 44 -6 67 -6 52 0 -21 9 -16 19 20 39 60 33 8 36 -99 5z"/> <path d="M3420 3200 c0 -11 -16 -21 -35 -21 -30 -2 -29 -4 5 -17 39 -16 39 -17 -5 -30 -33 -11 -45 -30 -45 -75 0 -42 7 -55 25 -44 19 11 20 8 3 -14 -32 -42 -28 -103 7 -90 16 6 35 11 43 11 8 0 14 32 13 70 -1 39 3 70 9 70 7 0 10 26 8 59 -3 40 4 55 22 48 13 -5 30 5 37 22 9 23 -1 31 -38 31 -27 0 -49 -9 -49 -20z"/> <path d="M3820 3190 c-14 -17 -19 -37 -12 -45 8 -8 23 -1 33 16 14 23 18 19 19 -18 0 -30 -14 -50 -40 -57 -22 -6 -40 -19 -40 -28 0 -25 28 -22 56 6 19 19 24 19 24 0 0 -19 8 -19 39 0 21 13 38 29 37 35 -6 62 6 89 26 61 18 -25 20 -24 10 7 -7 20 -12 40 -12 45 0 23 -118 4 -140 -22z"/> <path d="M4013 3167 c-20 -21 -16 -71 5 -58 10 6 24 0 31 -14 6 -14 8 -5 3 19 -4 24 3 48 15 53 13 6 9 11 -9 11 -17 1 -37 -4 -45 -11z"/> <path d="M4843 3162 c-19 -12 -14 -21 20 -31 46 -15 45 -16 -13 -31 l-60 -15 63 -3 c35 -1 69 -13 75 -27 6 -14 7 -7 2 16 -8 30 0 41 32 44 29 2 38 -6 30 -27 -7 -17 -3 -25 8 -18 34 21 22 67 -22 80 -22 8 -46 8 -53 2 -6 -6 -21 -3 -34 7 -12 10 -34 11 -48 3z"/> <path d="M3714 3060 c-34 -41 -47 -91 -18 -73 8 6 17 -5 18 -23 10 -110 18 -144 31 -144 8 0 15 7 15 15 0 9 20 28 45 43 41 26 43 26 18 -5 -17 -19 -19 -33 -7 -33 12 0 28 10 36 23 10 16 21 13 39 -11 23 -31 25 -31 38 2 7 19 7 29 0 22 -20 -20 -87 47 -75 77 6 15 0 27 -13 27 -13 0 -17 11 -9 25 11 20 8 20 -13 0 -47 -43 -73 -29 -63 35 10 71 4 73 -42 20z"/> <path d="M974 3038 c-16 -58 -12 -61 73 -64 39 -1 67 -8 62 -16 -5 -7 10 -18 32 -24 32 -8 36 -5 20 14 -11 14 -14 32 -6 41 8 8 6 13 -5 10 -48 -9 -68 3 -58 36 11 33 10 33 -18 0 -28 -34 -86 -51 -66 -19 5 9 2 27 -7 42 -11 18 -19 12 -27 -20z"/> <path d="M1830 3060 c-7 -12 -23 -15 -34 -7 -13 8 -16 4 -8 -10 8 -13 3 -24 -12 -25 -14 -1 1 -9 33 -19 68 -20 86 -11 54 27 -12 15 -17 34 -9 41 7 7 7 13 1 13 -7 0 -18 -9 -25 -20z"/> <path d="M4681 3061 c-22 -14 -15 -21 30 -31 32 -7 73 -20 91 -29 22 -12 31 -8 31 11 0 19 -23 28 -68 28 -40 0 -62 8 -55 20 15 25 9 25 -29 1z"/> <path d="M3089 2979 c-7 -12 -6 -28 2 -35 8 -8 18 -4 23 9 4 12 27 18 50 12 29 -8 38 -4 28 12 -18 29 -85 30 -103 2z"/> <path d="M2843 2933 c-13 -15 -17 -33 -9 -40 7 -7 -8 -13 -33 -13 -45 0 -45 -1 -11 -53 31 -47 31 -52 2 -41 -17 7 -32 4 -32 -7 0 -10 15 -19 32 -19 28 0 29 -5 7 -32 -22 -26 -22 -34 1 -48 38 -23 60 -6 60 46 0 24 23 83 50 131 58 101 62 118 20 83 -16 -14 -30 -37 -30 -52 0 -16 -9 -28 -20 -28 -12 0 -17 23 -12 50 11 57 6 61 -25 23z"/> <path d="M960 2921 c26 -18 26 -20 -2 -21 -24 0 -31 -19 -29 -80 1 -44 -6 -80 -17 -80 -31 0 0 -21 44 -29 32 -6 39 0 30 25 -10 28 -7 29 15 9 15 -14 36 -25 48 -25 12 0 8 9 -9 20 -27 17 -27 19 0 20 27 1 27 3 0 20 -21 13 -22 19 -5 20 20 0 18 11 -5 47 -16 25 -24 52 -17 60 27 26 43 12 33 -27 -6 -24 -1 -40 14 -40 15 0 19 13 11 34 -11 29 -6 28 33 -5 45 -39 45 -39 16 1 -16 22 -31 43 -34 48 -2 4 -39 11 -80 15 -56 6 -68 2 -46 -12z"/> <path d="M4870 2926 c-95 -24 -96 -108 -1 -105 11 0 4 13 -17 29 -36 28 -36 30 15 49 29 11 53 25 53 31 0 5 -2 9 -5 8 -3 -2 -23 -7 -45 -12z"/> <path d="M3120 2765 c0 -48 -7 -61 -30 -52 -16 6 -30 1 -30 -12 0 -13 8 -18 18 -12 10 6 22 1 26 -12 5 -13 20 5 35 41 20 48 21 70 4 87 -17 17 -23 7 -23 -40z"/> <path d="M3358 2765 c-10 -26 -18 -55 -18 -65 0 -9 -18 -23 -40 -30 -22 -7 -40 -21 -40 -31 0 -11 -7 -18 -15 -17 -38 6 -65 -4 -65 -24 0 -12 13 -17 29 -11 18 7 34 -4 41 -28 7 -21 20 -39 30 -39 9 0 31 -5 48 -12 21 -8 32 -1 32 19 0 16 18 36 40 43 57 18 52 69 -5 55 -42 -11 -43 -9 -13 27 48 56 64 161 25 161 -17 0 -39 -21 -49 -48z"/> <path d="M4781 2751 c-14 -17 -54 -29 -94 -27 -37 1 -79 -8 -92 -21 -17 -17 -11 -23 29 -23 93 0 173 24 185 55 17 43 1 52 -28 16z"/> <path d="M5021 2728 c27 -32 159 -39 159 -8 0 11 -25 21 -55 22 -30 0 -71 4 -91 8 -29 5 -32 1 -13 -22z"/> <path d="M880 2659 c0 -41 24 -46 89 -21 34 14 31 18 -25 38 -58 20 -64 18 -64 -17z"/> <path d="M4253 2611 c-7 -19 -13 -49 -13 -68 0 -18 -18 -67 -40 -108 -22 -41 -40 -86 -40 -100 0 -14 -24 -61 -53 -103 -51 -76 -51 -80 -25 -190 31 -124 28 -226 -7 -290 -34 -62 -38 -113 -15 -180 14 -41 14 -63 -1 -72 -11 -8 -25 -93 -30 -190 -12 -254 -64 -406 -173 -515 -87 -87 -147 -115 -220 -101 -28 5 -57 0 -65 -12 -9 -15 19 -22 87 -22 55 0 105 -9 112 -20 7 -11 -10 -20 -40 -20 -29 0 -47 -9 -41 -19 7 -11 26 -14 42 -8 16 6 54 4 84 -4 l55 -16 -70 -13 -70 -13 60 -26 60 -26 -54 -23 c-48 -21 -51 -26 -20 -45 29 -18 21 -27 -56 -65 -69 -34 -77 -42 -35 -36 30 5 55 1 55 -9 0 -9 -7 -17 -15 -17 -43 0 -19 -152 27 -174 32 -15 44 -15 35 -1 -8 13 -4 15 11 6 14 -8 20 -26 15 -40 -14 -37 59 -91 123 -91 77 0 116 54 114 157 -1 47 5 90 13 95 9 5 8 30 -2 55 -29 76 6 110 73 72 48 -27 56 -44 54 -115 -1 -46 5 -84 13 -84 7 0 29 -41 48 -90 34 -90 35 -90 131 -90 54 0 104 10 111 22 9 15 0 18 -27 9 -22 -7 -47 -3 -54 9 -7 11 -23 15 -34 7 -13 -7 -16 -4 -9 8 7 12 5 25 -4 28 -10 4 -23 41 -31 82 -18 99 25 101 90 5 27 -38 58 -70 71 -70 35 0 46 78 15 109 -39 40 -35 71 10 71 33 0 30 9 -23 62 -50 50 -56 65 -33 79 21 14 17 18 -19 19 -28 0 -43 10 -37 25 5 14 20 22 34 19 58 -14 93 17 53 46 -35 26 -34 28 7 50 48 26 40 44 -21 54 -23 3 -40 -6 -41 -24 -5 -57 -8 -67 -23 -82 -8 -8 -15 -4 -15 9 0 13 -10 23 -22 23 -27 0 -6 -137 28 -177 17 -21 15 -33 -9 -50 -29 -22 -36 -34 -38 -68 0 -8 -27 16 -59 53 -32 38 -54 76 -48 85 6 9 0 17 -12 17 -40 0 -12 89 35 110 25 11 45 26 45 35 0 31 -93 13 -169 -33 -43 -26 -89 -44 -102 -39 -12 5 -34 -5 -48 -22 -18 -21 -19 -31 -3 -31 34 0 26 -94 -10 -108 -17 -7 -40 -7 -50 -1 -10 6 -18 -3 -18 -20 0 -37 23 -40 56 -7 19 19 24 14 24 -22 0 -30 -9 -43 -26 -36 -15 5 -38 -7 -51 -28 -27 -44 -94 -50 -109 -10 -14 35 2 52 49 52 26 0 37 15 37 50 0 28 -8 50 -18 50 -45 0 -17 176 32 198 37 17 44 32 34 72 -7 30 -4 50 9 50 12 0 16 -14 10 -30 -10 -25 -3 -27 39 -12 27 11 55 14 62 7 7 -6 12 7 12 30 0 23 11 46 25 51 14 5 -6 18 -45 30 -38 11 -60 21 -47 22 12 1 28 25 35 52 7 28 26 50 42 50 17 0 30 9 30 20 0 11 23 20 51 20 28 0 46 -9 39 -20 -6 -10 -2 -38 11 -61 27 -52 14 -69 -34 -43 -26 14 -44 12 -61 -6 -30 -32 7 -51 120 -62 53 -5 72 0 62 16 -10 15 -4 19 17 11 20 -8 56 11 96 49 l65 62 -68 -13 c-37 -7 -93 -18 -123 -25 -52 -12 -55 -9 -53 55 2 37 7 51 12 32 5 -19 17 -35 26 -35 9 0 9 29 -2 65 -37 124 -15 297 40 318 26 10 44 22 39 27 -20 19 -109 24 -140 8 -38 -20 5 89 45 113 10 6 13 20 7 30 -6 11 0 19 15 20 16 0 13 8 -9 21 -33 19 -33 23 -1 71 26 40 28 54 7 67 -19 11 -14 19 19 30 34 11 39 18 19 31 -15 9 -34 12 -43 7 -9 -6 -16 4 -16 21 0 17 7 30 15 29 42 -7 49 5 16 29 -44 32 -25 76 25 60 29 -9 29 -6 -3 20 -49 40 -59 146 -15 163 28 11 28 16 -7 41 -21 16 -28 29 -15 29 13 0 24 14 24 30 0 17 -11 30 -25 30 -14 0 -26 23 -28 50 -1 28 4 50 12 50 9 0 13 23 10 51 -5 42 1 49 33 38 21 -6 38 -2 38 10 0 11 -19 21 -42 21 -30 0 -39 9 -30 32 7 17 12 40 12 50 0 10 16 18 35 18 19 0 49 10 65 22 23 16 16 19 -33 13 -58 -7 -62 -4 -46 37 11 28 8 56 -9 79 -24 33 -26 33 -39 0z m-273 -2479 c0 -45 -22 -92 -43 -92 -11 0 -14 8 -8 18 6 10 -3 23 -19 29 -17 7 -30 22 -30 34 0 12 8 16 19 10 10 -6 24 -3 31 9 18 30 50 24 50 -8z"/> <path d="M4842 2602 c-1 -15 -18 -39 -37 -53 -19 -14 -28 -33 -19 -42 9 -9 22 -7 30 4 8 11 37 30 64 43 34 16 39 24 17 25 -19 0 -38 12 -44 26 -7 18 -10 18 -11 -3z"/> <path d="M890 2560 c-20 -22 -26 -40 -14 -40 13 0 18 -12 13 -27 -6 -15 2 -26 19 -26 22 0 25 9 11 35 -23 44 -24 64 -2 50 9 -6 16 3 16 19 0 37 0 37 -43 -11z"/> <path d="M2878 2586 c-2 -9 -1 -33 1 -54 3 -21 -6 -44 -18 -52 -13 -7 6 -14 43 -15 36 0 54 4 39 10 -23 8 -23 13 0 27 20 13 17 18 -13 18 -25 0 -31 6 -17 15 16 11 15 22 -5 41 -15 14 -29 18 -30 10z"/> <path d="M2185 2545 c32 -18 12 -43 -53 -64 -38 -13 -81 -38 -95 -57 -24 -30 -23 -31 6 -8 43 33 260 25 272 -11 6 -16 -4 -21 -28 -13 -22 7 -28 5 -15 -5 13 -9 22 -44 20 -77 l-2 -60 -130 3 c-122 3 -125 2 -50 -16 44 -11 104 -16 134 -12 62 9 72 -7 65 -103 -6 -70 -34 -101 -95 -102 -20 0 -31 -9 -24 -20 7 -12 19 -17 27 -12 8 5 28 1 44 -9 24 -15 23 -18 -6 -19 -50 0 -43 -34 10 -53 43 -14 42 -15 -15 -27 l-60 -12 95 -68 c52 -37 95 -73 94 -79 -2 -28 -143 -98 -174 -87 -29 10 -31 7 -10 -16 21 -22 34 -22 65 -2 53 32 60 31 60 -14 0 -21 14 -43 31 -50 18 -6 25 -22 17 -35 -9 -15 -5 -18 10 -8 50 31 66 114 27 145 -19 16 -25 24 -12 18 31 -16 55 51 25 69 -13 8 -17 25 -9 37 7 12 21 18 31 12 9 -5 11 10 4 35 -11 39 -13 40 -20 8 -15 -73 -64 66 -71 206 -6 106 -2 134 20 134 16 0 24 -11 19 -25 -5 -14 3 -36 19 -49 21 -17 29 -17 29 -1 0 12 -11 22 -25 23 -14 0 -7 14 15 31 22 17 36 41 32 54 -4 13 -13 56 -20 94 -10 53 -24 72 -59 77 -31 4 -42 16 -35 36 6 16 4 24 -6 18 -10 -6 -28 16 -39 49 -12 33 -34 60 -50 60 -16 0 -42 3 -56 7 -15 3 -20 3 -12 -2z"/> <path d="M3215 2446 c-26 -7 -32 -22 -23 -57 10 -39 1 -55 -47 -82 -32 -19 -69 -60 -81 -92 -12 -31 -33 -55 -48 -53 -72 13 -211 -124 -162 -160 24 -18 29 -62 6 -62 -31 0 -104 -80 -75 -81 14 -1 8 -8 -13 -17 -40 -16 -64 -142 -26 -142 11 0 15 -6 8 -13 -7 -7 -25 -3 -39 9 -20 17 -26 13 -26 -13 0 -28 15 -34 73 -31 63 3 72 -2 63 -35 -7 -28 -2 -35 21 -26 17 7 27 24 21 39 -5 14 -2 31 7 36 19 12 17 200 -3 232 -7 12 0 22 17 22 42 0 62 41 30 62 -18 10 0 14 48 10 76 -7 129 -32 67 -32 -18 0 -33 -13 -33 -30 0 -16 13 -30 29 -30 16 0 37 -14 46 -31 14 -24 29 -26 66 -11 43 17 44 20 9 22 -22 2 -29 8 -16 13 16 6 20 32 12 72 -9 43 -6 57 11 47 15 -9 23 1 23 29 0 36 -5 40 -29 20 -23 -19 -39 -18 -74 7 -43 30 -47 29 -71 -13 -19 -34 -25 -37 -25 -12 -1 19 -12 38 -26 44 -14 5 -7 11 15 12 41 2 114 48 111 69 -4 36 2 39 21 12 15 -22 24 -23 31 -6 23 56 92 126 125 126 19 0 35 13 35 29 0 16 -6 25 -15 20 -8 -5 -31 6 -50 26 -34 33 -33 35 18 41 30 4 54 15 54 25 0 20 -24 21 -85 5z"/> <path d="M4391 2442 c-6 -10 -30 -13 -54 -7 -30 8 -39 4 -29 -12 8 -13 36 -23 63 -23 27 0 49 -11 49 -25 1 -18 5 -18 18 2 13 21 19 22 25 3 6 -16 25 -20 53 -11 56 18 38 51 -28 51 -29 0 -45 9 -38 20 7 11 -1 20 -18 20 -16 0 -35 -8 -41 -18z"/> <path d="M4800 2437 c0 -9 -14 -17 -31 -17 -17 0 -25 -10 -18 -22 8 -12 36 -16 66 -8 78 19 93 43 34 55 -28 5 -51 2 -51 -8z"/> <path d="M840 2340 c0 -11 -19 -20 -41 -20 -34 0 -39 -8 -28 -45 19 -61 24 -64 55 -38 15 12 36 16 45 8 10 -8 7 0 -7 17 -14 18 -19 48 -12 65 7 18 7 33 0 33 -7 0 -12 -9 -12 -20z"/> <path d="M4480 2318 c0 -13 -18 -18 -40 -12 -22 6 -45 2 -51 -8 -6 -10 -29 -18 -50 -18 -22 0 -39 -8 -39 -17 0 -22 135 2 195 34 52 28 57 43 15 43 -16 0 -30 -10 -30 -22z"/> <path d="M4867 2221 c-6 -6 -16 -12 -24 -13 -7 -1 -35 -12 -63 -25 -49 -23 -49 -24 10 -11 33 7 98 12 146 11 73 -1 81 3 57 27 -27 27 -103 33 -126 11z"/> <path d="M3440 2180 c0 -22 -8 -40 -17 -40 -34 0 -107 -79 -97 -104 8 -20 11 -20 12 -1 1 14 17 25 36 25 26 0 29 -5 10 -24 -35 -35 -29 -65 7 -35 27 22 29 17 20 -38 -7 -38 -3 -63 9 -63 12 0 2 -20 -22 -45 -30 -31 -46 -37 -52 -20 -5 14 -20 20 -33 14 -13 -7 -7 1 12 17 34 28 34 30 -5 40 -22 5 -40 3 -40 -7 0 -9 -18 -13 -40 -9 -43 8 -54 -19 -17 -42 15 -9 13 -19 -9 -31 -66 -37 -17 -92 68 -77 51 10 108 5 158 -12 43 -15 91 -22 107 -17 17 7 32 -5 39 -32 9 -36 21 -42 63 -31 31 8 51 4 51 -9 0 -12 8 -16 18 -10 20 12 40 -47 27 -84 -5 -14 -26 -25 -47 -25 -21 0 -38 -10 -38 -21 0 -12 -8 -16 -18 -10 -23 14 -202 -65 -202 -90 0 -10 10 -19 21 -19 12 0 16 -8 10 -19 -7 -10 6 -17 27 -16 22 2 39 8 38 14 -6 68 27 74 87 16 21 -19 54 -35 75 -35 29 0 37 -12 33 -52 -4 -30 6 -56 23 -62 15 -6 23 -24 17 -40 -6 -15 -2 -23 9 -16 11 7 20 2 20 -10 0 -12 9 -17 21 -10 11 7 20 46 18 87 -1 40 2 115 6 167 6 66 0 98 -19 105 -14 5 -26 24 -26 40 0 17 -10 31 -22 31 -16 0 -16 9 1 29 29 35 8 78 -30 63 -17 -6 -23 0 -16 19 6 16 20 29 30 29 11 0 14 9 7 20 -7 12 -21 15 -31 9 -11 -6 -19 -1 -19 12 0 17 -9 16 -32 -3 -27 -22 -36 -22 -55 5 -22 29 -36 37 -65 37 -7 0 -2 13 11 28 18 22 15 34 -13 55 -20 15 -38 54 -40 87 -3 33 0 49 6 35 22 -48 47 -25 28 26 -11 28 -19 57 -17 65 7 48 -7 84 -33 84 -16 0 -30 9 -30 20 0 11 -9 20 -20 20 -11 0 -20 -18 -20 -40z m372 -742 c8 -15 -1 -18 -29 -9 -31 10 -43 5 -43 -16 0 -16 -15 -34 -33 -41 -46 -18 -64 7 -21 31 19 11 31 26 26 34 -5 8 12 16 38 18 27 3 54 -5 62 -17z"/> <path d="M1975 2157 c8 -30 2 -35 -28 -24 -30 10 -32 8 -13 -13 13 -14 52 -25 85 -24 34 1 61 -7 61 -17 0 -9 43 -17 95 -16 75 2 85 6 50 19 -25 9 -59 12 -75 5 -17 -6 -30 -1 -30 11 0 12 -27 22 -60 22 -59 0 -83 29 -36 45 14 4 6 13 -17 19 -34 9 -40 3 -32 -27z"/> <path d="M2565 2170 c-28 -31 -34 -57 -10 -44 8 5 33 2 55 -6 44 -16 150 13 150 41 0 10 -15 12 -33 5 -23 -9 -29 -5 -19 11 20 32 -13 29 -59 -6 -50 -38 -71 -39 -56 -1 14 37 5 37 -28 0z"/> <path d="M990 2160 c-12 -20 1 -25 60 -25 65 0 78 9 40 25 -55 24 -85 24 -100 0z"/> <path d="M3740 2160 c0 -12 -9 -17 -20 -10 -11 7 -15 0 -9 -15 15 -39 86 -39 80 0 -5 38 -51 60 -51 25z"/> <path d="M4590 2140 c-72 -13 -62 -22 30 -28 17 -1 39 -8 50 -15 11 -7 57 -11 102 -10 59 2 80 -4 73 -22 -5 -14 4 -25 19 -25 17 0 29 18 28 43 -1 24 12 48 28 53 25 9 26 5 4 -21 -20 -24 -20 -35 -2 -46 15 -9 19 -7 11 6 -7 12 -2 26 12 31 79 29 -24 54 -125 30 -84 -19 -109 -19 -115 0 -5 13 -14 23 -22 21 -7 -1 -49 -9 -93 -17z"/> <path d="M2580 2071 c0 -16 10 -35 22 -42 16 -10 14 -19 -5 -31 -20 -13 -14 -17 19 -18 26 0 41 9 34 20 -7 11 1 14 19 8 17 -7 31 -2 31 9 0 12 -22 28 -50 35 -27 7 -45 20 -39 30 6 10 2 18 -10 18 -11 0 -21 -13 -21 -29z"/> <path d="M978 2062 c15 -10 21 -27 14 -38 -7 -11 -3 -24 9 -28 28 -9 -38 -84 -91 -104 -39 -14 -39 -16 -2 -43 36 -26 35 -28 -15 -51 -29 -14 -53 -33 -53 -43 0 -10 -18 -12 -40 -5 -24 8 -40 4 -40 -10 0 -12 9 -17 20 -10 11 7 20 2 20 -11 0 -15 20 -20 55 -13 48 9 50 7 19 -16 -20 -14 -53 -21 -75 -16 -41 11 -57 -41 -19 -64 11 -7 20 -32 20 -56 -1 -36 -4 -39 -21 -14 -15 22 -19 5 -16 -64 4 -72 -4 -103 -34 -130 -42 -39 -52 -130 -57 -502 -1 -110 -11 -191 -24 -200 -26 -17 -29 -84 -3 -84 9 0 11 -10 4 -21 -18 -30 -25 -399 -7 -399 7 0 7 -31 -2 -70 -15 -68 -14 -70 42 -70 l58 0 0 345 c0 373 15 907 27 955 14 60 37 100 52 90 9 -5 32 9 51 30 20 22 28 40 17 40 -10 0 -20 19 -22 43 -2 24 -13 50 -26 57 -15 10 -11 19 11 27 47 18 50 17 50 -22 1 -26 5 -29 17 -9 9 15 13 47 8 72 -6 33 2 49 29 56 27 7 39 31 42 85 4 47 -2 70 -15 62 -13 -8 -15 0 -7 22 8 21 16 26 21 11 11 -33 38 -30 85 10 54 47 55 95 1 67 -32 -18 -38 -15 -36 16 2 21 16 35 34 33 17 -2 20 0 6 4 -14 5 -26 29 -26 52 -2 41 -3 41 -17 5 -13 -34 -16 -35 -28 -5 -7 19 -24 34 -38 34 -20 -1 -19 -5 2 -18z"/> <path d="M5005 2046 c-36 -5 -61 -17 -54 -27 18 -30 101 -22 129 11 14 17 17 29 7 27 -9 -2 -46 -7 -82 -11z"/> <path d="M2522 2002 c-16 -11 -23 -35 -17 -60 7 -25 0 -48 -18 -58 -17 -10 -23 -30 -16 -50 15 -39 41 -44 61 -11 8 14 5 18 -8 10 -11 -8 -26 -5 -33 5 -13 21 44 47 70 32 9 -6 13 9 8 34 -5 25 -18 49 -30 53 -14 5 -13 16 3 35 26 32 20 35 -20 10z"/> <path d="M1970 1964 c30 -32 130 -53 130 -26 0 12 -17 22 -38 22 -21 0 -55 6 -75 13 -26 9 -31 6 -17 -9z"/> <path d="M3909 1959 c-7 -12 -28 -17 -46 -10 -24 8 -23 3 6 -19 45 -35 83 -39 101 -10 7 11 2 20 -10 20 -12 0 -17 9 -10 20 7 11 3 20 -8 20 -11 0 -26 -10 -33 -21z"/> <path d="M4570 1940 c35 -39 35 -40 -7 -40 -24 0 -43 -9 -43 -19 0 -11 25 -10 63 3 55 19 59 25 30 46 -18 13 -27 30 -19 37 7 7 -4 13 -24 13 -35 0 -35 -1 0 -40z"/> <path d="M4974 1951 c-47 -46 -44 -51 31 -51 36 0 55 7 43 15 -12 8 -26 27 -31 43 -7 22 -15 21 -43 -7z"/> <path d="M1940 1880 c0 -11 42 -20 93 -20 111 0 108 10 -8 27 -53 9 -85 6 -85 -7z"/> <path d="M762 1827 c-2 -50 43 -74 76 -41 35 35 26 60 -17 48 -22 -5 -43 1 -48 13 -6 13 -11 4 -11 -20z"/> <path d="M3760 1830 c0 -20 15 -27 45 -21 25 4 59 9 75 11 21 2 18 8 -10 20 -63 27 -110 23 -110 -10z"/> <path d="M5027 1790 c13 -28 35 -46 50 -40 14 5 36 10 48 10 13 0 5 13 -16 28 -21 16 -45 24 -54 19 -8 -5 -15 0 -15 12 0 11 -8 21 -18 21 -10 0 -8 -23 5 -50z"/> <path d="M4534 1780 c11 -40 86 -58 86 -20 0 11 -13 20 -30 20 -16 0 -30 9 -30 20 0 11 -8 20 -18 20 -10 0 -14 -18 -8 -40z"/> <path d="M4894 1728 c6 -18 -4 -28 -27 -28 -30 -1 -32 -4 -8 -19 16 -10 39 -11 50 -2 12 9 38 20 58 24 29 5 24 12 -23 30 -50 18 -59 17 -50 -5z"/> <path d="M2002 1715 c22 -8 74 -13 116 -12 42 2 86 -3 99 -11 13 -8 23 -5 23 5 0 11 25 23 55 27 30 4 -32 7 -139 6 -107 0 -176 -7 -154 -15z"/> <path d="M1161 1678 c0 -18 -21 -42 -46 -54 -43 -22 -43 -22 10 -15 32 5 51 0 44 -10 -6 -11 -2 -19 10 -19 25 0 25 34 1 90 -13 30 -18 32 -19 8z"/> <path d="M1938 1662 c-2 -6 -1 -27 1 -45 2 -26 -8 -31 -43 -23 -32 8 -40 5 -26 -9 25 -27 190 -46 190 -22 0 9 -22 17 -50 17 -32 0 -50 11 -50 31 0 22 10 26 35 14 19 -10 67 -11 105 -4 39 8 61 16 50 18 -117 25 -210 35 -212 23z"/> <path d="M4980 1658 c0 -11 -8 -15 -19 -9 -10 6 -24 3 -31 -9 -7 -11 -37 -20 -66 -20 l-54 -1 50 -39 c28 -22 68 -38 90 -37 40 2 40 2 0 11 -60 15 -85 46 -37 46 22 0 47 7 55 15 16 15 26 18 85 23 43 3 25 21 -30 31 -24 5 -43 0 -43 -11z"/> <path d="M4615 1568 c64 -50 84 -88 46 -88 -10 0 -32 14 -48 30 -17 17 -42 30 -57 29 -17 0 -13 -10 11 -28 36 -28 28 -83 -8 -60 -11 6 -19 2 -19 -10 0 -27 34 -27 50 -1 18 30 82 24 110 -10 14 -16 40 -29 57 -29 25 1 23 6 -7 17 -22 9 -40 24 -41 34 -3 47 -33 105 -61 116 -17 6 -26 19 -21 28 6 9 -9 17 -33 19 -38 3 -35 -3 21 -47z"/> <path d="M5070 1600 c37 -16 36 -17 -10 -21 -40 -3 -37 -7 20 -18 39 -7 73 -11 77 -8 18 12 -58 67 -91 66 -32 -2 -32 -4 4 -19z"/> <path d="M2950 1580 c7 -11 -5 -20 -27 -20 -22 0 -43 -11 -48 -25 -6 -19 -19 -19 -62 0 -44 20 -53 19 -53 -5 0 -17 12 -24 30 -17 26 10 27 3 11 -41 -15 -38 -14 -52 4 -52 18 -1 18 -5 3 -15 -12 -8 -33 -49 -47 -91 -17 -52 -34 -73 -53 -66 -15 6 -28 1 -28 -10 0 -13 23 -16 60 -8 39 9 60 5 60 -10 0 -12 -9 -17 -21 -9 -23 14 29 -123 61 -161 11 -13 40 -22 65 -20 28 3 54 -12 68 -38 26 -47 164 -64 193 -24 9 12 11 3 4 -21 -6 -24 -2 -50 10 -57 11 -7 15 -21 9 -31 -6 -11 3 -19 20 -19 17 0 30 7 29 15 -7 43 7 61 51 70 73 14 108 -18 36 -34 -38 -8 -60 -25 -60 -47 1 -84 -4 -96 -25 -64 -15 23 -19 24 -20 3 0 -17 -12 -23 -33 -14 -19 7 -40 3 -47 -9 -7 -12 -28 -16 -46 -9 -19 7 -29 21 -24 29 12 19 -43 80 -71 80 -11 0 -19 -14 -19 -31 0 -28 -4 -28 -44 0 -25 17 -61 31 -82 31 -24 0 -31 9 -21 25 9 16 0 14 -24 -4 -22 -16 -33 -22 -25 -13 8 9 2 29 -13 44 -15 15 -32 39 -38 53 -8 19 -15 18 -31 -5 -15 -20 -21 -22 -22 -5 0 14 -10 25 -21 25 -12 0 -15 -11 -7 -25 8 -14 7 -18 -3 -10 -22 21 -27 95 -6 95 10 0 17 8 17 19 0 10 -24 6 -54 -9 -30 -16 -63 -21 -75 -12 -12 8 -42 10 -68 4 l-46 -12 50 -48 c29 -26 64 -42 81 -36 20 8 26 3 19 -17 -7 -17 4 -34 26 -42 20 -7 51 -26 67 -41 17 -15 48 -41 70 -57 40 -29 40 -29 1 -59 -34 -26 -34 -30 -5 -30 19 0 34 9 34 20 0 31 39 24 115 -23 133 -82 453 -87 612 -9 169 82 283 186 173 158 -22 -6 -40 -17 -40 -25 0 -23 -153 -68 -178 -52 -69 43 87 160 246 184 125 19 193 60 185 111 -8 52 -51 72 -74 35 -9 -15 -55 -29 -102 -32 -48 -2 -91 -6 -97 -8 -5 -2 -18 -2 -27 -1 -10 2 -13 -9 -7 -24 7 -19 -12 -35 -56 -49 -55 -17 -65 -15 -56 7 7 18 -4 28 -32 28 -23 0 -42 -10 -42 -21 0 -12 11 -15 25 -7 14 7 11 -1 -6 -19 -39 -43 -174 16 -163 71 3 18 -3 38 -15 45 -12 7 -21 3 -21 -9 0 -12 -9 -17 -20 -10 -11 7 -20 32 -20 56 0 25 -7 35 -15 23 -22 -32 -85 -51 -85 -27 0 12 -18 15 -43 7 -27 -8 -37 -6 -29 8 8 13 -7 17 -41 11 -84 -15 -113 3 -86 54 16 30 16 39 1 29 -13 -8 -22 3 -22 29 0 23 7 38 16 32 9 -5 33 12 53 39 l37 49 57 -60 c37 -39 57 -49 57 -30 0 17 -8 30 -17 30 -10 0 -13 23 -8 50 10 50 50 73 44 25 -10 -76 0 -99 31 -68 34 34 40 62 10 43 -11 -7 -14 1 -8 19 16 40 60 40 75 1 7 -16 26 -30 42 -30 35 0 36 -13 9 -70 -18 -37 -18 -37 -10 5 10 52 -30 61 -68 15 -21 -26 -20 -29 6 -19 23 9 29 2 21 -28 -9 -33 -3 -38 30 -29 51 13 69 64 50 139 -12 52 -10 54 20 30 29 -24 33 -23 33 10 1 28 5 30 18 10 13 -21 19 -20 29 5 14 37 -10 40 -102 13 -40 -11 -65 -11 -65 0 0 11 10 19 23 19 37 0 0 27 -47 34 -23 4 -63 29 -88 56 -44 48 -165 74 -138 30z"/> <path d="M1895 1498 c25 -24 314 -96 325 -81 18 23 100 17 100 -7 0 -13 -20 -34 -45 -46 -25 -12 -33 -22 -19 -23 14 0 53 13 85 30 56 28 59 28 59 -10 0 -32 -18 -42 -100 -53 -55 -7 -100 -22 -100 -33 0 -12 29 -14 72 -6 52 10 78 5 95 -16 34 -44 97 -50 104 -9 3 23 -5 30 -28 22 -18 -6 -6 12 27 40 l60 50 -58 -11 c-53 -10 -57 -7 -46 35 18 71 -33 110 -105 80 -47 -19 -70 -18 -124 7 -66 31 -330 57 -302 31z"/> <path d="M1185 1441 c-17 -28 -42 -36 -94 -32 -49 5 -71 -1 -71 -19 0 -37 124 -25 188 17 28 18 66 33 85 33 44 0 30 11 -34 26 -36 9 -57 2 -74 -25z"/> <path d="M4510 1361 c33 -14 29 -18 -30 -24 l-70 -8 83 -10 c46 -5 79 -3 74 6 -5 8 2 16 17 16 34 2 -45 36 -84 36 -18 0 -15 -6 10 -16z"/> <path d="M1225 1278 c-5 -21 -27 -38 -47 -38 -21 0 -38 -7 -38 -17 0 -9 27 -16 61 -16 33 0 51 6 39 13 -27 17 12 52 70 64 32 6 29 10 -17 20 -46 9 -60 3 -68 -26z"/> <path d="M5160 1280 c17 -32 15 -40 -9 -40 -17 0 -31 -9 -31 -20 0 -11 -10 -20 -21 -20 -12 0 -16 9 -9 20 7 11 3 20 -8 20 -11 0 -16 14 -9 30 6 17 2 30 -9 30 -11 0 -17 -16 -14 -35 4 -19 8 -46 8 -60 1 -14 28 -25 63 -25 34 0 56 -9 50 -19 -7 -11 -28 -14 -47 -8 -25 7 -22 0 11 -30 53 -46 57 -63 14 -63 -25 0 -26 -8 -7 -44 16 -29 17 -46 3 -51 -11 -4 -17 -27 -11 -51 8 -39 6 -40 -18 -12 -30 36 -116 63 -116 36 0 -10 -25 -18 -55 -18 -37 -1 -46 -6 -29 -17 15 -9 48 -13 74 -8 85 16 191 -65 163 -125 -13 -27 -30 -50 -38 -50 -9 0 -10 -24 -2 -53 11 -47 8 -52 -30 -42 -24 6 -38 3 -32 -7 6 -10 27 -18 46 -18 19 0 36 -16 37 -38 2 -25 -8 -36 -30 -33 -19 3 -23 1 -9 -3 30 -11 31 -35 7 -120 -15 -52 -13 -61 10 -52 25 9 25 2 5 -42 -20 -45 -33 -52 -81 -41 -41 9 -56 5 -56 -17 0 -19 15 -26 48 -19 37 7 56 -5 84 -53 48 -82 68 -78 70 13 19 919 17 1125 -13 1125 -24 0 -26 -8 -9 -40z"/> <path d="M2140 1198 c0 -34 40 -98 61 -98 10 0 19 14 19 30 0 17 -10 30 -21 30 -12 0 -16 8 -10 18 6 10 -3 23 -19 29 -17 7 -30 2 -30 -9z"/> <path d="M2355 1145 c7 -18 16 -23 20 -11 4 12 30 0 58 -29 41 -41 54 -45 69 -23 11 18 7 36 -13 51 -24 18 -25 25 -5 32 14 5 -12 10 -58 11 -70 1 -82 -4 -71 -31z"/> <path d="M4749 1106 c21 -6 51 -23 66 -38 33 -33 65 -37 65 -8 0 11 -13 20 -30 20 -16 0 -30 9 -30 20 0 11 -25 19 -55 18 -40 -2 -45 -5 -16 -12z"/> <path d="M995 1088 c-28 -28 -15 -45 40 -52 42 -5 55 -16 53 -51 -1 -50 -3 -49 39 -33 25 9 27 19 7 50 -19 31 -19 43 3 56 20 12 16 19 -15 27 -23 6 -42 3 -42 -7 0 -25 -55 -23 -64 3 -4 12 -13 15 -21 7z"/> <path d="M4654 1078 c68 -36 79 -86 15 -69 -34 8 -48 5 -39 -8 7 -13 -10 -21 -44 -22 -49 0 -51 -3 -20 -21 26 -16 45 -14 68 5 26 21 34 22 41 2 5 -14 18 -25 30 -25 12 0 16 6 9 12 -20 20 44 72 69 56 14 -9 18 -5 9 9 -8 13 -30 24 -48 24 -28 2 -27 5 6 19 40 17 40 17 0 19 -22 1 -62 6 -90 12 -49 10 -49 9 -6 -13z"/> <path d="M2140 1061 c0 -10 11 -22 25 -28 15 -6 11 -10 -10 -11 -19 -1 -35 -10 -35 -21 0 -10 -20 -22 -45 -27 -39 -7 -37 -9 10 -11 49 -3 86 -63 38 -63 -9 0 -16 -13 -16 -30 0 -34 11 -37 52 -11 23 15 24 28 5 71 -31 68 -30 77 6 63 20 -8 30 1 30 25 0 21 -13 43 -30 49 -16 7 -30 4 -30 -6z"/> <path d="M846 1026 c33 -9 33 -12 -8 -48 l-44 -38 63 0 c43 0 63 10 63 30 0 17 11 31 25 31 40 3 -51 36 -95 35 -35 -1 -35 -2 -4 -10z"/> <path d="M996 945 c-30 -7 -30 -11 5 -46 44 -44 69 -52 46 -14 -11 19 -8 20 14 2 16 -13 61 -27 99 -30 39 -4 68 -17 66 -30 -5 -23 150 1 173 27 6 7 -9 7 -34 1 -25 -6 -45 -3 -45 8 0 10 -17 9 -40 -3 -31 -17 -39 -16 -35 4 3 14 -8 27 -25 28 -43 2 -147 31 -170 47 -11 8 -35 10 -54 6z"/> <path d="M2209 899 c-7 -12 -8 -27 -2 -33 21 -21 -27 -83 -69 -90 -43 -6 -43 -6 -4 -54 27 -33 44 -41 54 -25 8 13 1 29 -17 36 -29 11 -29 14 2 36 27 20 44 20 85 -2 29 -15 61 -26 72 -26 11 0 -4 14 -34 30 -33 18 -50 41 -44 57 6 15 1 34 -11 41 -12 8 -16 22 -10 32 6 11 7 19 1 19 -5 0 -16 -10 -23 -21z"/> <path d="M4749 829 c21 -16 30 -30 20 -30 -11 -1 1 -10 26 -20 36 -14 55 -9 85 21 31 31 33 40 10 40 -16 0 -30 -9 -30 -20 0 -31 -54 -23 -67 10 -7 17 -28 30 -47 29 -33 0 -33 -3 3 -30z"/> <path d="M966 732 c7 -17 -4 -32 -26 -38 -24 -6 -40 2 -45 23 -4 21 -11 12 -18 -22 -11 -51 -7 -55 57 -55 42 0 63 8 55 21 -7 11 -2 33 11 49 22 26 37 26 115 -3 49 -19 172 -28 156 -12 -49 49 -322 82 -305 37z"/> <path d="M2431 681 c-8 -12 -36 -15 -67 -8 -50 13 -51 12 -20 -20 45 -45 161 -45 152 0 -7 41 -47 57 -65 28z"/> <path d="M1061 641 c-21 -14 -12 -22 39 -35 37 -10 71 -28 75 -40 10 -32 -136 3 -158 38 -9 14 -17 17 -17 5 0 -33 81 -93 111 -81 15 6 41 -3 57 -19 35 -35 60 -38 40 -6 -10 17 -3 19 24 9 77 -31 106 -30 94 1 -6 16 -22 25 -34 20 -13 -5 -41 4 -62 19 -21 16 -29 28 -19 28 11 0 6 9 -11 20 -26 17 -26 19 2 20 18 0 42 -20 54 -45 l21 -45 2 45 c1 48 -68 78 -139 59 -22 -6 -35 -2 -29 8 14 23 -13 23 -50 -1z"/> <path d="M4747 610 c-6 -16 -19 -25 -29 -19 -28 18 -21 -11 11 -42 39 -40 85 -39 51 1 -20 24 -15 33 28 49 65 25 65 31 1 36 -29 3 -55 -8 -62 -25z"/> <path d="M4828 567 c31 -9 33 -15 10 -30 -21 -14 -15 -17 22 -13 67 8 56 45 -14 50 -34 2 -41 -1 -18 -7z"/> <path d="M985 500 c-17 -27 -18 -42 -2 -52 14 -8 14 -17 1 -25 -12 -8 -9 -23 8 -39 23 -21 28 -19 30 10 1 21 5 26 11 11 6 -14 25 -25 43 -25 25 0 23 7 -12 31 -25 18 -40 40 -33 50 6 10 4 32 -5 48 -14 25 -21 24 -41 -9z"/> <path d="M3600 508 c-44 -24 -45 -27 -10 -27 76 0 136 23 107 41 -33 21 -35 21 -97 -14z"/> <path d="M4740 440 c0 -11 -22 -20 -49 -20 -36 0 -47 -8 -38 -30 6 -16 18 -26 26 -21 8 6 32 -3 53 -19 58 -44 85 -34 28 10 l-50 40 45 12 c24 7 40 21 34 30 -15 24 -49 23 -49 -2z"/> <path d="M3080 411 c0 -16 10 -35 22 -42 16 -10 14 -19 -4 -30 -15 -9 -22 -22 -16 -28 7 -6 31 6 56 27 27 24 36 43 23 52 -12 7 -16 21 -10 31 6 11 -7 19 -30 19 -22 0 -41 -13 -41 -29z"/> <path d="M1400 365 c1 -73 30 -121 46 -77 7 17 3 37 -9 44 -11 7 -16 29 -11 50 6 21 2 38 -8 38 -10 0 -18 -25 -18 -55z"/> <path d="M2338 359 c-41 -26 -42 -103 -1 -80 23 13 43 2 75 -42 24 -33 48 -52 52 -43 15 28 -13 134 -34 132 -11 -1 -18 5 -16 14 7 25 -45 38 -76 19z"/> <path d="M3410 340 l-60 -15 54 -3 c29 -1 59 -11 65 -21 7 -11 25 -14 41 -8 25 9 25 15 1 39 -16 15 -31 27 -35 26 -3 -2 -33 -10 -66 -18z"/> <path d="M2730 260 c35 -39 35 -40 -27 -42 -35 -2 -72 -5 -83 -8 -11 -3 -29 -6 -39 -7 -25 -4 -3 -63 22 -63 11 0 15 8 9 17 -6 10 22 15 63 12 50 -5 64 -1 44 12 -21 13 -11 18 37 19 59 0 124 36 124 69 0 25 -59 9 -77 -22 -16 -30 -21 -29 -41 10 -13 24 -33 43 -46 43 -12 0 -6 -18 14 -40z"/> <path d="M1074 114 c-11 -28 39 -108 57 -90 6 6 -4 26 -21 44 -30 29 -29 32 14 32 37 1 40 4 16 20 -40 26 -54 25 -66 -6z"/> <path d="M2965 125 c-42 -14 17 -57 101 -73 59 -11 74 -8 74 17 0 32 -20 39 -88 32 -21 -3 -43 4 -50 14 -6 11 -23 15 -37 10z"/> <path d="M4915 128 c-7 -7 -7 -25 -1 -40 6 -17 -3 -28 -23 -28 -18 0 -28 -8 -22 -18 6 -10 0 -23 -14 -29 -14 -5 -5 -11 20 -11 25 -1 46 9 48 23 1 14 4 45 7 70 5 48 3 52 -15 33z"/> <path d="M3680 100 c22 -14 9 -20 -50 -20 -70 -1 -76 -4 -45 -28 19 -14 29 -32 21 -39 -7 -7 12 -13 41 -13 40 0 59 14 73 51 27 69 27 69 -25 69 -36 -1 -39 -4 -15 -20z"/> </g> </svg> 