 <svg  version="1.0" xmlns="http://www.w3.org/2000/svg"  width="450.000000pt" height="450.000000pt" viewBox="0 0 450.000000 450.000000"  preserveAspectRatio="xMidYMid meet">  <g transform="translate(0.000000,450.000000) scale(0.050000,-0.050000)" fill="#fe76ec" stroke="none"> <path d="M1020 8145 c0 -921 3 -948 118 -1273 23 -66 42 -168 42 -230 0 -156 23 -382 38 -373 7 4 15 -71 19 -166 3 -95 12 -177 20 -183 7 -5 14 -59 15 -120 3 -134 95 -392 119 -333 9 23 5 43 -11 53 -14 8 -19 25 -12 36 7 12 4 27 -8 34 -11 7 -20 33 -20 58 0 25 -5 51 -12 57 -9 9 -17 186 -27 635 0 17 4 168 9 336 9 301 8 306 -35 324 -35 13 -37 18 -10 19 37 1 42 37 15 121 -11 33 -17 38 -18 15 -1 -19 -16 -35 -33 -35 -29 0 -30 94 -18 940 l14 940 -102 0 -103 0 0 -855z"/> <path d="M1387 8976 c-7 -12 1 -29 18 -39 28 -15 28 -25 -5 -92 -44 -88 -25 -123 49 -89 28 13 66 17 86 11 29 -11 30 -8 10 14 -31 34 -33 86 -2 67 16 -10 20 2 13 39 -7 36 -2 54 17 56 15 1 38 3 51 5 14 1 47 -19 75 -44 37 -35 62 -43 100 -33 28 8 62 14 75 15 14 0 22 25 20 58 l-4 57 -245 -2 c-147 -2 -250 -11 -258 -23z"/> <path d="M2980 8984 c0 -9 32 -17 71 -18 38 -1 85 -14 103 -29 29 -24 30 -23 9 18 -24 44 -183 70 -183 29z"/> <path d="M3190 8980 c7 -11 38 -20 70 -20 32 0 63 9 70 20 7 12 -20 20 -70 20 -50 0 -77 -8 -70 -20z"/> <path d="M5232 8972 c6 -15 33 -32 59 -37 61 -12 63 1 4 24 -44 18 -44 18 -2 20 23 0 54 -13 68 -30 20 -25 29 -26 43 -5 13 20 21 18 38 -9 11 -20 69 -87 129 -150 91 -96 102 -117 74 -128 -33 -13 -33 -14 0 -16 19 0 33 -8 30 -17 -3 -9 29 -46 70 -82 41 -36 75 -77 75 -91 0 -13 45 -67 100 -119 55 -52 96 -103 90 -113 -6 -9 12 -32 39 -50 28 -19 51 -45 51 -59 0 -53 72 -117 112 -100 21 9 47 14 58 10 111 -34 186 20 133 94 -37 50 -83 58 -119 22 -13 -13 -24 -15 -24 -4 0 25 73 87 105 90 70 6 -93 34 -205 36 -92 2 -121 8 -100 22 17 11 21 20 10 20 -11 0 -7 9 9 19 16 10 41 12 55 4 36 -20 168 -3 154 19 -6 10 -20 13 -31 6 -12 -7 -43 -1 -69 13 -32 17 -41 31 -25 41 12 7 17 29 10 48 -12 31 -18 32 -61 3 -36 -23 -52 -25 -72 -7 -20 19 -23 18 -12 -1 17 -30 -20 -34 -39 -4 -19 31 14 47 116 58 74 7 -12 41 -105 41 -67 0 -120 9 -120 20 0 11 -8 18 -18 15 -17 -5 -22 4 -22 44 0 10 33 5 74 -12 64 -27 77 -27 95 -2 11 16 31 25 44 21 13 -5 29 1 36 12 8 14 -28 20 -103 18 -104 -3 -225 32 -200 57 14 14 71 24 154 26 58 2 64 6 35 23 -19 11 -35 37 -35 58 0 32 -10 37 -55 28 -64 -12 -205 41 -205 77 -1 18 -5 18 -17 -2 -23 -36 -133 -22 -133 17 0 17 15 28 33 24 19 -3 40 4 47 15 8 14 -56 21 -188 21 -164 0 -199 -5 -190 -28z"/> <path d="M6148 8978 c-8 -15 -49 -19 -111 -11 -56 6 -97 3 -97 -8 0 -10 47 -19 106 -19 114 0 194 -40 194 -96 0 -19 18 -63 40 -99 22 -36 40 -79 40 -95 0 -16 18 -41 40 -55 22 -13 40 -45 40 -69 0 -29 20 -55 59 -75 32 -17 65 -51 72 -76 8 -25 36 -92 62 -149 26 -57 47 -119 47 -138 0 -19 14 -50 31 -69 37 -41 55 -108 52 -192 -2 -40 9 -67 29 -75 25 -10 28 -32 17 -119 -22 -176 115 -354 294 -383 120 -19 174 -59 219 -160 21 -47 51 -91 67 -97 46 -17 128 -162 151 -264 12 -51 34 -124 50 -163 35 -84 36 -92 10 -76 -11 7 -20 3 -20 -8 0 -11 9 -25 20 -32 11 -7 20 -48 20 -92 0 -49 -8 -75 -20 -68 -12 7 -20 -13 -20 -49 0 -33 -9 -61 -20 -61 -33 0 -23 -55 12 -68 25 -10 27 -19 10 -40 -13 -15 -17 -42 -10 -59 9 -24 1 -33 -29 -33 -25 0 -40 -13 -40 -35 1 -92 -23 -268 -41 -302 -63 -116 -310 -273 -432 -273 -11 0 -24 -5 -30 -10 -5 -6 -34 -22 -64 -35 -50 -21 -55 -33 -54 -129 0 -127 -22 -263 -48 -289 -8 -7 -14 -32 -14 -53 0 -22 -35 -73 -77 -112 -85 -79 -143 -177 -128 -218 5 -15 -5 -42 -21 -60 -104 -115 -169 -279 -166 -413 2 -73 -3 -138 -12 -143 -9 -6 -16 -57 -16 -114 0 -115 -41 -314 -65 -314 -8 0 -15 -19 -15 -41 0 -23 -9 -36 -20 -29 -11 7 -20 3 -20 -7 0 -11 -18 -26 -40 -33 -22 -7 -40 -26 -40 -41 0 -16 -7 -29 -16 -29 -27 0 -104 -79 -103 -106 0 -13 9 -8 21 11 19 33 23 33 52 3 28 -27 28 -34 4 -50 -19 -12 -21 -23 -6 -33 20 -14 41 -103 58 -255 4 -33 -4 -66 -17 -75 -17 -10 -16 -14 3 -15 18 0 20 -10 6 -37 -11 -20 -15 -55 -9 -77 7 -30 -1 -44 -34 -52 -36 -10 -42 -21 -31 -65 10 -37 4 -65 -20 -91 -32 -36 -31 -40 14 -83 55 -52 61 -92 18 -136 -27 -27 -31 -27 -43 0 -8 17 -13 -5 -13 -49 1 -44 10 -91 21 -105 12 -16 12 -46 -3 -87 -12 -34 -17 -71 -11 -80 6 -10 4 -29 -4 -43 -26 -42 -29 -100 -8 -160 11 -33 12 -52 1 -45 -10 6 -25 -11 -32 -39 -7 -28 -20 -51 -30 -51 -9 0 -12 -25 -7 -55 7 -36 -4 -79 -34 -125 -25 -38 -47 -82 -49 -97 -10 -56 -28 -85 -47 -74 -10 7 -26 -1 -35 -16 -9 -15 -37 -38 -62 -51 -25 -13 -41 -31 -35 -40 34 -56 -97 -98 -379 -123 -110 -10 -267 -29 -350 -43 -141 -24 -278 -21 -489 13 -87 14 -313 129 -391 199 -27 24 -104 84 -170 133 -153 112 -250 209 -250 248 0 17 -27 74 -60 128 -51 83 -60 118 -60 235 -1 76 -10 179 -22 228 -12 50 -24 185 -28 300 -8 214 -14 279 -36 350 -7 22 -18 67 -26 100 -17 74 -14 619 3 673 9 29 -8 60 -64 115 -42 41 -93 98 -112 127 -71 106 -208 117 -341 26 -41 -27 -85 -46 -99 -41 -14 5 -61 13 -105 18 -44 5 -80 10 -80 12 0 2 -22 7 -48 12 -63 11 -102 44 -102 85 -1 26 -4 27 -17 7 -29 -46 -140 63 -128 126 6 29 0 50 -13 50 -12 0 -22 -10 -22 -23 0 -13 -5 -19 -11 -13 -5 6 -1 35 11 66 19 50 17 54 -20 44 -39 -10 -50 12 -41 81 1 14 -19 25 -47 25 -30 0 -59 16 -72 40 -16 30 -15 40 4 40 18 1 17 6 -4 20 -27 17 -15 29 25 22 47 -7 -35 84 -94 106 -28 10 -33 19 -16 29 18 11 13 24 -15 48 -26 22 -43 26 -52 12 -7 -12 -2 -28 12 -37 14 -9 19 -25 12 -37 -7 -12 0 -54 17 -94 23 -54 25 -83 9 -112 -17 -33 -9 -51 52 -108 40 -38 66 -69 58 -69 -8 0 10 -21 39 -46 59 -50 69 -79 23 -61 -17 6 -30 6 -30 -1 0 -7 22 -21 49 -32 61 -23 115 -124 115 -214 0 -51 6 -63 24 -47 17 14 32 13 48 -3 19 -19 24 -18 24 0 0 13 -8 24 -18 24 -17 0 -49 60 -37 71 14 15 154 -66 140 -81 -8 -9 -4 -10 9 -3 26 15 126 -24 126 -50 0 -9 10 -17 21 -17 12 0 16 9 9 20 -7 11 1 15 17 8 17 -6 48 7 71 30 50 50 69 27 33 -43 -46 -88 -80 -550 -81 -1085 0 -418 8 -453 152 -634 36 -46 58 -97 58 -136 0 -66 69 -359 99 -417 9 -18 31 -83 49 -144 20 -71 72 -165 142 -257 82 -108 110 -162 110 -211 0 -47 23 -95 80 -166 44 -56 80 -113 80 -128 0 -15 27 -60 60 -100 138 -169 139 -337 1 -337 -20 0 -41 -18 -47 -40 -9 -37 0 -40 109 -40 262 0 238 274 -62 720 -34 50 -61 102 -61 116 0 40 -98 224 -175 330 -78 108 -245 563 -245 670 0 66 -55 196 -105 247 -102 105 -125 180 -132 445 -4 159 -14 247 -25 230 -14 -22 -17 -21 -18 7 0 19 9 35 20 35 13 0 20 126 20 337 0 406 7 451 84 506 105 75 207 73 287 -4 l69 -67 0 -286 c0 -214 10 -332 40 -468 34 -153 52 -315 59 -553 9 -276 94 -685 143 -685 10 0 18 -16 18 -36 0 -198 874 -804 959 -666 12 19 18 18 28 -6 7 -20 33 -31 67 -30 l56 3 -60 16 c-41 10 -19 13 70 8 1047 -61 961 -39 902 -227 -24 -78 -35 -157 -29 -210 5 -47 11 -107 14 -134 11 -88 51 -161 86 -154 55 10 54 54 -1 75 -65 25 -71 70 -7 50 l45 -14 -43 37 c-46 40 -76 132 -52 157 8 8 15 39 15 68 0 43 8 52 45 47 25 -4 45 -4 45 0 0 3 21 66 47 140 26 73 40 145 32 158 -9 13 -11 36 -6 49 6 14 -8 31 -30 38 -49 16 -72 69 -34 83 15 6 55 -17 89 -53 34 -36 62 -55 62 -43 0 11 11 25 25 30 14 4 9 6 -10 3 -19 -3 -35 7 -35 22 0 16 12 23 30 16 17 -6 30 -2 30 9 0 11 17 16 38 10 21 -5 44 2 53 15 10 16 7 20 -8 11 -37 -23 -69 7 -42 40 13 15 18 28 10 28 -8 0 0 13 16 30 17 16 41 30 54 30 14 0 20 19 14 49 -5 27 -4 48 3 48 39 -5 62 6 62 31 0 15 16 26 35 25 22 -2 35 12 37 42 3 48 -23 62 -38 20 -5 -14 -14 -20 -20 -14 -16 14 7 101 23 91 43 -24 86 65 50 101 -40 41 -49 150 -13 162 14 4 19 -8 12 -34 -13 -51 -4 -51 56 0 28 25 65 38 93 33 35 -7 41 -3 24 18 -12 14 -36 20 -54 13 -25 -9 -29 -2 -19 35 9 34 6 40 -11 23 -34 -34 -64 -28 -34 8 19 23 20 36 2 54 -27 27 -31 95 -6 95 9 0 27 23 39 50 20 43 18 50 -10 50 -26 0 -28 6 -11 23 18 18 32 16 58 -5 31 -25 33 -24 22 17 -6 25 -3 50 7 56 10 6 17 22 16 35 -1 18 -4 17 -11 -1 -7 -17 -21 -19 -46 -6 -20 11 -40 16 -44 11 -5 -5 -19 17 -30 49 -21 54 -19 58 35 66 32 4 58 1 58 -8 0 -10 9 -17 20 -17 11 0 20 14 20 30 0 17 -9 30 -20 30 -12 0 -16 20 -11 45 6 25 16 70 23 101 11 47 7 56 -22 50 -20 -3 -40 8 -44 24 -8 27 -7 27 12 0 18 -24 22 -21 22 20 -1 135 9 200 28 200 16 1 16 5 1 15 -37 25 -51 89 -27 118 18 21 16 27 -5 27 -21 0 -26 21 -20 82 5 55 -1 89 -20 100 -20 13 -20 17 -2 18 14 0 25 10 25 21 0 12 -9 16 -20 9 -11 -7 -20 -1 -20 14 1 42 32 79 62 72 17 -4 26 7 22 27 -3 19 3 39 13 45 17 11 51 -94 46 -140 -2 -11 10 -64 25 -116 25 -82 25 -94 1 -84 -37 14 -37 -17 -1 -54 16 -15 33 -54 37 -86 5 -32 10 7 12 87 2 85 -5 145 -17 145 -11 0 -20 27 -20 60 0 33 9 60 20 60 11 0 20 38 21 85 0 47 13 139 29 205 18 74 29 224 30 392 0 249 4 280 48 363 27 50 44 97 37 103 -6 7 -1 12 12 12 13 0 39 34 58 75 19 41 65 110 102 153 93 106 156 254 182 431 26 172 32 182 146 232 47 21 92 50 101 64 9 14 25 21 35 15 29 -18 170 63 227 132 87 103 118 180 134 338 9 83 28 218 41 300 103 622 -122 1178 -529 1306 -133 42 -163 93 -182 309 -20 230 -169 614 -332 854 -110 160 -200 332 -200 379 0 39 -228 47 -252 10z"/> <path d="M2268 8964 c18 -4 32 -24 32 -45 0 -44 24 -49 84 -17 22 12 100 24 172 26 81 3 135 14 139 28 6 18 -50 23 -225 19 -129 -3 -219 -8 -202 -11z"/> <path d="M4258 8928 c-18 -22 -15 -28 16 -28 21 0 49 -11 62 -24 13 -13 27 -19 32 -14 5 4 -12 28 -39 51 -40 36 -51 38 -71 15z"/> <path d="M2879 8891 c35 -42 6 -76 -52 -62 -54 14 -134 -21 -116 -50 6 -11 -1 -24 -16 -30 -31 -12 -42 -89 -13 -89 11 0 14 -10 7 -22 -8 -12 -49 -18 -92 -14 -56 5 -75 0 -68 -17 5 -15 -2 -21 -20 -14 -15 6 -41 -2 -57 -18 -35 -35 41 -90 95 -69 19 7 34 -2 39 -22 6 -21 10 -13 12 19 3 76 50 83 110 16 43 -49 62 -56 117 -46 84 16 95 27 28 27 -34 0 -53 11 -53 30 0 20 20 30 60 30 33 0 60 10 60 21 0 12 9 16 20 9 11 -7 31 -6 44 2 16 10 11 19 -15 29 -28 11 -8 19 70 30 82 11 100 19 70 31 -21 8 -30 16 -19 17 28 2 25 101 -3 101 -12 0 -33 14 -47 30 -14 17 -35 30 -47 29 -13 0 -7 -9 12 -21 46 -26 45 -78 -1 -78 -19 0 -84 -13 -145 -28 -122 -32 -132 -30 -101 21 16 28 21 30 22 7 1 -26 3 -26 19 0 12 18 50 29 101 29 64 0 75 5 52 22 -19 14 -23 31 -11 50 29 47 22 59 -33 59 -44 0 -49 -5 -29 -29z m181 -192 c0 -12 -8 -16 -19 -10 -10 6 -23 4 -29 -6 -6 -9 -60 -23 -120 -30 -60 -7 -123 -18 -140 -25 -21 -8 -32 -1 -32 18 0 23 33 34 135 44 74 7 144 16 155 20 37 13 50 10 50 -11z m-284 -146 c4 -18 0 -33 -10 -32 -27 1 -86 52 -74 64 22 22 78 1 84 -32z"/> <path d="M3355 8906 c98 -13 78 -46 -28 -46 -116 0 -96 -28 23 -32 76 -3 87 3 95 45 9 44 4 47 -73 44 -74 -3 -75 -4 -17 -11z"/> <path d="M4078 8852 c13 -15 54 -31 92 -36 49 -6 63 -1 49 15 -10 12 -13 29 -5 36 7 7 -26 13 -73 13 -71 0 -82 -5 -63 -28z"/> <path d="M1650 8813 c-22 -24 -38 -50 -35 -58 3 -8 -11 -32 -30 -52 -19 -20 -44 -52 -55 -70 -11 -19 -48 -38 -82 -42 -66 -8 -148 -50 -148 -76 0 -15 30 -22 73 -17 13 2 22 -20 20 -48 -2 -27 -11 -50 -20 -50 -10 0 -13 -18 -7 -39 5 -22 -1 -43 -13 -47 -30 -10 21 -74 59 -74 75 0 129 45 97 81 -33 37 -16 61 51 73 107 19 150 41 111 57 -22 9 -41 8 -45 -3 -3 -10 -47 -15 -96 -11 -117 9 -123 57 -8 76 48 7 71 19 57 28 -17 10 -13 21 16 36 22 12 45 16 52 9 7 -7 13 -2 13 11 0 13 -13 23 -30 23 -16 0 -30 11 -30 25 1 35 30 78 52 74 67 -13 96 1 59 28 -34 24 -29 28 51 42 228 37 257 47 128 44 -66 -1 -138 3 -160 10 -27 9 -53 -1 -80 -30z"/> <path d="M2220 8825 c0 -14 11 -26 25 -26 145 -9 175 -6 175 14 0 13 -42 26 -100 30 -70 5 -100 0 -100 -18z"/> <path d="M2453 8830 c12 -32 107 -43 107 -12 0 9 -20 23 -45 29 -67 18 -75 16 -62 -17z"/> <path d="M2120 8780 c-16 -11 -50 -20 -75 -20 -25 0 -45 -8 -45 -19 0 -10 -20 -21 -43 -25 -24 -3 -48 -18 -53 -33 -10 -31 155 -15 232 22 34 17 63 16 116 -3 39 -14 77 -20 84 -13 17 17 -40 53 -68 43 -12 -5 -34 9 -49 30 -31 42 -55 47 -99 18z"/> <path d="M3590 8780 c67 -17 28 -26 -100 -23 -33 1 -46 -3 -30 -9 17 -6 48 -19 70 -28 63 -27 150 -36 161 -18 25 41 -33 98 -97 96 l-64 -3 60 -15z"/> <path d="M3229 8739 c-7 -12 -26 -17 -41 -11 -16 6 -28 -2 -28 -19 0 -19 21 -29 60 -29 33 0 60 9 60 20 0 11 23 20 50 20 28 0 50 9 50 20 0 27 -134 26 -151 -1z"/> <path d="M2132 8663 c-6 -10 -59 -24 -116 -32 -107 -14 -176 -55 -176 -104 0 -40 76 -33 89 9 13 43 41 47 306 50 229 3 272 36 72 56 -66 6 -130 17 -142 25 -12 7 -27 6 -33 -4z"/> <path d="M3281 8630 c-48 -15 -97 -22 -108 -16 -10 7 -13 2 -6 -9 16 -26 260 -15 310 14 27 16 28 20 3 21 -16 0 -48 5 -70 9 -22 5 -80 -3 -129 -19z"/> <path d="M4160 8591 c-82 -14 -154 -27 -160 -30 -31 -18 -106 -41 -130 -41 -15 0 -32 -7 -38 -16 -12 -20 122 -2 326 44 81 18 152 28 158 23 44 -44 -270 -147 -373 -121 -51 12 -52 11 -13 -18 39 -30 39 -31 -13 -31 -29 -1 -57 -13 -63 -28 -6 -16 -39 -25 -81 -24 -39 1 -65 -6 -58 -16 6 -12 -17 -15 -57 -8 -90 14 -145 -21 -108 -71 22 -31 27 -31 37 -5 6 17 28 31 47 31 31 -1 32 -4 6 -20 -24 -15 -24 -19 -3 -20 23 0 23 -6 3 -30 -14 -17 -30 -27 -35 -21 -6 5 -27 -11 -47 -35 -20 -24 -37 -37 -37 -28 -1 19 -96 -80 -106 -112 -4 -12 -56 -25 -116 -28 -60 -4 -120 -8 -134 -10 -13 -1 -23 -21 -22 -44 1 -23 -4 -57 -12 -75 -13 -31 5 -33 172 -29 183 4 277 30 277 76 0 12 6 17 13 10 7 -7 28 5 47 26 37 42 236 138 370 179 44 13 98 32 120 41 71 31 178 58 280 71 146 19 334 68 384 100 57 37 266 63 266 33 0 -12 19 -27 43 -35 28 -9 34 -18 19 -28 -19 -11 -18 -27 0 -68 28 -61 48 -67 66 -21 9 23 4 29 -18 21 -30 -12 -41 9 -18 32 14 14 188 -66 188 -86 0 -7 -22 -9 -50 -4 -60 12 -63 -2 -10 -55 22 -22 40 -31 40 -20 0 11 18 20 40 20 22 0 40 -13 40 -29 0 -17 25 -31 63 -35 85 -8 101 -56 19 -56 -34 0 -62 -9 -62 -20 0 -11 13 -20 29 -20 37 0 62 -40 36 -57 -95 -61 -29 -118 73 -63 15 8 51 2 80 -13 58 -30 94 20 39 55 -21 14 -20 17 6 18 19 0 48 5 65 12 21 8 32 1 32 -20 0 -18 -10 -30 -22 -27 -13 3 -26 -4 -31 -15 -8 -23 110 -82 148 -74 14 3 25 -13 25 -35 0 -24 -13 -41 -31 -41 -17 0 -26 9 -19 20 7 11 -2 20 -20 20 -18 0 -27 -9 -20 -20 19 -31 -47 -48 -80 -20 -38 32 -38 60 0 60 17 0 30 -13 30 -30 0 -16 9 -30 20 -30 11 0 10 20 -4 50 -22 49 -76 70 -76 30 0 -29 -75 -25 -87 5 -6 14 -9 -4 -8 -40 2 -41 14 -65 32 -65 22 0 23 6 3 30 -20 25 -19 30 8 30 31 0 41 -22 33 -77 -2 -15 5 -21 16 -15 11 7 26 4 32 -7 12 -18 29 -16 106 12 53 20 92 20 120 0 17 -12 39 -6 65 17 39 35 40 35 41 -2 0 -36 2 -36 27 -3 37 49 41 46 83 -55 40 -96 69 -117 69 -49 0 23 8 36 18 30 10 -6 14 -28 8 -49 -9 -37 55 -78 102 -65 20 6 -25 -57 -58 -82 -11 -8 -5 -15 15 -15 19 0 35 9 35 20 0 11 10 20 21 20 12 0 19 -16 15 -35 -5 -24 -22 -33 -54 -28 -32 4 -42 -1 -32 -18 8 -13 4 -30 -10 -39 -16 -10 -5 -25 37 -45 51 -26 62 -26 71 -3 6 15 30 28 53 28 23 0 36 9 29 20 -7 11 -3 20 8 20 11 0 18 -19 16 -41 -2 -29 -13 -39 -38 -32 -20 5 -41 1 -47 -9 -12 -19 -7 -21 75 -26 29 -2 48 5 42 15 -8 12 7 14 36 5 26 -8 60 -16 74 -17 14 -1 21 -15 14 -31 -9 -24 -5 -25 18 -6 36 31 79 -36 59 -90 -11 -28 -5 -32 30 -23 36 9 42 5 34 -23 -7 -21 -1 -36 14 -36 52 -3 162 -28 195 -46 18 -10 53 -13 77 -7 25 7 43 2 43 -11 0 -12 -27 -22 -60 -22 -33 0 -60 -9 -60 -19 0 -11 14 -15 30 -8 21 8 30 -2 30 -31 0 -41 -50 -60 -63 -24 -26 72 -120 -8 -108 -91 9 -55 6 -87 -7 -87 -11 0 -15 -14 -9 -32 13 -33 -78 -136 -101 -113 -7 6 -12 -4 -12 -24 0 -23 10 -31 30 -24 17 7 30 2 30 -10 0 -16 7 -16 26 0 22 18 25 10 18 -36 -6 -41 -21 -61 -50 -65 -91 -13 -56 -51 38 -41 83 10 93 7 82 -23 -9 -23 -6 -29 10 -20 16 10 18 3 7 -24 -58 -138 -59 -145 -31 -178 15 -18 29 -54 32 -80 7 -68 66 -149 99 -137 16 6 23 20 17 30 -7 11 -1 45 12 77 21 50 18 63 -18 102 -44 47 5 121 58 88 11 -7 20 -3 20 9 0 11 -18 21 -39 21 -27 0 -36 10 -28 30 6 17 3 30 -6 30 -31 0 -93 136 -82 178 6 22 1 43 -10 47 -13 4 -11 21 5 47 47 76 280 -2 280 -94 0 -9 26 -71 57 -139 61 -130 63 -196 6 -191 -20 1 -30 -10 -25 -28 24 -90 14 -110 -53 -104 -97 10 -170 -46 -84 -63 35 -7 71 -8 81 -2 10 6 18 -3 18 -20 0 -17 17 -31 37 -31 87 0 172 396 111 518 -18 35 -27 82 -22 103 11 41 -30 74 -111 90 -23 4 -49 19 -58 33 -12 20 -29 20 -76 2 -39 -14 -57 -15 -49 -2 7 11 1 29 -14 39 -23 14 -22 22 8 39 27 16 33 37 25 94 -6 41 -6 64 0 51 12 -25 89 -12 89 15 0 9 -13 12 -30 5 -16 -6 -30 -1 -30 11 0 12 15 22 32 22 25 0 28 6 11 27 -13 15 -17 33 -9 40 7 7 2 13 -11 13 -13 0 -23 13 -23 28 0 31 -54 58 -82 41 -10 -6 -18 -2 -18 10 0 11 9 21 20 21 31 0 24 53 -11 89 -18 17 -52 31 -78 31 -25 0 -80 27 -122 61 -42 33 -85 57 -96 53 -31 -10 -116 70 -105 99 6 15 -35 51 -97 86 -59 34 -112 76 -119 93 -6 17 -22 24 -34 17 -15 -9 -18 -1 -9 26 9 30 -2 52 -43 82 -31 23 -45 42 -31 42 14 1 25 11 25 22 0 12 -16 20 -35 18 -65 -7 -85 1 -85 32 0 17 -8 26 -18 20 -10 -6 -22 -2 -25 9 -4 11 -29 25 -55 30 -66 12 -72 23 -34 60 43 44 42 46 -38 37 -48 -6 -105 10 -185 49 -63 32 -169 74 -235 94 -87 26 -147 62 -216 128 -53 51 -104 95 -115 99 -10 3 -19 18 -19 33 0 31 -44 50 -118 50 -30 0 -65 11 -78 24 -26 26 -252 91 -374 107 -44 5 -118 15 -164 21 -63 7 -81 18 -73 39 14 36 -113 36 -333 0z m558 -159 c161 -4 114 -45 -92 -79 -363 -60 -594 -122 -733 -196 -30 -16 -35 -13 -29 17 3 20 27 39 51 42 25 4 45 15 45 25 0 11 20 19 45 19 25 0 68 12 95 26 63 33 243 84 272 78 13 -2 35 11 50 29 26 31 21 33 -47 22 -84 -14 -97 -3 -30 25 25 11 99 14 165 7 66 -7 160 -13 208 -15z m2313 -1783 c38 -30 38 -31 -4 -19 -26 7 -55 -1 -75 -21 -29 -29 -32 -29 -32 0 0 17 14 31 31 31 17 0 26 9 19 20 -19 30 18 24 61 -11z"/> <path d="M1774 8484 c-20 -4 -33 -18 -28 -31 10 -29 199 -24 248 7 28 17 15 19 -62 9 -54 -7 -103 -4 -110 5 -7 10 -28 14 -48 10z"/> <path d="M2050 8460 c-7 -11 12 -21 44 -21 31 -1 74 -9 96 -18 40 -16 90 7 90 41 0 25 -215 23 -230 -2z"/> <path d="M3052 8443 c-14 -22 348 -44 385 -24 16 9 -26 20 -98 28 -171 18 -275 16 -287 -4z"/> <path d="M2688 8413 c-6 -17 -29 -23 -61 -17 -66 12 -59 -54 10 -88 49 -24 -162 -64 -275 -51 -39 4 -45 -2 -37 -36 8 -29 2 -41 -21 -41 -25 0 -27 -5 -8 -24 39 -39 80 -36 69 5 -7 31 1 37 48 36 31 -1 86 7 122 19 53 17 65 16 65 -7 0 -16 -7 -29 -16 -29 -9 0 -34 -17 -56 -37 -58 -54 -288 -79 -288 -31 0 31 -4 31 -41 -3 -38 -35 -39 -39 -7 -50 25 -8 28 -17 12 -27 -13 -8 -24 -23 -24 -34 0 -11 8 -15 19 -9 10 6 24 3 31 -9 7 -11 -2 -20 -19 -20 -17 0 -31 -9 -31 -20 0 -11 -17 -20 -37 -20 -20 0 -53 -18 -73 -40 -19 -21 -43 -35 -51 -29 -9 5 -22 1 -29 -11 -7 -11 -51 -20 -98 -20 -80 0 -86 -4 -81 -50 6 -55 -35 -74 -169 -78 -64 -2 -101 -21 -102 -52 0 -17 128 -10 158 9 21 13 24 10 11 -10 -9 -15 12 -7 45 17 34 24 69 44 78 44 8 0 54 19 101 41 68 33 93 37 127 19 41 -22 42 -21 11 25 -30 46 -25 75 14 75 9 0 11 -11 2 -25 -19 -32 57 26 79 60 9 14 42 25 73 25 32 0 62 11 68 25 7 17 10 17 11 2 2 -27 82 -12 82 15 0 10 -17 18 -38 18 -21 0 -43 11 -49 25 -8 20 -10 20 -11 0 -1 -14 -12 -25 -23 -25 -12 0 -16 8 -10 18 6 10 0 24 -14 30 -14 6 13 9 60 6 47 -3 85 0 85 6 0 6 32 12 70 13 39 1 70 -6 70 -15 0 -10 -13 -18 -28 -18 -27 0 -64 -95 -43 -115 17 -18 69 36 59 63 -7 18 36 25 169 26 98 1 195 12 216 24 30 18 14 22 -83 21 -66 -1 -151 -1 -190 1 l-70 3 60 28 c54 24 42 39 -25 30 -59 -7 -17 38 66 72 83 34 90 42 81 92 -10 48 -5 55 37 55 74 0 82 38 13 62 -34 12 -62 30 -62 40 0 28 -40 21 -52 -9z"/> <path d="M2055 8408 c-7 -6 -57 -12 -111 -11 -60 0 -114 -11 -137 -30 -34 -27 -30 -29 49 -18 48 7 140 17 205 24 65 7 113 20 107 30 -12 19 -95 23 -113 5z"/> <path d="M2420 8401 c0 -10 -15 -33 -32 -51 -18 -17 -28 -37 -22 -42 16 -16 114 75 102 95 -14 23 -48 22 -48 -2z"/> <path d="M1691 8302 c-37 -15 -37 -15 0 -30 31 -11 33 -17 10 -32 -26 -16 170 -9 269 9 22 5 58 9 80 10 79 4 -18 39 -101 36 -43 -1 -110 3 -149 10 -38 7 -87 5 -109 -3z"/> <path d="M2992 8305 c-7 -6 -12 -20 -12 -30 0 -24 85 -10 94 16 7 22 -62 34 -82 14z"/> <path d="M4916 8261 c-73 -17 -140 -38 -148 -46 -8 -8 -35 -15 -60 -15 -25 0 -52 -10 -60 -23 -9 -15 -5 -18 10 -8 13 8 37 4 53 -10 23 -19 36 -18 59 1 18 15 54 20 90 13 42 -8 73 -2 101 22 22 19 57 40 79 45 114 29 -2 49 -124 21z"/> <path d="M1340 8225 c2 -63 180 -83 180 -20 0 12 -25 15 -59 8 -33 -6 -65 -3 -71 8 -15 22 -50 26 -50 4z"/> <path d="M2210 8220 c-7 -12 -21 -15 -31 -9 -11 6 -19 -2 -19 -19 0 -49 31 -53 77 -11 24 23 43 45 43 50 0 18 -58 9 -70 -11z"/> <path d="M5020 8178 c0 -42 3 -43 48 -26 44 17 40 41 -8 54 -30 8 -40 0 -40 -28z"/> <path d="M1808 8152 c-6 -15 -50 -39 -99 -52 -49 -14 -89 -32 -89 -40 0 -12 131 -12 160 0 14 6 46 13 75 17 36 4 31 76 -6 91 -17 6 -35 -1 -41 -16z"/> <path d="M2947 8152 c-132 -28 -161 -53 -33 -29 53 11 112 20 131 22 19 2 35 11 35 19 0 9 -7 15 -15 13 -8 -1 -62 -13 -118 -25z"/> <path d="M1330 8121 c8 -13 33 -31 57 -40 41 -16 41 -18 -15 -39 -89 -35 -52 -44 74 -18 105 22 110 26 78 57 -31 30 -36 30 -61 1 -24 -29 -25 -29 -17 0 6 17 0 31 -13 32 -13 0 -44 7 -71 15 -34 11 -43 9 -32 -8z"/> <path d="M5001 8101 l-50 -13 44 -31 c25 -17 39 -37 32 -44 -8 -7 10 -13 40 -13 29 0 53 -8 53 -18 0 -9 22 -22 49 -27 28 -5 45 -2 40 7 -5 8 -2 20 8 26 10 7 23 -7 29 -30 7 -24 21 -36 33 -29 12 8 17 21 11 31 -6 9 5 21 25 26 24 7 20 10 -15 12 -40 2 -44 7 -20 22 24 16 21 19 -15 20 -28 0 -45 12 -45 32 0 27 -5 28 -30 8 -16 -14 -30 -36 -30 -51 0 -15 -15 -21 -39 -15 -21 5 -34 21 -29 35 15 37 -36 66 -91 52z"/> <path d="M4591 8022 c-22 -35 12 -78 60 -75 l49 3 -43 32 c-33 25 -37 35 -15 44 21 8 19 11 -6 12 -18 1 -39 -6 -45 -16z"/> <path d="M4680 8020 c0 -11 19 -20 41 -20 85 0 36 -69 -54 -76 -75 -6 -83 -1 -98 50 -12 45 -17 49 -24 18 -7 -30 -13 -32 -27 -10 -12 20 -17 21 -18 3 0 -14 -13 -25 -30 -25 -38 0 -38 -58 0 -108 26 -34 30 -35 42 -5 15 41 80 43 95 3 7 -16 2 -30 -11 -30 -12 0 -17 -6 -10 -13 7 -7 25 -2 40 10 15 12 31 20 36 18 5 -3 -5 7 -22 22 -26 24 -24 25 13 14 25 -7 50 -3 58 11 11 17 23 14 42 -13 15 -20 27 -28 27 -18 0 11 19 31 42 46 23 14 36 16 29 4 -7 -11 0 -21 16 -21 16 0 34 -11 40 -25 6 -15 15 -9 23 18 8 23 33 52 57 63 41 20 41 21 -12 23 -34 0 -55 12 -55 30 0 22 -19 26 -78 19 -44 -5 -85 0 -92 11 -16 27 -70 27 -70 1z"/> <path d="M1694 7993 c6 -10 -17 -11 -51 -4 -50 11 -63 8 -63 -18 0 -38 112 -26 200 21 49 26 49 27 -23 22 -40 -2 -68 -12 -63 -21z"/> <path d="M3995 8008 c50 -23 23 -45 -35 -28 -36 10 -60 10 -60 -1 0 -11 14 -19 30 -19 17 0 30 -12 30 -27 0 -19 -17 -24 -55 -18 -40 7 -49 4 -34 -12 48 -52 187 -40 180 16 -3 28 -2 40 3 26 11 -31 46 -33 46 -3 0 14 19 18 49 10 27 -7 53 -5 58 4 6 8 -19 15 -53 15 -35 -1 -68 5 -74 11 -5 7 -32 18 -60 25 -27 7 -39 7 -25 1z"/> <path d="M6260 7956 c0 -18 -1 -17 105 -25 41 -3 70 1 65 9 -13 21 -170 35 -170 16z"/> <path d="M2749 7910 c-37 -29 -36 -30 21 -18 75 16 113 48 58 48 -22 0 -58 -14 -79 -30z"/> <path d="M4305 7895 c5 -14 27 -25 51 -26 23 0 48 -7 56 -15 8 -8 0 -14 -19 -14 -18 0 -33 -9 -33 -21 0 -14 14 -13 41 2 56 29 38 70 -29 65 -29 -2 -48 5 -41 15 6 11 1 19 -11 19 -13 0 -20 -11 -15 -25z"/> <path d="M4101 7856 c-45 -47 -41 -68 9 -49 18 7 27 22 20 33 -7 11 2 20 19 20 17 0 31 9 31 20 0 33 -36 23 -79 -24z"/> <path d="M2368 7848 c7 -17 12 -49 12 -70 0 -47 90 -52 149 -7 30 23 42 24 57 4 12 -17 14 -13 6 12 -7 20 -12 44 -12 54 0 25 -65 0 -94 -36 -20 -25 -26 -22 -37 23 -9 34 -27 52 -53 52 -29 0 -37 -9 -28 -32z"/> <path d="M1547 7811 c6 -17 2 -35 -9 -42 -22 -14 -66 -110 -61 -134 2 -8 -13 -16 -32 -18 -19 -1 -5 -8 31 -15 36 -6 65 -21 63 -32 -1 -11 -14 -18 -29 -14 -15 3 -33 -4 -40 -15 -7 -13 16 -21 60 -21 40 0 67 8 61 19 -6 10 -3 24 9 31 11 7 20 21 20 32 0 11 -9 15 -20 8 -32 -20 -102 10 -86 36 8 13 15 39 17 58 1 20 17 52 36 72 32 36 27 64 -12 64 -11 0 -14 -13 -8 -29z"/> <path d="M2187 7820 c-58 -23 -78 -60 -33 -60 30 -1 31 -4 7 -19 -17 -10 -22 -26 -13 -35 9 -9 30 4 47 29 17 26 52 46 82 47 34 2 41 6 18 12 -19 5 -35 17 -35 27 0 23 -16 22 -73 -1z"/> <path d="M2964 7733 c-48 -10 -115 -46 -150 -78 -67 -63 -204 -114 -305 -115 -150 0 -447 -104 -535 -187 -13 -13 -65 -56 -114 -96 -50 -39 -124 -105 -166 -145 -42 -39 -85 -72 -95 -72 -11 0 -19 -11 -19 -25 0 -27 -92 -135 -116 -135 -8 0 -16 -47 -17 -105 -2 -58 -5 -125 -6 -150 -1 -25 -10 -45 -21 -45 -11 0 -20 -18 -20 -40 0 -22 9 -40 20 -40 11 0 20 14 20 30 0 17 9 30 20 30 11 0 20 23 20 50 0 28 9 50 20 50 11 0 20 -13 20 -30 0 -36 40 -41 41 -5 0 14 13 8 30 -14 25 -33 29 -34 29 -5 0 22 10 29 33 20 23 -9 29 -5 19 11 -8 12 -27 23 -43 23 -16 0 -29 7 -29 16 0 9 32 12 70 8 59 -7 70 -16 70 -57 0 -27 8 -44 18 -38 56 34 -48 141 -113 116 -14 -5 -25 2 -25 15 0 17 21 22 68 14 69 -11 69 -11 58 56 -8 53 -2 71 31 88 34 19 38 31 23 72 -15 38 -13 50 9 50 15 0 31 7 36 15 5 8 6 4 2 -10 -10 -42 29 -28 43 15 7 22 30 40 51 40 22 0 39 9 39 20 0 11 16 21 35 21 33 2 33 3 0 16 -26 10 -12 19 55 35 49 11 90 13 90 4 0 -44 91 -50 126 -9 36 41 35 43 -5 61 -48 21 -56 57 -9 38 18 -6 39 0 48 15 19 30 160 47 160 18 0 -10 9 -19 20 -19 36 0 -40 95 -85 107 -24 6 -37 17 -30 25 15 15 135 -29 135 -49 1 -35 37 -63 66 -52 19 7 29 21 23 31 -23 37 50 17 76 -21 25 -35 34 -37 103 -13 42 15 101 23 132 20 36 -4 60 4 67 23 13 32 93 40 93 9 0 -11 -11 -20 -24 -20 -13 0 -7 -12 14 -28 21 -15 50 -23 64 -18 14 6 26 1 26 -11 0 -11 -18 -26 -40 -33 -22 -7 -40 -26 -40 -41 0 -55 42 -29 96 60 48 80 86 103 149 93 8 -1 15 8 15 20 0 13 -15 17 -35 9 -29 -11 -30 -9 -9 13 14 14 50 26 80 27 33 0 54 12 55 30 0 16 13 26 27 23 18 -4 23 6 14 30 -12 34 -11 34 15 1 26 -34 29 -33 41 10 10 37 15 40 32 15 13 -20 19 -22 20 -5 0 41 100 31 100 -10 1 -29 4 -30 19 -6 10 16 13 38 6 48 -6 11 2 15 20 8 18 -7 36 -1 42 14 9 25 -63 51 -139 51 -35 0 -37 -34 -3 -46 14 -5 1 -6 -29 -2 -35 4 -61 -5 -73 -25 -10 -19 -22 -24 -30 -12 -15 25 116 129 138 109 8 -8 9 3 1 25 -14 38 -13 38 31 0 39 -35 42 -35 31 -4 -8 23 -3 35 15 35 16 0 35 10 42 22 19 31 -173 -1 -207 -35 -15 -15 -37 -27 -50 -27 -13 0 -51 -14 -84 -32 -33 -17 -78 -36 -100 -41 -238 -56 -728 -128 -758 -111 -30 17 53 52 158 66 112 16 344 72 375 91 12 7 58 16 103 20 45 4 116 22 157 40 86 38 89 59 4 27 -36 -14 -60 -15 -68 -2 -18 29 -127 44 -143 19 -8 -14 -26 -15 -50 -3 -24 12 -71 11 -124 -1z m-1255 -935 c-7 -10 -20 -13 -30 -7 -11 6 -19 2 -19 -10 0 -11 -9 -21 -20 -21 -29 0 -25 55 5 65 35 13 77 -6 64 -27z"/> <path d="M5117 7681 c-26 -22 -36 -40 -22 -40 14 -1 25 -11 25 -22 0 -12 -9 -16 -20 -9 -11 7 -20 3 -20 -8 0 -11 17 -18 37 -17 26 2 35 15 28 44 -6 29 -3 33 10 15 23 -32 76 21 56 55 -19 30 -40 26 -94 -18z"/> <path d="M2029 7658 c-7 -12 -35 -16 -61 -9 -34 8 -48 3 -48 -16 0 -23 18 -25 95 -8 111 23 158 55 80 55 -29 0 -59 -10 -66 -22z"/> <path d="M4064 7639 c-20 -32 -18 -36 10 -25 25 10 30 5 20 -21 -7 -18 -4 -33 7 -33 23 0 26 93 3 108 -9 5 -27 -8 -40 -29z"/> <path d="M4168 7658 c-26 -10 -29 -16 -8 -17 26 -1 27 -4 0 -20 -23 -15 -20 -19 14 -16 24 2 39 10 33 19 -5 9 9 16 32 16 22 0 41 -10 41 -21 0 -12 10 -15 22 -8 57 35 -60 76 -134 47z"/> <path d="M4344 7636 c-59 -59 -20 -95 49 -47 23 16 49 23 59 15 9 -8 5 2 -10 21 -31 41 -64 45 -98 11z"/> <path d="M5038 7560 c-1 -38 -1 -81 1 -95 4 -35 -14 -31 -64 15 -36 34 -37 40 -9 40 19 0 34 4 34 8 0 5 6 25 13 45 11 34 10 34 -17 -1 -17 -21 -39 -32 -50 -26 -11 7 -38 -6 -58 -30 -37 -42 -37 -43 1 -29 28 11 50 0 81 -39 52 -66 90 -50 90 38 1 49 5 57 20 34 30 -47 22 4 -10 60 l-29 50 -3 -70z"/> <path d="M3800 7523 c0 -36 -8 -44 -33 -35 -27 11 -28 8 -9 -16 19 -23 17 -31 -12 -39 -24 -7 -20 -9 12 -7 53 4 89 71 60 116 -13 21 -17 16 -18 -19z"/> <path d="M4450 7545 c-11 -8 -21 -42 -22 -75 l-2 -60 87 40 c96 44 114 85 37 85 -36 0 -50 -11 -50 -37 0 -21 -8 -38 -17 -38 -10 0 -15 23 -12 50 3 28 4 50 2 50 -2 0 -12 -7 -23 -15z"/> <path d="M5696 7434 c-8 -43 -4 -54 18 -45 21 8 25 0 16 -29 -8 -24 -4 -40 10 -40 12 0 16 -10 9 -21 -7 -12 6 -27 29 -33 23 -6 42 -17 42 -26 0 -22 106 -19 134 4 39 32 101 -25 95 -86 -5 -44 2 -53 43 -53 27 0 65 -13 84 -30 19 -16 47 -25 62 -20 17 6 22 1 14 -12 -8 -13 -5 -23 7 -23 31 0 26 32 -21 124 -26 50 -34 86 -21 94 41 25 -28 84 -78 66 -39 -15 -41 -19 -11 -30 19 -8 29 -23 22 -34 -7 -11 -2 -20 10 -20 12 0 17 -8 11 -18 -18 -30 -91 0 -91 38 0 39 -132 69 -171 38 -37 -29 -81 14 -50 50 22 27 21 32 -5 32 -17 0 -35 -11 -41 -25 -18 -44 -48 22 -37 80 8 41 3 49 -22 39 -17 -6 -35 -1 -39 12 -5 13 -13 -1 -19 -32z"/> <path d="M4780 7419 c0 -11 -11 -19 -25 -18 -52 7 -95 -2 -95 -19 0 -10 17 -14 37 -9 38 10 68 -41 68 -116 0 -20 11 -29 28 -23 31 12 36 38 10 54 -10 6 -15 43 -12 81 3 39 2 71 -3 71 -4 0 -8 -9 -8 -21z"/> <path d="M5158 7415 c-2 -14 -1 -34 1 -44 2 -10 -8 -40 -21 -65 -22 -40 -20 -52 10 -82 28 -27 33 -28 28 -4 -4 20 13 32 49 36 31 4 50 15 44 25 -6 11 -3 19 7 19 34 0 39 72 9 112 -26 32 -29 33 -18 3 8 -26 1 -35 -28 -35 -21 0 -39 13 -39 30 0 36 -39 41 -42 5z"/> <path d="M4576 7334 c-14 -13 -51 -37 -81 -52 -48 -25 -59 -45 -54 -94 1 -6 -15 -24 -35 -39 -20 -15 -31 -29 -26 -30 109 -23 125 -14 98 57 l-21 54 42 -45 c24 -25 53 -45 65 -45 13 0 3 21 -21 46 -52 57 -55 81 -7 65 25 -8 42 3 56 34 11 25 17 32 14 17 -6 -23 -1 -23 24 -2 37 31 37 33 1 47 -17 6 -41 0 -55 -13z"/> <path d="M1445 7259 c20 -78 21 -79 44 -35 20 37 19 53 -5 81 -48 56 -61 41 -39 -46z"/> <path d="M3782 7275 c2 -60 3 -61 16 -15 9 34 19 42 29 25 8 -14 31 -25 49 -25 27 1 23 9 -16 40 -69 54 -80 50 -78 -25z"/> <path d="M4042 7306 c-1 -24 -18 -53 -37 -64 -31 -19 -31 -21 9 -21 54 -1 64 15 45 79 -14 46 -15 47 -17 6z"/> <path d="M4218 7290 c-2 -5 -4 -17 -6 -25 -1 -8 -9 -25 -17 -38 -8 -13 -2 -28 14 -34 20 -8 25 -1 17 21 -9 21 -5 28 10 18 34 -21 165 -27 176 -8 6 9 -21 16 -59 16 -85 0 -137 18 -122 42 6 10 6 18 0 18 -6 0 -12 -4 -13 -10z"/> <path d="M4087 7235 c-30 -47 -23 -75 17 -75 33 0 36 6 18 28 -18 22 -18 30 1 36 18 6 19 13 2 23 -12 7 -29 2 -38 -12z"/> <path d="M2884 7216 c-13 -13 -24 -36 -24 -50 0 -14 -11 -24 -25 -21 -15 3 -24 -21 -25 -69 0 -40 -9 -81 -18 -90 -10 -9 -13 3 -7 29 6 25 3 45 -7 45 -10 0 -16 7 -13 15 3 8 -4 18 -15 21 -11 3 -23 -10 -27 -30 -4 -20 -16 -47 -28 -61 -24 -30 -35 -187 -11 -173 18 12 22 -19 4 -37 -20 -20 -69 7 -55 30 8 13 4 15 -10 7 -13 -8 -18 -23 -12 -34 6 -10 -3 -32 -20 -50 -35 -35 -41 -68 -11 -68 11 0 20 -9 20 -20 0 -11 -13 -20 -30 -20 -16 0 -30 -12 -30 -26 0 -15 -14 -44 -31 -65 -18 -22 -25 -26 -17 -11 8 17 6 23 -6 15 -28 -17 -46 -90 -26 -103 9 -6 30 3 47 20 17 17 35 22 42 12 6 -10 -4 -23 -21 -30 -26 -10 -28 -18 -8 -42 14 -17 17 -30 7 -31 -9 0 -1 -9 18 -21 20 -11 31 -28 25 -38 -6 -10 8 -28 31 -41 24 -12 37 -34 31 -51 -17 -43 24 -33 48 12 17 31 16 39 -4 35 -16 -3 -26 15 -25 48 1 39 -7 50 -30 41 -24 -8 -23 -2 6 31 36 41 29 97 -8 74 -11 -6 -19 7 -19 29 0 35 7 38 48 23 59 -22 83 -4 39 29 -28 20 -24 24 29 26 49 1 59 -5 49 -32 -11 -29 -9 -29 19 -3 18 16 24 32 14 36 -30 11 -20 43 13 43 39 0 30 65 -11 84 -24 11 -21 16 13 27 34 10 41 24 34 71 -6 39 -1 58 17 58 17 0 28 34 32 102 4 78 0 98 -20 87 -21 -12 -21 -9 -1 12 29 32 85 43 85 17 0 -10 -8 -18 -17 -18 -28 0 -21 -97 8 -120 19 -17 24 -8 21 40 -2 34 6 70 18 80 12 10 23 52 26 94 4 73 3 74 -23 29 -25 -44 -28 -45 -41 -11 -12 32 -17 33 -34 7 -16 -22 -18 -18 -8 16 14 51 9 56 -26 21z m-37 -286 c-6 -16 -20 -30 -30 -30 -11 0 -14 -9 -7 -20 7 -11 2 -20 -10 -20 -14 0 -18 -16 -10 -40 9 -30 5 -37 -17 -28 -37 14 -58 91 -31 118 14 14 16 7 5 -20 -13 -36 -11 -37 19 -13 19 16 34 40 34 55 0 16 13 28 29 28 18 0 25 -12 18 -30z"/> <path d="M5380 7221 c0 -11 10 -21 22 -21 12 0 17 -13 11 -30 -7 -19 0 -30 19 -30 43 0 28 88 -17 96 -19 4 -35 -3 -35 -15z"/> <path d="M5295 7205 c-22 -5 -35 -27 -35 -59 0 -41 -8 -49 -40 -40 -24 6 -40 0 -40 -15 0 -16 18 -22 50 -16 28 5 50 19 50 31 0 11 15 37 33 58 38 41 33 52 -18 41z"/> <path d="M2438 7135 c-16 -16 -42 -34 -58 -40 -24 -9 -23 -12 5 -13 19 -1 35 -13 36 -27 0 -14 12 -4 27 23 17 30 31 39 40 25 8 -12 4 -40 -7 -61 -21 -39 43 -85 74 -54 6 7 1 12 -12 12 -12 0 -23 7 -23 16 0 15 40 22 130 25 31 1 34 4 11 19 -16 9 -36 13 -45 8 -9 -6 -16 3 -16 18 0 16 -16 41 -35 56 -29 22 -31 22 -12 0 13 -15 19 -39 13 -55 -8 -21 -22 -15 -55 24 -39 45 -49 48 -73 24z"/> <path d="M5632 7143 c-6 -10 -35 -13 -64 -8 -46 9 -51 5 -39 -32 10 -30 5 -43 -15 -43 -16 0 -40 -13 -53 -29 -21 -25 -15 -25 36 -6 74 28 193 -12 142 -48 -25 -17 -25 -19 1 -12 18 5 27 26 24 52 -4 24 2 43 13 43 10 0 24 14 31 31 9 25 2 29 -31 18 -34 -11 -41 -7 -31 19 13 34 4 44 -14 15z"/> <path d="M6440 7110 c25 -30 24 -33 -11 -30 -78 9 -107 -1 -119 -40 -7 -22 -24 -40 -37 -40 -13 0 -24 -18 -24 -40 0 -49 8 -50 45 -5 16 19 22 22 14 6 -21 -40 -28 -263 -8 -251 9 6 21 -1 27 -15 6 -16 10 -13 11 8 1 19 -9 38 -23 44 -15 6 -8 15 19 24 43 13 43 14 6 54 -51 55 -13 93 81 80 l69 -10 -48 42 -48 43 48 0 c38 1 42 5 18 20 -24 16 -22 19 13 20 57 0 35 106 -24 117 -33 7 -35 4 -9 -27z"/> <path d="M4614 7061 c8 -32 2 -36 -35 -27 -30 8 -54 0 -71 -24 -21 -29 -33 -31 -56 -12 -16 14 -33 16 -40 6 -16 -26 56 -104 95 -104 39 0 44 32 8 47 -14 5 -5 11 19 11 24 1 49 11 56 22 7 12 21 15 31 9 11 -6 19 16 19 50 0 33 -8 61 -18 61 -10 0 -14 -17 -8 -39z"/> <path d="M3740 7041 c-12 -23 -31 -37 -41 -30 -11 6 -33 -3 -51 -20 -23 -23 -24 -31 -4 -31 19 -1 18 -6 -4 -20 -25 -16 -24 -19 7 -20 24 0 33 10 26 28 -7 20 12 34 63 46 41 10 74 30 74 45 0 45 -46 47 -70 2z"/> <path d="M5720 7009 c0 -19 9 -26 23 -17 16 10 19 3 10 -22 -11 -28 -8 -31 13 -13 34 28 55 10 39 -32 -8 -21 -4 -27 12 -17 27 17 11 93 -25 117 -37 24 -72 17 -72 -16z"/> <path d="M4131 6984 c-23 -23 -10 -48 19 -37 17 7 54 3 83 -8 61 -23 94 -3 66 41 -17 27 -21 27 -39 0 -11 -16 -20 -20 -20 -7 0 22 -89 32 -109 11z"/> <path d="M4715 6966 c-40 -10 -43 -23 -15 -66 18 -27 22 -27 40 0 17 26 28 84 15 78 -3 -2 -21 -7 -40 -12z"/> <path d="M4898 6975 c-17 -39 -7 -135 14 -143 16 -6 28 -2 28 9 0 10 -9 19 -21 19 -13 0 -13 14 2 42 18 34 18 40 -2 27 -18 -11 -22 -6 -13 18 10 25 2 52 -8 28z"/> <path d="M1870 6928 c22 -16 60 -35 84 -41 26 -6 42 -25 41 -46 -3 -40 -68 -43 -155 -7 -55 23 -88 -24 -39 -55 14 -8 20 -34 14 -57 -10 -35 -6 -38 27 -21 21 11 38 34 38 50 0 20 22 29 71 29 47 0 67 -8 58 -22 -20 -32 71 -2 119 39 36 31 38 31 28 -9 -9 -35 -2 -43 37 -43 43 0 44 3 14 25 -30 22 -28 25 20 37 50 13 77 73 33 73 -11 0 -20 -15 -20 -32 0 -24 -12 -29 -45 -21 -25 7 -56 13 -69 13 -15 0 -20 14 -12 33 9 24 5 29 -12 18 -14 -9 -21 -32 -16 -52 8 -29 -20 -59 -55 -59 -2 0 -3 32 0 72 4 66 1 71 -43 63 -26 -5 -64 3 -83 17 -19 15 -44 27 -55 27 -11 0 -2 -14 20 -31z"/> <path d="M3865 6930 c-64 -34 -70 -43 -30 -44 42 0 115 46 91 59 -9 5 -36 -2 -61 -15z"/> <path d="M4304 6907 c-26 -30 -57 -46 -74 -40 -17 7 -30 3 -30 -8 0 -31 80 -22 93 11 6 16 18 25 27 20 9 -5 21 5 28 23 20 51 6 49 -44 -6z"/> <path d="M4052 6908 c-7 -17 -12 -49 -12 -70 0 -21 -13 -38 -30 -38 -16 0 -30 -10 -30 -22 0 -13 18 -18 40 -12 22 6 40 2 40 -8 0 -10 15 -18 32 -18 27 0 28 5 8 30 -20 24 -20 30 1 30 16 0 12 15 -13 43 -27 31 -31 45 -13 52 29 10 34 45 7 45 -10 0 -23 -14 -30 -32z"/> <path d="M3709 6899 c-6 -11 -20 -15 -29 -9 -9 6 -23 2 -29 -8 -6 -11 -2 -25 9 -32 11 -7 15 -21 9 -31 -6 -11 8 -19 32 -19 33 0 41 9 34 39 -7 27 -2 35 17 27 16 -5 28 -1 28 10 0 28 -56 46 -71 23z"/> <path d="M3495 6820 c-35 -40 -34 -41 32 -34 90 10 127 33 90 56 -41 26 -57 22 -44 -12 6 -16 2 -30 -9 -30 -12 0 -24 14 -28 31 -5 25 -12 23 -41 -11z"/> <path d="M4685 6812 c-3 -27 9 -53 26 -60 24 -9 26 -4 9 28 -18 33 -15 40 14 40 31 1 32 4 6 20 -44 28 -51 25 -55 -28z"/> <path d="M5372 6774 c-51 -22 -54 -28 -25 -52 28 -23 33 -22 33 6 0 17 14 32 30 32 17 0 30 9 30 20 0 24 4 24 -68 -6z"/> <path d="M5676 6767 c27 -48 6 -114 -27 -86 -18 15 -30 14 -40 -2 -8 -13 -3 -30 10 -38 35 -22 3 -124 -42 -136 -28 -7 -35 -22 -26 -52 7 -28 5 -34 -6 -18 -14 20 -26 18 -56 -7 -32 -25 -33 -29 -5 -21 24 8 43 -8 65 -51 34 -68 39 -97 16 -94 -59 10 -95 -5 -55 -22 38 -16 38 -17 -5 -19 -25 0 -45 -11 -45 -22 0 -12 10 -15 23 -7 16 10 20 1 12 -29 -6 -24 -3 -48 7 -54 10 -6 18 7 18 30 0 27 13 41 38 41 21 0 55 6 75 13 34 11 34 10 -2 -18 -34 -26 -35 -36 -12 -92 28 -68 45 -77 75 -38 38 48 48 100 18 89 -19 -8 -24 0 -17 27 5 22 17 39 25 39 9 0 11 19 5 42 -8 33 -23 40 -68 33 -42 -6 -57 0 -59 23 -1 18 -4 52 -6 77 -5 43 40 61 116 46 10 -2 25 7 33 20 9 16 18 16 27 3 7 -12 -8 -27 -33 -35 -25 -8 -52 -24 -60 -37 -10 -15 -22 -13 -37 8 -18 25 -20 24 -10 -7 7 -20 12 -40 12 -45 0 -4 14 -8 30 -8 17 0 30 13 30 30 0 16 23 35 51 42 38 10 47 22 38 50 -10 31 -1 38 45 38 42 -1 49 -5 27 -19 -68 -43 3 -41 79 1 59 34 86 40 97 23 25 -41 103 -23 81 19 -27 49 -1 45 45 -7 20 -24 37 -33 37 -20 0 13 15 23 32 23 28 0 29 5 6 32 -20 25 -52 30 -132 23 -80 -6 -106 -2 -106 19 0 29 -113 31 -152 2 -34 -25 -81 39 -51 69 33 33 29 64 -5 36 -24 -19 -27 -16 -18 18 8 32 1 41 -32 41 -24 0 -42 13 -42 30 0 17 -9 30 -21 30 -14 0 -15 -12 -3 -33z"/> <path d="M3878 6755 c-2 -14 -1 -33 1 -43 6 -36 -19 -74 -41 -61 -16 10 -16 18 1 28 13 8 -4 16 -38 17 -54 1 -58 -2 -31 -29 16 -16 30 -36 30 -42 0 -7 -11 -2 -24 11 -28 28 -116 32 -116 5 0 -29 47 -51 55 -25 6 17 17 17 45 -1 36 -22 36 -24 0 -55 -55 -48 -59 -109 -6 -116 23 -4 55 -21 70 -39 23 -28 20 -30 -29 -18 -40 10 -54 7 -50 -12 3 -14 -8 -22 -25 -18 -21 4 -19 -5 10 -33 31 -31 45 -34 60 -16 11 14 36 31 56 38 20 8 31 23 24 34 -18 29 36 25 70 -5 16 -14 12 -5 -8 20 -37 43 -37 45 0 58 21 8 50 27 64 41 15 14 44 26 65 26 22 0 39 13 39 28 0 15 15 34 34 41 30 11 31 16 5 32 -25 17 -24 23 6 41 37 21 30 58 -11 58 -16 -1 -15 -6 3 -18 20 -12 10 -22 -35 -38 -34 -12 -62 -31 -62 -43 0 -25 -59 -27 -97 -3 -16 10 -28 42 -28 72 0 30 12 62 28 72 20 13 15 17 -18 18 -25 0 -46 -11 -47 -25z"/> <path d="M4238 6777 c-20 -63 -12 -113 17 -102 21 8 27 4 17 -12 -8 -13 -2 -23 14 -23 16 0 58 -6 93 -13 48 -9 63 -6 60 15 -7 53 1 80 21 68 11 -7 20 -3 20 9 0 11 -10 21 -21 21 -12 0 -15 10 -7 23 8 13 3 19 -14 13 -15 -5 -31 -29 -34 -53 -4 -23 -16 -43 -27 -43 -10 0 -14 9 -8 19 7 10 -6 29 -28 41 -23 12 -41 15 -41 8 0 -7 -13 -2 -30 12 -16 14 -31 22 -32 17z"/> <path d="M1982 6668 c-55 -55 -29 -66 29 -12 22 19 57 33 79 30 40 -6 40 -6 0 13 -53 24 -53 24 -108 -31z"/> <path d="M5101 6604 c0 -47 4 -50 25 -22 13 17 35 29 50 26 14 -3 16 0 4 5 -11 6 -16 17 -12 25 5 7 -8 15 -29 17 -30 2 -39 -10 -38 -51z"/> <path d="M6442 6645 c9 -56 -5 -106 -25 -93 -16 10 -20 4 -11 -19 10 -26 1 -33 -42 -33 -42 -1 -47 -5 -24 -20 27 -17 27 -19 0 -20 -47 -1 -81 -91 -51 -132 23 -31 26 -30 36 9 6 24 23 43 38 43 22 -1 22 -4 1 -17 -35 -22 23 -72 65 -56 17 7 25 1 20 -13 -9 -24 -26 -27 -223 -41 -152 -11 -243 -51 -195 -86 20 -15 27 -27 15 -27 -12 0 -26 -18 -32 -40 -6 -22 -25 -40 -42 -40 -18 0 -32 -9 -32 -20 0 -11 -19 -20 -41 -20 -64 0 -90 -41 -86 -135 2 -58 -5 -85 -23 -85 -27 0 -58 58 -40 76 5 6 10 0 10 -14 0 -13 9 -19 20 -12 41 26 24 93 -19 71 -59 -32 -76 -25 -70 29 3 28 -3 50 -13 50 -10 0 -18 -13 -18 -28 0 -16 -10 -32 -22 -36 -13 -4 1 -29 29 -57 64 -60 65 -72 8 -91 -25 -7 -57 -28 -72 -46 -24 -29 -25 -29 -16 2 6 19 3 40 -8 47 -10 6 -19 2 -19 -10 0 -11 -13 -21 -30 -21 -17 0 -30 -18 -30 -40 0 -22 -9 -40 -19 -40 -11 0 -15 25 -9 56 7 35 1 65 -15 78 -22 18 -27 5 -27 -66 0 -87 1 -89 75 -101 61 -10 75 -21 75 -57 0 -25 13 -51 30 -57 17 -7 24 -25 17 -44 -10 -26 -16 -27 -29 -6 -15 24 -29 -52 -20 -108 1 -8 -14 -15 -33 -16 -33 0 -33 -2 1 -21 29 -17 31 -27 13 -50 -19 -22 -17 -28 10 -28 43 0 87 -43 76 -75 -5 -14 -21 -25 -35 -25 -15 0 -26 -18 -25 -40 2 -22 11 -40 19 -40 9 0 16 -13 16 -30 0 -34 31 -40 51 -9 8 14 21 14 41 -2 26 -22 36 -13 30 26 -1 8 7 15 18 15 19 0 28 -34 25 -95 -1 -30 47 -33 65 -5 7 12 19 17 27 12 30 -18 61 18 43 49 -15 23 -26 24 -57 5 -49 -30 -76 38 -31 76 45 37 33 78 -21 78 -36 0 -47 8 -38 30 6 17 3 30 -7 30 -10 0 -18 49 -18 109 0 109 35 148 124 134 13 -2 18 21 12 57 -6 41 -16 56 -31 44 -13 -9 -50 -11 -83 -4 l-60 12 67 35 c37 20 78 31 93 26 39 -15 53 9 25 44 -21 26 -19 28 10 17 24 -9 35 -3 35 18 0 17 -9 25 -20 18 -11 -7 -20 -3 -20 8 0 27 44 52 81 46 17 -3 43 17 58 44 25 47 157 112 227 112 19 0 34 8 34 18 0 26 -57 43 -71 21 -6 -11 -20 -14 -30 -8 -20 12 87 112 114 107 43 -7 67 5 67 35 0 26 14 30 80 19 61 -9 80 -6 80 15 0 19 -17 24 -55 17 l-55 -10 55 52 c30 29 55 69 55 89 0 21 20 46 45 57 25 11 33 18 19 14 -14 -3 -30 8 -37 23 -7 20 -30 26 -74 20 -50 -8 -55 -6 -23 9 22 11 29 20 15 21 -38 2 -17 83 32 123 26 21 35 40 23 48 -11 7 -20 1 -20 -13 0 -19 -5 -20 -24 -1 -27 27 -57 32 -54 9z"/> <path d="M3577 6575 c-2 -14 -4 -37 -5 -51 -1 -14 -16 -35 -32 -45 -22 -15 -14 -16 27 -7 39 9 63 5 75 -14 14 -22 17 -21 18 7 0 19 9 35 20 35 11 0 20 14 20 30 0 17 -13 30 -30 30 -16 0 -30 9 -30 20 0 29 -59 25 -63 -5z"/> <path d="M3448 6553 c-27 -30 -48 -133 -27 -133 8 0 21 25 30 55 l15 55 15 -50 c15 -49 15 -49 17 -4 1 26 11 41 22 34 11 -7 20 -3 20 9 0 11 -10 21 -21 21 -12 0 -16 9 -9 20 18 29 -36 23 -62 -7z"/> <path d="M4530 6540 c7 -11 3 -20 -9 -20 -34 0 -24 -34 14 -49 19 -7 37 -4 41 8 8 24 44 8 44 -20 0 -11 -14 -19 -30 -19 -23 0 -27 -13 -18 -50 7 -28 4 -50 -7 -50 -11 0 -15 -22 -10 -50 7 -37 1 -50 -24 -50 -41 0 -91 -47 -91 -85 0 -16 13 -28 30 -28 19 0 23 7 11 22 -13 15 -7 22 19 22 20 0 32 -8 25 -19 -6 -11 3 -13 22 -6 18 7 33 4 33 -6 0 -10 14 -14 30 -7 17 6 30 29 30 51 0 28 9 37 30 29 19 -8 30 0 30 21 0 30 3 29 27 -3 15 -21 36 -31 47 -25 34 21 3 121 -52 169 -29 25 -41 45 -27 45 14 0 25 14 25 30 0 19 -19 30 -50 30 -27 0 -50 8 -50 17 0 9 -23 27 -51 40 -30 13 -46 15 -39 3z"/> <path d="M2949 6439 c-6 -10 2 -19 18 -19 19 0 26 -13 19 -40 -6 -22 -20 -40 -32 -40 -14 0 -13 -9 3 -25 20 -20 29 -18 45 10 11 19 32 35 46 35 14 0 25 14 25 31 0 21 -6 24 -20 10 -30 -30 -54 -26 -41 6 12 32 -45 61 -63 32z"/> <path d="M6634 6383 c-40 -16 -99 -118 -76 -132 8 -5 11 -37 6 -70 -10 -74 19 -80 56 -11 24 45 23 54 -11 82 -34 27 -34 30 -4 20 25 -8 35 0 35 29 0 21 8 39 18 39 10 0 23 14 29 30 13 32 3 35 -53 13z"/> <path d="M3973 6330 c-17 -16 -49 -30 -72 -30 -22 0 -41 -10 -41 -22 0 -12 -13 -17 -29 -11 -21 8 -25 1 -17 -23 22 -61 31 -69 48 -41 12 20 22 21 40 3 30 -30 6 -93 -30 -80 -19 8 -25 -2 -20 -32 6 -30 1 -26 -13 11 -12 30 -31 55 -42 55 -11 0 -14 -8 -8 -18 6 -10 -23 -22 -64 -28 -86 -11 -113 -19 -191 -51 -31 -13 -79 -23 -106 -23 -27 0 -82 -13 -121 -30 -40 -16 -75 -30 -79 -30 -5 0 -8 14 -8 30 0 16 7 29 15 27 8 -2 38 7 65 19 36 15 40 22 15 23 -19 0 -35 15 -35 33 0 17 -10 28 -21 24 -12 -4 -19 -13 -15 -21 3 -7 -9 -25 -27 -39 -18 -14 -37 -53 -44 -86 -6 -33 -6 -48 0 -34 8 20 17 20 39 2 35 -28 36 -72 3 -84 -15 -5 -18 -16 -7 -26 10 -11 21 -7 26 7 5 14 19 19 31 12 14 -9 17 -2 9 19 -7 20 -3 29 12 23 44 -16 89 27 54 52 -23 15 -17 17 23 8 29 -7 87 -3 128 9 54 15 84 14 102 0 27 -23 231 -11 273 16 62 39 194 -34 194 -107 0 -27 -8 -44 -18 -38 -9 6 -28 -2 -41 -18 -27 -32 -88 -19 -68 14 8 13 3 15 -11 6 -14 -8 -20 -28 -14 -43 6 -15 2 -28 -9 -28 -10 0 -17 -11 -14 -25 3 -14 -8 -25 -25 -25 -19 0 -30 20 -31 54 0 30 -5 58 -10 62 -72 57 -159 94 -159 66 0 -17 -23 -37 -51 -44 -42 -11 -89 -60 -89 -94 0 -5 54 10 120 32 91 32 126 36 143 19 18 -18 17 -26 -5 -32 -162 -47 -198 -63 -192 -81 4 -12 22 -22 40 -22 18 0 53 -17 77 -38 77 -66 177 -63 251 8 36 34 67 59 70 56 4 -3 29 11 56 32 29 21 35 32 15 25 -47 -16 -44 -3 9 46 38 36 39 41 9 41 -20 0 -30 9 -22 21 7 11 2 33 -10 48 -26 31 5 62 39 41 11 -7 21 -1 22 14 1 14 13 -1 27 -33 15 -33 56 -75 92 -94 64 -35 111 -32 88 4 -6 11 -2 19 10 19 11 0 21 14 21 31 0 17 -9 26 -20 19 -11 -7 -20 10 -20 39 0 45 5 49 37 28 21 -13 37 -38 35 -55 -1 -22 12 -30 45 -27 35 4 44 -3 36 -25 -12 -30 9 -41 32 -18 20 20 -7 68 -39 68 -24 0 -24 5 3 31 35 36 41 58 11 39 -11 -7 -35 2 -53 21 -23 22 -26 37 -12 46 13 8 3 23 -27 36 -36 18 -45 18 -34 0 10 -16 5 -16 -16 1 -24 19 -35 16 -55 -17 -14 -23 -17 -36 -6 -29 11 7 26 4 33 -8 7 -11 -1 -20 -18 -20 -16 0 -36 11 -45 25 -22 36 -23 95 -2 82 11 -7 16 5 12 25 -9 47 -77 64 -77 19 0 -17 -13 -31 -30 -31 -38 0 -38 20 1 76 18 25 40 39 50 33 11 -6 19 7 19 30 0 22 -9 41 -20 41 -11 0 -20 -9 -20 -20 0 -31 -134 -23 -167 10 -27 27 -33 27 -60 0z m51 -269 c33 -31 50 -35 81 -19 21 12 42 18 47 13 31 -31 -95 -59 -128 -28 -21 18 -48 33 -61 33 -12 0 -23 9 -23 20 0 32 38 23 84 -19z"/> <path d="M2738 6255 c-1 -3 -5 -54 -10 -115 -11 -164 -14 -180 -40 -180 -25 0 -53 -49 -59 -104 -3 -27 11 -32 69 -27 40 4 84 8 98 9 33 3 64 86 42 114 -10 12 -11 29 -3 37 8 9 -5 10 -30 2 -44 -13 -58 6 -45 59 3 11 3 52 1 90 -3 39 -6 81 -6 95 -2 22 -11 34 -17 20z"/> <path d="M3434 6193 c-13 -34 38 -62 57 -32 6 11 21 14 33 7 12 -8 17 -2 12 14 -13 39 -88 47 -102 11z"/> <path d="M5211 6169 c-33 -28 -45 -49 -29 -49 40 1 127 72 104 86 -10 6 -44 -10 -75 -37z"/> <path d="M1486 6075 c5 -31 1 -61 -9 -67 -21 -13 -23 -48 -2 -48 38 1 61 98 31 134 -26 33 -28 32 -20 -19z"/> <path d="M5784 6086 c19 -5 29 -21 23 -36 -7 -19 2 -24 31 -16 74 19 30 70 -55 64 -30 -2 -30 -3 1 -12z"/> <path d="M4650 5999 c9 -27 5 -38 -13 -35 -17 4 -25 -9 -21 -34 4 -22 9 -53 11 -70 13 -79 79 -146 107 -108 34 46 33 75 -1 62 -14 -6 -26 2 -26 18 0 15 8 28 18 28 11 0 14 14 8 30 -7 17 -4 30 6 30 9 0 13 18 7 40 -6 23 -27 40 -50 40 -21 0 -33 9 -26 20 7 11 2 20 -10 20 -14 0 -18 -16 -10 -41z"/> <path d="M6339 5910 c-118 -24 -199 -66 -199 -103 0 -35 39 -42 129 -24 133 25 171 21 171 -19 0 -56 -184 -99 -246 -58 -50 32 -158 -7 -169 -61 -6 -31 20 -32 50 -2 24 24 27 18 57 -79 4 -14 -4 -24 -17 -22 -56 7 -77 -4 -93 -47 -20 -53 7 -98 50 -82 16 7 41 1 56 -11 21 -18 30 -16 39 6 7 20 39 29 96 28 124 -1 52 -48 -103 -66 -78 -9 -121 -24 -129 -45 -19 -50 3 -54 154 -28 176 30 230 62 230 136 0 30 10 59 23 63 12 4 22 40 22 81 0 67 7 77 80 108 106 46 127 44 171 -14 20 -27 44 -44 53 -39 9 6 30 -4 48 -21 28 -28 26 -33 -26 -55 -53 -22 -54 -24 -11 -31 25 -4 45 -14 45 -22 0 -22 -107 -79 -132 -70 -12 5 -55 -29 -95 -75 -40 -46 -73 -75 -74 -66 0 10 -12 3 -26 -16 -15 -19 -89 -47 -174 -66 -82 -17 -165 -40 -184 -51 -19 -10 -50 -19 -68 -19 -72 0 -7 -21 95 -32 221 -22 279 -21 301 5 16 20 16 27 -1 27 -12 0 -22 -10 -22 -21 0 -12 -9 -16 -19 -10 -46 29 86 134 144 116 8 -3 15 13 15 35 0 48 31 53 48 8 20 -51 14 -112 -9 -97 -12 7 -27 -6 -33 -29 -11 -42 -46 -59 -46 -22 0 11 -9 20 -20 20 -11 0 -20 -13 -20 -30 0 -16 13 -30 29 -30 16 0 34 -9 41 -20 18 -29 -94 -179 -134 -180 -41 0 -72 -45 -40 -55 13 -5 24 -18 24 -29 0 -11 -15 -15 -33 -8 -18 7 -54 -1 -80 -18 -40 -26 -47 -27 -47 -2 0 16 25 38 55 49 46 17 48 20 13 21 -62 3 -121 -69 -88 -108 20 -25 19 -30 -8 -30 -17 0 -32 -13 -32 -30 0 -16 9 -30 20 -30 11 0 20 -10 20 -22 0 -17 -7 -17 -27 -1 -32 27 -55 10 -39 -29 5 -15 28 -28 50 -28 36 0 36 -3 7 -32 -33 -33 -91 -25 -91 11 0 27 -80 27 -120 1 -32 -21 1 -59 50 -59 11 0 7 8 -9 18 -40 26 -19 42 35 28 24 -6 44 -25 44 -41 0 -17 12 -26 26 -20 16 6 27 -9 30 -39 2 -27 -8 -53 -23 -59 -53 -20 -14 -108 47 -108 48 0 55 6 45 44 -7 25 -16 34 -20 20 -9 -27 -65 -34 -65 -8 0 9 13 34 28 55 17 23 22 48 11 60 -22 26 10 78 38 61 12 -7 16 -27 10 -43 -8 -21 -2 -26 21 -17 24 9 29 4 20 -20 -7 -17 -20 -27 -30 -21 -30 19 -20 -26 13 -60 40 -39 51 -39 36 -1 -6 17 3 35 21 42 17 7 27 20 21 30 -6 9 -2 35 10 56 15 28 14 41 -4 49 -19 8 -19 14 2 29 23 16 23 21 0 30 -20 8 -19 11 5 12 41 2 98 66 98 110 0 19 9 29 20 22 11 -7 20 2 20 19 0 17 10 31 22 31 12 0 18 12 12 27 -6 15 11 50 37 79 28 29 39 54 26 58 -15 5 -12 18 7 37 67 67 128 249 91 272 -12 7 -15 4 -8 -9 8 -11 5 -27 -7 -34 -11 -7 -20 9 -20 38 0 38 13 55 50 64 41 10 47 21 38 60 -9 34 -4 48 17 48 33 0 75 81 76 146 0 39 2 40 21 9 27 -47 51 -44 64 6 7 27 0 46 -23 54 -47 18 -82 68 -82 120 -1 49 -21 57 -55 23 -15 -15 -39 1 -85 58 -79 99 -195 129 -362 94z m14 -1274 c-34 -54 -53 -21 -28 48 19 56 23 59 35 25 8 -21 5 -54 -7 -73z"/> <path d="M6640 5924 c0 -48 75 -79 106 -43 17 19 25 41 19 47 -17 18 -125 14 -125 -4z"/> <path d="M2043 5896 c-2 -19 -18 -42 -36 -52 -22 -13 -25 -23 -10 -32 13 -8 23 -4 23 8 0 44 35 0 47 -60 7 -33 21 -60 32 -60 13 0 13 17 1 51 -25 64 -25 74 -2 60 10 -6 39 -3 65 8 26 10 35 19 21 20 -15 0 -21 9 -15 20 6 10 3 24 -9 31 -11 7 -20 -2 -20 -19 0 -50 -76 -38 -86 14 -5 28 -10 32 -11 11z"/> <path d="M5138 5877 c-19 -37 -18 -41 10 -31 20 8 32 2 32 -17 0 -16 10 -29 22 -29 12 0 17 14 10 32 -7 17 -12 44 -12 60 0 42 -36 34 -62 -15z"/> <path d="M6923 5845 c-4 -30 -7 -66 -8 -80 -1 -14 -16 -25 -33 -25 -28 -1 -28 -3 -2 -20 21 -14 37 -10 55 14 14 19 25 25 26 15 0 -11 9 -4 20 14 12 22 34 29 62 22 l43 -11 -43 43 c-53 53 -63 54 -63 3 0 -22 -9 -40 -20 -40 -22 0 -18 56 7 95 9 15 5 25 -11 25 -15 0 -30 -25 -33 -55z"/> <path d="M1835 5809 c6 -29 0 -49 -14 -49 -13 0 -18 -9 -11 -20 20 -33 43 -23 81 35 31 48 32 51 2 28 -28 -24 -33 -23 -33 3 0 18 -8 36 -17 42 -10 6 -13 -11 -8 -39z"/> <path d="M2888 5816 c3 -25 16 -80 31 -122 14 -43 21 -99 16 -125 -5 -27 -4 -49 3 -49 7 0 11 -37 9 -82 -6 -99 14 -89 32 17 8 41 23 73 35 71 13 -3 33 24 46 60 19 50 27 57 37 30 11 -27 19 -29 47 -8 31 22 28 28 -23 58 l-57 34 -13 -70 c-19 -105 -62 -88 -62 25 0 60 -8 93 -23 91 -12 -3 -27 9 -34 26 -6 16 -4 25 6 19 10 -6 23 3 30 20 7 19 3 26 -9 18 -11 -7 -33 -2 -49 11 -22 19 -27 14 -22 -24z"/> <path d="M4383 5769 c-14 -30 -15 -49 -3 -49 11 0 20 14 20 30 0 46 39 36 59 -15 10 -25 19 -36 20 -25 1 11 10 7 21 -10 28 -43 24 -60 -10 -47 -34 13 -41 -24 -9 -44 12 -7 17 -25 12 -40 -6 -14 4 -38 22 -53 28 -23 31 -20 20 19 -6 25 -3 50 7 56 10 6 19 -5 20 -25 0 -20 6 -25 11 -12 5 13 25 19 43 13 28 -8 27 -4 -5 21 -21 17 -32 38 -24 45 7 8 24 4 37 -9 17 -17 29 -14 49 12 34 45 34 65 0 52 -21 -8 -25 3 -18 44 8 37 4 50 -12 40 -13 -8 -23 -28 -23 -44 0 -17 -9 -25 -20 -18 -11 7 -20 3 -20 -9 0 -11 -10 -21 -23 -21 -15 0 -12 13 7 35 17 19 30 49 30 66 -1 37 -76 47 -98 13 -11 -18 -23 -19 -53 0 -32 20 -41 16 -60 -25z"/> <path d="M3021 5721 c-25 -46 -27 -81 -5 -81 8 0 25 27 38 60 25 66 -1 83 -33 21z"/> <path d="M7036 5684 c-18 -3 -37 -24 -42 -47 -7 -26 -3 -37 12 -31 16 6 23 -17 22 -68 0 -42 6 -71 15 -66 10 6 17 1 17 -11 0 -11 8 -21 19 -21 10 0 15 18 11 41 -6 31 0 39 26 31 44 -14 88 14 80 50 -4 17 7 26 29 22 46 -8 45 41 -1 82 -32 30 -95 36 -188 18z"/> <path d="M1610 5660 c-7 -11 -3 -36 8 -55 12 -19 21 -26 22 -15 0 11 8 8 18 -7 12 -19 21 -21 31 -5 7 12 3 22 -9 22 -12 0 -16 11 -8 23 10 16 3 20 -21 10 -26 -10 -32 -6 -24 17 13 34 2 41 -17 10z"/> <path d="M3312 5665 c-7 -6 3 -28 21 -48 30 -33 30 -37 0 -49 -18 -7 -27 -21 -20 -32 7 -11 1 -27 -12 -35 -18 -11 -16 -19 7 -28 24 -9 32 1 32 42 0 41 5 48 24 29 33 -33 56 -30 56 6 0 17 -10 30 -21 30 -12 0 -17 7 -11 16 12 21 -60 85 -76 69z"/> <path d="M3637 5623 c23 -20 37 -42 31 -48 -27 -28 123 -111 182 -101 119 22 153 90 38 75 -77 -10 -204 38 -222 84 -6 15 -24 27 -41 27 -24 0 -21 -9 12 -37z"/> <path d="M2640 5592 c0 -27 7 -52 15 -57 8 -5 6 -7 -5 -4 -11 2 -31 -8 -45 -22 -19 -21 -16 -28 15 -33 37 -6 38 -10 10 -63 -16 -31 -25 -65 -19 -75 6 -10 -5 -18 -25 -18 -28 -1 -30 -4 -8 -18 19 -13 23 -34 12 -75 -23 -80 -24 -112 -5 -152 12 -25 8 -35 -15 -35 -18 0 -27 -9 -20 -20 7 -11 -2 -20 -19 -20 -18 0 -38 -14 -44 -31 -11 -27 -17 -27 -59 1 -54 35 -63 27 -19 -16 25 -25 22 -29 -22 -29 -29 0 -57 -9 -64 -19 -22 -32 -80 -45 -90 -20 -5 13 -11 8 -11 -11 -2 -39 -42 -49 -42 -11 0 14 -14 5 -31 -19 -16 -24 -42 -39 -58 -33 -15 6 -34 0 -42 -14 -10 -16 -6 -20 13 -10 15 8 12 2 -7 -14 -19 -16 -35 -39 -35 -51 0 -13 -10 -23 -21 -23 -12 0 -16 -9 -8 -21 8 -14 21 -14 36 -1 13 11 95 38 182 62 422 113 680 268 558 336 -38 22 -54 204 -19 205 12 0 7 9 -11 20 -21 12 -31 39 -27 74 3 30 -4 67 -16 82 -13 16 -14 31 -2 40 21 15 21 85 0 120 -24 39 -52 25 -52 -25z"/> <path d="M3225 5601 c2 -22 15 -44 28 -49 15 -6 21 1 14 19 -8 21 -1 26 26 18 35 -12 35 -10 -2 19 -51 42 -69 40 -66 -7z"/> <path d="M5114 5599 c-7 -26 -1 -33 22 -24 22 8 28 3 19 -18 -6 -17 5 -40 28 -54 35 -22 37 -21 19 13 -12 23 -13 45 -2 56 11 11 -1 27 -29 40 -40 19 -49 17 -57 -13z"/> <path d="M2280 5580 c24 -16 21 -19 -15 -20 -52 0 -58 -30 -15 -73 27 -26 32 -24 50 23 28 74 25 90 -15 90 -30 -1 -31 -3 -5 -20z"/> <path d="M4344 5480 c-2 -90 25 -136 52 -89 22 38 23 38 23 -4 1 -27 -15 -46 -41 -53 -45 -12 -42 -68 3 -58 21 5 21 1 0 -25 -23 -27 -17 -31 42 -32 63 -2 64 -3 22 -23 -46 -23 -61 -56 -25 -56 11 0 20 8 20 18 0 10 18 14 40 8 46 -12 55 31 15 71 -20 21 -19 25 4 19 16 -3 31 5 33 19 7 52 9 54 25 29 13 -20 23 -18 45 9 25 30 24 33 -6 22 -19 -7 -40 -5 -47 6 -6 11 1 24 16 30 30 11 40 129 12 129 -9 0 -17 -10 -17 -23 0 -14 -15 -10 -37 10 -40 36 -72 44 -53 13 7 -11 -2 -20 -19 -20 -17 0 -31 -9 -31 -20 0 -40 -57 -19 -66 25 -8 42 -9 41 -10 -5z"/> <path d="M3320 5448 c-49 -27 -49 -27 30 -29 44 -1 69 -7 55 -12 -35 -14 -31 -47 5 -47 17 0 30 10 30 21 0 12 11 15 23 7 13 -8 7 9 -15 38 -43 59 -57 62 -128 22z"/> <path d="M1380 5382 c0 -56 21 -102 46 -102 15 0 14 8 -2 24 -28 28 -32 64 -6 47 10 -6 14 7 8 29 -14 51 -46 52 -46 2z"/> <path d="M3518 5395 c-18 -56 -11 -73 23 -54 31 16 36 14 26 -11 -6 -16 -2 -30 9 -30 44 0 39 56 -8 77 -26 12 -49 20 -50 18z"/> <path d="M5131 5347 c-16 -43 14 -73 62 -61 30 8 29 10 -8 12 -25 1 -45 12 -45 23 0 12 9 16 20 9 11 -7 20 2 20 19 0 41 -32 40 -49 -2z"/> <path d="M3101 5324 c0 -14 13 -47 30 -73 21 -31 24 -52 10 -60 -12 -7 -21 -28 -21 -46 0 -35 29 -15 31 22 0 13 12 21 25 18 34 -7 30 25 -8 57 -18 15 -40 45 -49 67 -9 23 -17 29 -18 15z"/> <path d="M3845 5300 c13 -22 43 -39 65 -39 40 2 40 2 0 19 -33 14 -34 17 -6 19 69 2 57 41 -13 41 -66 0 -70 -3 -46 -40z"/> <path d="M3306 5288 c-6 -18 1 -40 16 -50 43 -27 72 -20 35 9 -32 23 -32 27 0 48 30 21 30 23 -3 24 -19 0 -41 -13 -48 -31z"/> <path d="M1700 5250 c0 -27 -10 -50 -21 -50 -12 0 -16 9 -9 20 15 24 -10 26 -44 4 -31 -20 -7 -58 43 -67 31 -6 40 7 46 68 4 41 3 75 -4 75 -6 0 -11 -22 -11 -50z"/> <path d="M3070 5240 c-7 -11 -34 -20 -61 -20 -27 0 -49 -9 -49 -20 0 -11 11 -20 25 -20 18 -1 19 -5 2 -15 -33 -21 -39 -186 -9 -242 14 -26 21 -64 16 -85 -6 -21 -3 -38 6 -38 17 0 57 -97 73 -180 5 -27 16 -54 24 -60 8 -5 30 -42 48 -81 18 -39 52 -88 75 -109 69 -63 200 -267 189 -295 -23 -61 38 -100 122 -77 114 32 149 28 149 -16 0 -28 10 -36 39 -28 22 6 54 -4 72 -22 18 -18 22 -32 9 -32 -12 0 -16 -10 -9 -22 8 -12 2 -30 -13 -40 -22 -14 -21 -17 7 -18 19 0 35 -10 35 -21 0 -12 7 -17 15 -13 8 5 37 -12 63 -37 41 -40 43 -46 11 -41 -20 3 -40 16 -45 29 -4 13 -16 18 -27 11 -12 -7 -10 -22 4 -39 19 -23 12 -33 -34 -51 -52 -21 -54 -24 -17 -37 39 -15 38 -16 -5 -29 -25 -8 -45 -23 -45 -33 0 -27 14 -24 71 13 27 18 95 36 151 41 82 6 111 18 145 61 53 66 78 126 52 126 -41 0 -16 40 26 42 30 1 35 5 15 13 -16 6 -41 23 -56 38 -15 15 -35 27 -45 27 -29 0 -23 -40 6 -41 14 -1 7 -10 -15 -19 -22 -9 -29 -18 -15 -19 29 -1 31 -20 6 -60 -15 -24 -23 -24 -49 -2 -26 21 -38 21 -67 -1 -19 -15 -28 -19 -20 -9 8 9 -12 37 -45 61 l-60 44 39 50 c30 38 33 56 16 73 -17 17 -13 23 16 25 22 0 28 6 13 11 -14 6 -39 0 -55 -14 -25 -20 -36 -18 -61 13 -27 33 -30 34 -20 3 7 -22 0 -35 -19 -35 -16 0 -29 10 -29 21 0 12 -9 16 -20 9 -11 -7 -20 1 -20 18 0 22 18 29 70 25 106 -9 125 19 22 34 -90 12 -179 66 -160 97 6 9 -13 16 -41 16 -28 0 -51 -9 -51 -20 0 -11 -9 -20 -19 -20 -11 0 -14 14 -8 32 8 20 2 30 -15 27 -63 -9 -98 3 -98 31 0 17 -11 30 -25 30 -19 1 -18 5 2 18 20 13 13 26 -31 58 -81 58 -124 140 -85 165 24 15 21 23 -17 50 -36 26 -41 38 -23 61 19 22 18 28 -4 28 -23 1 -23 3 1 18 15 10 21 28 13 40 -18 29 -71 28 -71 -1 0 -13 -6 -18 -13 -11 -7 7 -1 27 14 45 14 17 17 30 7 28 -41 -8 -56 3 -28 21 26 17 25 19 -4 20 -27 0 -32 15 -25 75 8 78 -17 128 -76 151 -19 7 -35 22 -35 34 0 15 13 15 42 -1 23 -12 47 -17 53 -11 6 7 0 12 -14 12 -15 0 -20 13 -13 32 9 23 4 29 -18 21 -42 -16 -37 7 13 61 24 25 38 46 32 46 -7 0 -18 -9 -25 -20z m441 -1138 c-6 -10 -1 -22 12 -26 14 -5 10 -20 -13 -43 -36 -37 -103 10 -76 54 6 9 18 7 26 -7 10 -17 18 -14 27 8 6 18 17 32 24 32 6 0 6 -8 0 -18z"/> <path d="M5140 5220 c-12 -23 -17 -49 -11 -59 6 -10 0 -23 -14 -29 -14 -6 4 -6 40 0 52 9 63 5 54 -18 -7 -17 -3 -36 9 -43 27 -17 5 -71 -30 -71 -37 0 -36 -35 2 -73 27 -27 30 -26 33 2 4 57 7 68 22 83 8 8 15 4 15 -9 0 -12 9 -23 20 -23 30 0 24 39 -11 74 -35 35 -31 119 6 111 34 -7 31 32 -5 68 -35 35 -73 19 -57 -24 8 -20 2 -26 -20 -18 -17 7 -26 25 -20 41 17 43 -9 34 -33 -12z"/> <path d="M4037 5181 c-55 -27 -80 -30 -98 -14 -19 17 -21 17 -11 -2 8 -14 4 -25 -9 -25 -13 0 -18 -13 -12 -29 8 -22 -4 -26 -56 -17 -38 6 -72 1 -80 -12 -9 -15 14 -22 68 -22 55 0 86 10 94 30 17 46 66 37 57 -10 -14 -72 -66 -108 -120 -84 -40 18 -46 17 -37 -7 13 -34 14 -34 -67 -11 -55 16 -62 14 -51 -15 11 -30 9 -30 -25 -3 -21 17 -31 19 -23 6 29 -49 -8 -128 -54 -115 -32 8 -36 6 -15 -8 15 -10 23 -33 16 -50 -8 -21 0 -29 26 -27 25 1 37 16 34 40 -7 63 199 165 227 112 21 -40 -2 -112 -35 -104 -9 3 -43 -3 -76 -11 -60 -16 -60 -16 -15 -40 39 -21 42 -31 23 -69 -24 -48 42 19 101 104 17 23 41 42 54 42 34 0 50 30 35 67 -6 17 -24 26 -40 20 -53 -21 -28 35 27 59 51 22 83 94 42 94 -10 0 -9 18 3 41 12 22 31 35 41 28 11 -6 14 -20 8 -30 -6 -11 -3 -19 8 -19 17 0 52 98 39 111 -3 3 -39 -11 -79 -30z"/> <path d="M1522 5040 c78 -96 120 -123 105 -66 -5 20 -47 63 -93 95 l-84 59 72 -88z"/> <path d="M3277 5083 c-31 -36 -30 -40 15 -60 26 -12 48 -31 48 -43 0 -11 23 -20 51 -20 42 0 46 5 25 27 -14 16 -37 24 -50 19 -14 -6 -31 17 -40 53 -16 60 -17 61 -49 24z"/> <path d="M2000 5059 c0 -12 -8 -17 -17 -11 -9 6 -18 -15 -19 -47 -1 -40 10 -60 36 -67 35 -9 74 39 50 62 -5 6 -10 0 -10 -14 0 -13 -10 -18 -22 -11 -12 7 -16 35 -9 61 6 26 7 48 1 48 -5 0 -10 -10 -10 -21z"/> <path d="M4078 5058 c-24 -15 -24 -21 0 -36 15 -10 22 -32 16 -50 -7 -18 -4 -32 7 -32 10 0 19 16 19 36 0 20 10 46 21 57 29 29 -24 50 -63 25z"/> <path d="M4311 4999 c7 -11 1 -34 -12 -50 -36 -43 -13 -54 48 -22 51 26 51 28 16 60 -40 37 -72 44 -52 12z"/> <path d="M4477 4984 c30 -21 -3 -55 -35 -35 -10 6 -22 -1 -28 -15 -5 -15 6 -27 28 -29 21 -1 38 6 38 16 0 35 35 19 46 -21 6 -22 25 -40 43 -40 18 0 28 -8 22 -18 -16 -26 55 -16 84 12 36 34 31 42 -20 32 -45 -9 -140 53 -135 87 1 10 -14 20 -34 23 -28 5 -30 2 -9 -12z"/> <path d="M6132 4985 c-17 -17 -15 -66 3 -62 8 2 31 -4 51 -12 22 -10 46 -7 59 6 17 17 14 23 -11 23 -19 0 -34 8 -34 18 0 22 -52 43 -68 27z"/> <path d="M4420 4810 c0 -16 4 -30 8 -30 5 0 23 -5 40 -12 21 -8 32 -1 32 21 0 18 -9 28 -20 21 -11 -7 -20 -3 -20 9 0 11 -9 21 -20 21 -11 0 -20 -13 -20 -30z"/> <path d="M5161 4819 c17 -10 17 -18 1 -28 -12 -7 -22 -31 -22 -52 0 -22 -14 -39 -31 -39 -19 0 -26 -9 -17 -23 10 -16 1 -20 -26 -13 -35 9 -41 2 -39 -52 0 -35 -6 -74 -14 -88 -9 -13 -5 -24 8 -24 13 0 18 -14 11 -33 -7 -17 -2 -44 10 -60 18 -21 15 -27 -15 -27 -30 -1 -32 -4 -8 -19 17 -11 35 -11 40 -2 6 9 29 20 50 24 44 8 66 276 23 278 -12 0 -6 10 14 21 23 14 32 34 24 59 -16 49 7 50 42 4 24 -31 27 -31 27 -2 1 17 19 44 42 60 38 25 34 27 -51 29 -51 1 -82 -5 -69 -13z m-50 -210 c-21 -16 -28 -29 -15 -29 13 0 24 -9 24 -21 0 -13 -15 -12 -44 3 -45 24 -7 79 53 77 11 0 4 -13 -18 -30z"/> <path d="M5754 4808 c-58 -32 -67 -87 -16 -104 20 -7 24 1 15 26 -11 29 -6 33 32 23 25 -7 52 -13 60 -13 8 0 15 -8 15 -18 0 -10 -15 -16 -33 -15 -21 2 -34 -14 -37 -42 -2 -25 4 -45 13 -45 9 0 11 -16 4 -35 -9 -29 -7 -30 10 -6 11 16 16 36 11 45 -6 9 4 16 22 16 18 0 27 9 20 20 -7 11 4 20 24 20 20 0 27 7 16 15 -63 46 -79 89 -31 82 26 -4 51 4 56 18 5 15 -8 25 -32 25 -22 0 -52 4 -66 9 -15 5 -52 -4 -83 -21z"/> <path d="M3386 4798 c-24 -24 -11 -98 18 -98 10 0 13 9 6 20 -6 10 -2 37 10 60 23 43 2 54 -34 18z"/> <path d="M4543 4774 c36 -28 12 -106 -25 -83 -10 6 -14 20 -7 30 6 10 -3 13 -20 7 -17 -7 -31 -25 -31 -41 0 -16 9 -24 20 -17 11 7 20 3 20 -9 0 -11 -20 -22 -45 -22 -39 -2 -40 -4 -9 -16 21 -8 36 -21 35 -29 0 -8 5 -13 12 -12 7 1 20 -11 30 -25 14 -22 23 -20 44 8 15 19 33 29 40 21 7 -7 13 2 13 21 0 18 9 33 20 33 11 0 20 9 20 20 0 11 -11 18 -25 15 -13 -3 -27 18 -32 45 -7 50 -35 80 -73 79 -11 0 -5 -12 13 -25z"/> <path d="M6044 4762 c-10 -7 -25 -34 -32 -62 l-14 -50 38 43 c20 24 59 47 86 51 48 7 48 7 -6 19 -29 6 -62 6 -72 -1z"/> <path d="M1820 4739 c0 -12 -11 -15 -25 -6 -20 11 -20 8 -1 -15 16 -19 25 -151 29 -398 3 -204 11 -404 18 -445 8 -41 8 -75 1 -75 -36 0 3 -192 40 -195 21 -1 38 6 38 16 0 11 -7 19 -15 19 -8 0 -16 38 -17 85 -2 47 -10 141 -18 210 -10 82 -8 133 6 151 81 97 103 549 31 621 -55 56 -87 67 -87 32z"/> <path d="M2630 4740 c-7 -11 -3 -20 9 -20 11 0 21 -19 21 -42 0 -35 -5 -38 -28 -19 -16 12 -33 15 -39 5 -6 -9 26 -46 72 -80 52 -41 70 -64 49 -64 -19 0 -34 -7 -34 -15 0 -8 31 -15 68 -15 38 0 75 7 84 15 8 8 3 15 -11 15 -15 0 -20 13 -13 31 6 18 3 26 -8 19 -11 -7 -20 3 -20 23 0 32 -2 32 -27 -2 -26 -36 -73 -29 -73 11 0 11 10 14 22 7 24 -15 57 24 58 66 0 14 -18 25 -40 25 -22 0 -40 13 -40 30 0 34 -31 40 -50 10z"/> <path d="M3529 4664 c6 -14 -2 -30 -16 -36 -29 -11 -37 -68 -10 -68 10 0 17 12 17 27 0 15 23 37 50 49 64 30 64 61 0 57 -32 -2 -47 -12 -41 -29z"/> <path d="M5604 4656 c-13 -13 -24 -35 -24 -48 0 -13 -13 -34 -30 -48 -34 -28 -41 -100 -10 -100 11 0 20 8 20 18 0 9 18 22 41 28 32 8 60 174 29 174 -1 0 -13 -11 -26 -24z"/> <path d="M4782 4641 c-38 -23 -18 -67 31 -71 31 -2 39 6 32 34 -13 47 -30 57 -63 37z"/> <path d="M5271 4629 c-37 -28 -37 -29 11 -29 28 0 68 13 89 29 38 29 37 30 -11 30 -27 0 -67 -13 -89 -30z"/> <path d="M4432 4517 c-38 -36 -38 -37 25 -37 40 0 63 10 63 28 0 44 -47 49 -88 9z"/> <path d="M5855 4536 c-55 -19 -70 -44 -38 -64 18 -11 116 62 101 75 -4 4 -33 -1 -63 -11z"/> <path d="M3288 4497 c-8 -13 -6 -18 7 -10 11 7 32 -1 45 -17 14 -17 37 -30 52 -30 16 0 22 -12 15 -30 -8 -22 -2 -27 21 -18 66 25 39 64 -68 96 -5 1 -21 9 -34 18 -13 8 -30 4 -38 -9z"/> <path d="M4675 4487 c14 -6 25 -18 25 -26 0 -9 -11 -15 -25 -14 -14 2 -27 -4 -30 -12 -3 -8 0 -15 5 -15 6 0 35 0 66 0 31 0 74 14 95 31 38 31 38 32 -6 22 -25 -5 -45 -1 -45 9 0 10 -25 17 -55 16 -30 0 -44 -6 -30 -11z"/> <path d="M5686 4476 c-36 -45 -43 -133 -11 -145 45 -17 52 -13 27 17 -23 27 21 64 65 55 9 -2 13 10 10 28 -4 17 -15 30 -25 28 -10 -1 -24 8 -32 20 -10 17 -19 16 -34 -3z"/> <path d="M5569 4458 c-7 -12 -4 -31 7 -42 12 -12 16 -33 10 -48 -6 -16 -1 -28 11 -28 12 0 17 -13 10 -30 -8 -21 2 -30 31 -30 23 0 42 9 42 20 0 11 -9 20 -21 20 -29 0 -58 86 -37 112 18 22 5 48 -24 48 -9 0 -22 -10 -29 -22z"/> <path d="M2874 4405 c11 -29 8 -31 -16 -11 -16 13 -41 17 -55 8 -18 -11 -4 -26 46 -50 81 -38 83 -46 40 -108 -18 -25 -25 -44 -15 -42 41 7 64 -5 72 -37 9 -33 9 -33 12 0 3 43 53 46 70 4 7 -20 4 -26 -12 -17 -15 10 -18 3 -9 -20 7 -20 13 -40 13 -47 0 -6 17 9 38 33 21 24 44 35 51 24 6 -10 3 -25 -9 -32 -32 -20 -23 -44 21 -56 33 -9 37 -5 19 16 -18 21 -13 25 22 15 40 -10 39 -5 -16 52 -33 35 -71 63 -83 63 -13 0 -21 7 -18 15 3 8 -10 36 -28 62 -30 43 -34 43 -43 10 -9 -35 -23 58 -16 100 2 10 -11 12 -29 5 -24 -9 -30 -4 -22 18 7 18 0 30 -17 30 -19 0 -24 -12 -16 -35z"/> <path d="M4412 4410 c8 -22 7 -34 -1 -26 -27 25 -80 -43 -54 -69 17 -17 23 -16 23 4 0 15 16 38 35 52 29 22 30 31 9 53 -22 21 -24 19 -12 -14z"/> <path d="M3454 4360 c-21 -26 -25 -43 -11 -52 14 -9 12 -19 -6 -30 -20 -13 -15 -17 19 -18 38 0 42 6 26 36 -11 20 -12 48 -3 63 13 21 19 18 27 -11 8 -31 10 -32 12 -4 3 51 -27 59 -64 16z"/> <path d="M5743 4364 c3 -19 -1 -45 -10 -59 -10 -16 -4 -25 16 -25 17 0 31 10 31 22 0 12 13 17 29 11 59 -22 50 25 -10 54 -56 29 -61 28 -56 -3z"/> <path d="M2766 4261 l-44 -36 49 -46 c27 -25 54 -40 61 -34 18 19 -11 55 -43 55 -16 0 -29 8 -29 18 0 10 17 14 38 8 25 -6 46 4 59 28 27 51 -31 56 -91 7z"/> <path d="M4240 4260 c0 -39 4 -42 33 -18 29 25 31 22 18 -22 l-15 -50 46 44 c52 51 50 57 -27 77 -48 12 -55 7 -55 -31z"/> <path d="M4674 4162 c2 -40 4 -79 5 -88 0 -9 10 -11 21 -4 12 7 15 23 7 34 -7 13 -4 16 9 9 11 -8 27 -5 34 7 7 11 31 20 54 20 35 0 37 5 15 31 -24 29 -28 29 -43 0 -22 -38 -64 -42 -50 -5 5 15 -5 36 -23 48 -29 17 -33 10 -29 -52z"/> <path d="M5052 4209 c-6 -18 -12 -50 -12 -71 0 -21 -7 -38 -17 -38 -9 0 -15 -20 -15 -45 1 -27 -8 -43 -24 -40 -15 4 -21 -3 -14 -15 7 -11 -4 -20 -25 -20 -31 0 -38 -16 -39 -102 -1 -90 3 -100 36 -92 23 6 38 0 38 -17 0 -14 17 -25 39 -24 31 3 36 14 27 59 -9 45 -4 56 27 57 74 1 120 54 81 93 -19 19 -34 25 -34 12 0 -12 -13 -27 -30 -33 -35 -14 -90 4 -90 29 0 9 15 11 33 4 26 -10 31 -5 20 23 -11 30 -5 34 38 26 47 -9 50 -5 39 46 -9 40 -2 67 25 94 30 30 32 42 12 61 -17 16 -29 17 -38 3 -9 -14 -21 -14 -38 1 -20 15 -30 13 -39 -11z"/> <path d="M5735 4208 c-7 -7 -7 -25 -1 -40 5 -15 0 -28 -12 -28 -12 0 -22 -27 -22 -60 0 -68 -10 -73 -54 -29 -26 26 -35 27 -48 6 -11 -18 -3 -32 22 -41 23 -9 35 -26 28 -43 -6 -16 -1 -35 11 -42 44 -27 21 -55 -34 -42 -55 14 -55 14 -13 -22 23 -21 47 -64 53 -97 10 -51 8 -55 -14 -25 -32 44 -54 45 -37 2 10 -26 5 -31 -20 -21 -25 9 -32 3 -27 -27 9 -61 49 -93 64 -52 19 48 47 41 34 -9 -7 -29 -22 -38 -49 -31 -42 11 -125 -56 -107 -85 6 -10 52 -24 102 -31 68 -10 89 -21 81 -42 -6 -17 1 -29 19 -29 37 0 37 -20 -2 -76 -17 -24 -26 -52 -20 -63 6 -10 3 -24 -9 -31 -11 -7 -20 3 -20 23 0 31 -3 31 -28 -4 -16 -21 -24 -45 -19 -54 5 -8 0 -15 -12 -15 -11 0 -21 13 -21 29 0 19 -12 25 -31 18 -26 -10 -24 -19 14 -60 33 -35 48 -41 60 -22 13 20 16 20 17 0 0 -14 20 -25 45 -24 42 0 42 2 10 27 -47 35 -44 45 15 60 28 7 50 27 50 44 0 17 -8 25 -19 19 -10 -6 -24 -3 -31 9 -7 11 6 20 29 20 50 0 54 -52 8 -103 -20 -22 -24 -37 -10 -37 13 0 23 -13 23 -30 0 -16 9 -30 20 -30 11 0 20 -13 20 -28 0 -39 58 -57 88 -26 21 20 20 31 -5 54 -23 22 -32 23 -39 3 -5 -16 -20 -10 -46 19 -47 54 -48 78 -6 78 23 0 29 12 22 40 -6 22 -3 35 6 30 10 -6 24 0 31 12 8 12 2 30 -13 40 -19 11 -20 17 -4 18 13 0 30 -10 37 -22 17 -26 48 15 48 62 0 23 -3 24 -16 4 -9 -14 -30 -20 -48 -13 -17 6 -37 2 -44 -10 -17 -27 -51 -28 -51 -1 0 11 13 20 29 20 16 0 35 10 43 23 9 14 5 18 -9 9 -13 -8 -23 -6 -23 4 0 24 99 67 122 53 10 -7 13 -21 6 -32 -7 -12 8 -10 35 4 59 31 78 49 34 34 -40 -15 -63 51 -30 84 16 16 11 25 -22 34 -48 13 -62 47 -19 47 58 0 135 51 127 84 -6 23 1 29 22 21 22 -8 27 -1 17 29 -12 37 42 126 77 126 26 0 72 58 66 84 -3 14 5 24 18 22 13 -3 28 8 34 25 8 19 -1 29 -24 29 -19 0 -45 10 -56 21 -16 16 -20 8 -16 -27 4 -38 -4 -48 -38 -46 -24 2 -55 -9 -70 -23 -41 -39 -89 8 -73 71 11 45 7 48 -52 39 -49 -7 -65 -1 -73 28 -5 20 -24 37 -42 37 -26 -1 -27 -4 -6 -18 32 -20 27 -44 -15 -75 -35 -26 -91 3 -71 35 20 32 48 19 36 -17 -8 -26 -6 -28 8 -9 40 57 -14 158 -60 112z m193 -151 c-10 -16 -4 -20 19 -11 18 7 33 4 33 -7 0 -10 -13 -19 -29 -19 -32 0 -21 -57 18 -87 15 -11 14 -19 -2 -25 -12 -6 -18 -27 -13 -47 6 -23 -1 -37 -17 -36 -66 3 -98 -7 -86 -26 9 -14 21 -14 40 2 30 25 76 7 58 -22 -6 -11 -29 -19 -50 -19 -22 0 -39 -13 -39 -30 0 -16 -10 -30 -22 -30 -12 0 -17 -11 -12 -25 5 -14 19 -23 32 -20 20 5 25 -9 20 -50 -1 -8 -10 -13 -20 -10 -10 3 -18 -24 -18 -60 -1 -49 -5 -58 -20 -35 -13 20 -19 22 -20 5 0 -15 -15 -10 -40 15 -21 21 -34 53 -27 70 6 16 1 30 -11 30 -12 0 -23 -11 -24 -25 -1 -20 -3 -20 -11 0 -14 35 41 85 72 65 15 -9 19 -26 10 -41 -10 -16 -7 -20 8 -11 37 23 28 92 -12 92 -30 1 -31 3 -5 20 27 17 15 29 -25 22 -8 -1 -15 16 -15 38 0 22 -9 40 -20 40 -12 0 -11 16 4 39 18 28 29 33 40 15 8 -13 15 -15 15 -4 -1 37 -56 94 -78 81 -28 -18 -27 15 3 45 18 18 30 17 53 -1 26 -22 26 -19 6 20 -33 60 2 57 48 -4 43 -56 70 -50 54 12 -9 35 -5 41 22 31 18 -7 33 -4 33 7 0 10 10 19 21 19 12 0 15 -11 7 -23z"/> <path d="M2780 4061 c-23 -15 -24 -25 -6 -43 19 -19 31 -19 55 1 52 43 10 79 -49 42z"/> <path d="M4144 3959 c-22 -35 -19 -39 36 -39 41 0 60 10 60 31 0 18 -10 25 -22 18 -12 -8 -29 -4 -36 8 -8 14 -22 7 -38 -18z"/> <path d="M4822 3933 c-15 -18 -16 -34 -5 -41 11 -7 25 -1 31 13 7 14 8 -11 2 -55 -8 -72 -7 -75 13 -30 38 82 6 169 -41 113z"/> <path d="M5385 3924 c-25 -4 -45 -18 -45 -32 0 -48 26 -51 63 -9 32 37 38 38 49 10 7 -18 20 -28 30 -22 52 32 -11 67 -97 53z"/> <path d="M4300 3880 c-24 -15 -23 -23 7 -57 27 -30 29 -41 9 -49 -17 -7 -14 -11 9 -12 19 -1 35 -11 35 -21 0 -11 -13 -15 -30 -8 -16 6 -30 1 -30 -11 0 -12 14 -22 30 -22 17 0 30 -9 30 -20 0 -11 -11 -20 -24 -20 -18 0 -18 -6 -1 -23 13 -13 18 -48 11 -80 -14 -73 25 -76 43 -2 8 30 25 62 38 71 13 10 6 12 -19 5 -36 -10 -41 -5 -34 35 15 78 -39 236 -74 214z"/> <path d="M4884 3679 c-26 -10 -41 -27 -35 -38 7 -11 27 -14 45 -7 26 10 30 5 18 -26 -9 -24 -7 -31 5 -18 26 28 49 110 29 109 -9 -1 -37 -10 -62 -20z"/> <path d="M5202 3679 c-3 -51 -45 -82 -76 -56 -20 17 -26 14 -26 -8 0 -45 61 -61 100 -25 18 16 39 24 47 17 7 -8 13 -3 13 10 0 13 -8 23 -19 23 -10 0 -22 16 -27 35 -7 27 -10 28 -12 4z"/> <path d="M2512 3623 c-8 -13 -22 -19 -31 -13 -9 5 -22 -3 -27 -18 -8 -19 1 -24 28 -17 21 5 50 0 65 -12 15 -13 33 -17 40 -9 7 7 13 3 13 -9 0 -12 -7 -25 -15 -30 -8 -5 -4 -6 10 -2 14 3 25 -3 25 -14 0 -10 8 -19 17 -19 9 0 16 13 16 29 0 16 -7 25 -16 19 -9 -6 -17 5 -17 23 0 22 -11 29 -31 21 -20 -7 -36 4 -46 32 -11 29 -21 35 -31 19z"/> <path d="M1870 3568 c11 -4 18 -51 16 -103 -7 -160 15 -286 44 -259 20 19 20 32 -2 63 -35 50 -38 140 -5 119 16 -10 19 -4 10 19 -7 18 -18 47 -25 63 -7 17 -3 30 8 30 11 0 16 18 10 40 -6 22 -25 39 -43 38 -18 0 -24 -5 -13 -10z"/> <path d="M4924 3539 c-13 -21 -34 -39 -47 -39 -16 0 -16 7 1 27 18 22 13 26 -28 18 -28 -5 -68 -31 -88 -57 -20 -26 -42 -41 -49 -34 -7 7 -13 -3 -13 -22 0 -19 -9 -29 -20 -22 -11 7 -20 1 -20 -14 -1 -19 -6 -18 -20 4 -17 26 -19 25 -20 -5 0 -19 9 -35 20 -35 12 0 16 -21 9 -48 -7 -27 -2 -54 10 -62 28 -17 83 26 76 60 -7 32 128 158 143 133 7 -10 23 -7 38 9 14 15 20 28 14 28 -6 0 -1 19 11 42 29 54 15 68 -17 17z"/> <path d="M2513 3492 c-15 -42 5 -95 31 -79 13 7 10 19 -7 29 -22 14 -21 17 5 18 18 0 42 -20 54 -45 l22 -45 -6 49 c-3 27 -18 53 -34 58 -15 5 -33 17 -40 28 -7 10 -18 4 -25 -13z"/> <path d="M3629 3439 c-14 -23 8 -169 23 -154 21 22 25 96 4 83 -14 -9 -18 4 -12 39 11 56 7 66 -15 32z"/> <path d="M2146 3398 c-23 -23 -22 -30 3 -107 11 -32 16 -34 31 -12 10 17 9 44 -2 65 -11 20 -14 46 -8 56 17 27 3 25 -24 -2z"/> <path d="M2542 3334 c-2 -45 -9 -54 -38 -45 -26 8 -36 0 -39 -31 -2 -34 2 -37 28 -16 24 21 33 20 48 -3 10 -16 19 -21 19 -10 0 10 13 1 29 -20 17 -22 30 -30 30 -18 1 12 -7 30 -17 40 -11 10 -28 51 -39 89 -18 67 -19 67 -21 14z"/> <path d="M5184 3336 c-35 -35 -29 -96 8 -96 24 0 30 13 23 49 -5 27 1 54 13 59 14 6 14 9 1 10 -12 1 -32 -9 -45 -22z"/> <path d="M4360 3320 c0 -12 -10 -16 -23 -8 -14 9 -18 5 -9 -9 8 -13 28 -23 44 -23 19 0 25 9 15 25 -8 14 1 12 22 -5 33 -27 36 -27 28 0 -12 36 -77 53 -77 20z"/> <path d="M4039 3305 c-1 -8 -6 -35 -10 -59 -10 -50 28 -84 51 -46 9 14 26 19 38 11 13 -8 22 2 22 27 0 22 -9 45 -20 52 -11 7 -20 -2 -20 -19 0 -17 -10 -31 -21 -31 -13 0 -16 17 -9 40 7 23 4 40 -9 40 -11 0 -22 -7 -22 -15z"/> <path d="M4467 3249 c-7 -17 -25 -27 -40 -21 -15 6 -27 -2 -27 -19 0 -16 -13 -29 -29 -29 -40 0 -74 -68 -57 -114 11 -31 9 -32 -18 -10 -26 21 -33 20 -43 -6 -13 -34 32 -62 66 -41 12 8 21 4 21 -7 0 -11 -9 -25 -20 -32 -12 -7 -16 -20 -10 -29 5 -10 -17 -27 -50 -38 -33 -12 -60 -26 -60 -33 0 -7 11 -6 25 3 18 11 18 6 -1 -18 -15 -17 -24 -48 -20 -69 4 -27 -5 -35 -36 -30 -63 8 -98 -43 -57 -84 17 -18 24 -32 15 -32 -9 0 -4 -8 12 -18 15 -10 21 -28 12 -42 -12 -19 -20 -17 -34 7 -27 49 -62 42 -36 -7 14 -27 43 -41 86 -42 35 0 51 -6 34 -11 -16 -6 -43 -15 -60 -20 -25 -8 -24 -13 7 -30 26 -15 43 -15 59 1 12 12 35 22 52 22 23 0 25 -5 6 -24 -37 -37 -29 -76 16 -76 47 0 49 12 11 85 -30 57 -17 73 25 31 13 -13 30 -16 39 -7 8 9 4 20 -9 25 -19 7 -18 20 5 55 29 44 28 45 -20 36 -57 -11 -70 23 -18 44 24 9 28 18 12 34 -15 15 -16 38 -2 74 15 41 12 57 -15 77 -36 26 -25 36 60 50 49 8 67 56 22 56 -25 0 -30 10 -20 35 8 19 15 46 16 60 0 14 12 25 25 25 16 0 21 16 14 42 -9 35 -4 40 27 30 33 -10 39 -1 40 58 1 76 -7 88 -25 39z m-250 -540 c11 -32 -53 -61 -79 -35 -12 12 -17 31 -11 41 14 24 81 19 90 -6z"/> <path d="M4555 3251 c-19 -14 -35 -42 -35 -62 0 -33 3 -33 25 -5 14 17 36 35 49 39 14 4 18 17 10 30 -11 18 -23 17 -49 -2z"/> <path d="M5233 3236 c-6 -25 -29 -36 -72 -36 -64 0 -181 -95 -181 -146 1 -18 4 -18 16 0 17 27 125 72 139 58 5 -5 -21 -37 -58 -70 -43 -39 -56 -61 -36 -61 16 -1 47 18 67 42 29 34 40 37 54 15 27 -43 22 -58 -27 -77 -25 -10 -33 -19 -19 -20 17 -1 23 -17 16 -46 -7 -25 -6 -34 0 -20 18 39 46 10 34 -35 -6 -22 -17 -36 -25 -31 -7 5 -29 -18 -48 -50 -34 -58 -73 -79 -73 -40 0 11 -31 19 -70 17 -38 -1 -70 -10 -70 -20 0 -9 -24 -11 -53 -3 -49 12 -52 9 -40 -35 7 -26 13 -59 13 -72 0 -16 17 -18 56 -7 72 20 366 10 382 -13 6 -10 57 -18 112 -17 91 2 129 -14 130 -53 0 -8 -12 -10 -27 -4 -15 6 -33 -4 -40 -21 -8 -22 0 -31 28 -31 21 0 39 9 39 20 0 11 22 20 49 20 29 0 58 17 71 40 12 22 35 40 52 40 21 0 15 15 -22 52 -29 29 -58 47 -65 40 -7 -7 5 -26 26 -42 22 -16 31 -29 21 -29 -11 -1 -34 13 -52 29 -31 28 -34 25 -36 -34 -1 -47 4 -56 17 -35 15 24 18 23 19 -6 0 -19 -13 -35 -28 -35 -33 0 -58 54 -39 85 8 13 4 15 -11 6 -16 -10 -29 1 -36 28 -7 27 -22 39 -40 32 -16 -6 -42 3 -59 19 -16 17 -24 30 -16 30 8 0 5 11 -5 25 -10 14 -18 39 -17 55 1 17 -6 36 -17 43 -12 9 -10 25 5 44 18 21 18 31 2 37 -12 4 -26 42 -30 85 -4 43 -17 87 -28 98 -31 31 -25 93 9 93 36 0 41 -40 5 -41 -14 0 -9 -9 10 -21 39 -22 76 -8 73 28 -1 17 -4 17 -11 -1 -20 -50 -46 -24 -27 26 28 72 25 80 -19 80 -21 0 -43 -16 -48 -35z m-83 -536 c7 -11 32 -20 56 -20 36 -1 38 -4 14 -20 -39 -25 -86 -25 -70 0 7 11 -2 20 -19 20 -17 0 -31 9 -31 20 0 11 8 20 19 20 10 0 24 -9 31 -20z"/> <path d="M4590 3100 c7 -11 -6 -20 -28 -20 -22 0 -45 -9 -53 -21 -7 -11 -29 -15 -49 -9 -54 17 -68 -24 -18 -51 34 -18 47 -17 60 4 13 20 18 17 18 -13 0 -23 7 -31 15 -19 23 33 85 51 85 25 0 -12 5 -17 12 -11 18 18 -12 135 -35 135 -11 0 -14 -9 -7 -20z"/> <path d="M4711 3090 c-42 -32 -41 -34 23 -68 54 -28 114 48 63 80 -35 23 -40 22 -86 -12z"/> <path d="M3895 3057 c14 -14 25 -41 25 -61 0 -20 13 -36 29 -36 39 0 57 34 26 48 -14 7 -1 8 29 2 55 -10 100 23 52 39 -77 26 -184 31 -161 8z"/> <path d="M5720 3050 c-28 -33 -17 -55 31 -62 33 -5 39 23 9 42 -12 7 -15 21 -9 31 18 30 -4 22 -31 -11z"/> <path d="M3743 3018 c-2 -18 10 -70 26 -116 17 -46 22 -79 13 -73 -10 6 -29 -3 -42 -19 -39 -47 20 -37 80 13 l49 41 -44 36 c-30 24 -41 49 -33 73 9 29 7 31 -8 9 -16 -23 -22 -19 -29 20 -5 26 -11 33 -12 16z"/> <path d="M5885 2957 c-13 -13 -40 -25 -59 -26 -35 -3 -46 -14 -46 -47 0 -9 41 -19 90 -21 52 -3 90 4 90 16 0 12 -13 21 -30 21 -16 0 -30 9 -30 20 0 11 9 20 20 20 11 0 20 9 20 20 0 27 -27 25 -55 -3z"/> <path d="M4610 2940 c-7 -11 -34 -15 -61 -8 -40 10 -49 5 -49 -30 0 -37 28 -52 83 -45 7 1 19 -21 25 -48 14 -55 55 -64 92 -19 17 21 18 30 2 30 -12 0 -22 9 -22 20 0 11 14 20 32 20 21 0 28 11 20 32 -7 17 -12 35 -12 40 0 4 -9 8 -20 8 -11 0 -20 -13 -20 -30 0 -20 -19 -30 -55 -29 -54 2 -54 2 -9 20 26 10 41 28 34 39 -16 25 -24 25 -40 0z"/> <path d="M2458 2908 c-18 -22 -14 -28 20 -28 45 0 56 -29 19 -52 -15 -9 -18 -5 -7 12 11 17 8 21 -7 12 -30 -18 -30 -132 -1 -132 17 0 17 -7 1 -26 -16 -20 -16 -33 1 -50 19 -19 18 -24 0 -24 -32 0 -32 -154 0 -165 14 -4 18 -22 9 -46 -9 -21 -21 -29 -29 -18 -8 10 -27 21 -44 24 -20 4 -17 -6 11 -30 34 -29 41 -56 38 -150 -4 -109 -2 -115 43 -115 27 0 48 -9 48 -20 0 -12 -21 -15 -50 -8 -37 9 -50 4 -50 -17 0 -17 17 -35 38 -40 52 -14 28 -147 -25 -142 -28 2 -30 -3 -10 -26 19 -23 27 -24 40 -3 10 16 17 -2 17 -49 0 -70 -16 -92 -46 -62 -8 7 -2 27 11 44 21 25 20 28 -3 14 -19 -11 -37 -5 -55 20 -25 34 -27 34 -27 2 0 -20 -9 -30 -20 -23 -11 7 -20 2 -20 -10 0 -14 16 -18 43 -9 27 8 37 6 29 -7 -7 -12 -3 -27 8 -34 11 -7 15 -23 7 -34 -8 -13 -4 -16 10 -8 13 8 23 4 23 -9 0 -13 14 -18 30 -12 39 15 38 4 -5 -39 -33 -34 -33 -35 0 -23 25 10 35 4 37 -21 0 -19 5 -24 11 -11 5 12 25 18 46 13 20 -5 42 0 49 11 7 12 27 16 43 10 21 -8 26 -2 16 23 -7 20 -1 41 15 52 23 14 23 17 1 18 -17 0 -9 16 20 42 26 22 37 36 24 29 -13 -6 -50 11 -83 39 l-59 50 -12 -44 c-6 -24 -16 -40 -22 -34 -6 6 0 39 14 74 18 49 18 69 -1 88 -19 19 -24 16 -24 -14 0 -27 -6 -32 -22 -16 -15 15 -11 33 15 64 39 46 67 54 67 21 0 -12 -9 -16 -20 -9 -11 7 -20 4 -20 -7 0 -11 9 -23 19 -26 11 -4 23 -27 27 -51 13 -91 31 -66 30 42 -1 90 -8 112 -34 112 -18 0 -49 18 -68 40 -41 49 -44 68 -6 53 16 -6 34 3 40 19 6 16 -2 35 -18 41 -16 6 -25 19 -19 29 6 10 1 18 -11 18 -12 0 -17 9 -10 20 7 12 20 16 29 10 9 -5 10 21 1 58 -8 38 -13 101 -10 141 3 50 -2 65 -15 47 -13 -18 -16 -13 -9 19 6 25 1 51 -11 58 -13 8 -9 22 13 38 22 16 27 30 13 38 -12 8 -15 24 -6 37 55 86 -35 237 -97 162z m213 -1174 c7 -48 4 -74 -11 -74 -12 0 -17 8 -11 19 6 10 3 24 -9 31 -11 7 -20 -4 -20 -24 0 -26 -10 -20 -37 24 -21 33 -33 65 -28 70 6 6 14 -1 19 -15 14 -39 40 -29 53 19 15 58 29 41 44 -50z"/> <path d="M4460 2843 c0 -12 -16 -16 -35 -10 -30 11 -29 8 3 -18 22 -16 56 -25 76 -20 21 6 35 11 32 13 -3 2 -22 15 -41 30 -22 17 -35 19 -35 5z"/> <path d="M4926 2822 c-2 -23 13 -42 37 -49 29 -7 37 -2 29 18 -6 17 1 29 19 29 16 0 29 9 29 20 0 40 -111 22 -114 -18z"/> <path d="M5340 2794 c0 -55 27 -72 51 -32 8 12 -1 36 -19 54 -29 30 -32 28 -32 -22z"/> <path d="M5626 2762 c-4 -54 1 -58 65 -56 38 1 69 11 69 23 1 14 6 14 15 1 28 -37 85 -28 85 15 0 31 -9 37 -44 28 -24 -6 -56 -2 -70 10 -19 16 -35 15 -57 -4 -26 -21 -30 -21 -25 0 3 14 -3 29 -14 33 -11 5 -22 -18 -24 -50z"/> <path d="M6400 2710 c0 -16 19 -49 43 -73 l43 -43 -13 48 c-7 26 -13 59 -13 73 0 14 -13 25 -30 25 -16 0 -30 -13 -30 -30z"/> <path d="M4027 2543 c41 -45 43 -71 3 -56 -16 7 -30 3 -30 -8 0 -26 47 -24 74 3 23 23 -24 98 -62 98 -10 0 -3 -16 15 -37z"/> <path d="M5610 2520 c-7 -11 -3 -20 9 -20 11 0 21 -10 21 -21 0 -12 -8 -16 -18 -10 -10 6 -14 -7 -8 -29 13 -47 57 -53 74 -9 21 55 -49 136 -78 89z"/> <path d="M6460 2522 c0 -10 -6 -35 -13 -54 -11 -27 -6 -32 20 -22 22 8 33 3 33 -18 0 -17 -8 -25 -19 -19 -11 7 -12 -12 0 -51 15 -53 11 -68 -27 -100 -24 -20 -33 -37 -19 -37 14 -1 25 -15 25 -32 0 -20 9 -26 25 -16 20 11 20 8 1 -15 -15 -19 -17 -40 -6 -59 10 -16 13 -48 8 -72 -6 -23 -2 -48 9 -55 22 -14 7 -92 -18 -92 -70 0 27 -394 122 -496 63 -69 81 -119 53 -148 -45 -45 -57 -100 -29 -134 15 -18 39 -68 54 -112 15 -44 37 -87 49 -95 15 -10 15 -14 -2 -15 -14 0 -21 -11 -16 -25 6 -14 13 -96 17 -184 6 -132 15 -164 50 -193 24 -19 43 -44 43 -56 0 -30 -74 -28 -87 3 -5 14 -11 4 -11 -22 -1 -31 12 -50 38 -57 53 -14 52 -166 -2 -166 -9 0 -11 14 -5 31 7 18 -9 49 -38 76 -42 39 -48 61 -44 152 l6 107 -42 -42 c-38 -38 -39 -43 -8 -74 44 -44 42 -56 -7 -30 -22 12 -65 19 -95 16 -44 -5 -56 3 -61 39 -4 26 -16 40 -28 33 -12 -8 -17 -2 -12 14 5 15 -8 44 -30 63 -22 19 -32 35 -22 36 10 0 1 13 -19 28 -65 49 -15 146 92 179 77 24 40 78 -44 64 -105 -16 -181 -52 -181 -85 0 -14 -12 -21 -27 -15 -15 6 -33 -4 -40 -21 -8 -22 -28 -27 -70 -19 -34 7 -64 3 -72 -10 -8 -13 -22 -17 -32 -11 -30 18 -22 -1 21 -51 45 -52 52 -110 15 -133 -25 -16 -35 -18 -100 -24 -19 -2 -35 -11 -35 -21 0 -30 65 -45 88 -20 16 18 15 20 -6 8 -19 -11 -23 -9 -14 7 20 32 27 29 52 -18 28 -51 6 -126 -32 -111 -15 6 -50 -12 -78 -40 -28 -27 -59 -45 -70 -38 -33 20 -23 -9 18 -53 l38 -40 14 42 c18 57 81 45 78 -15 0 -24 6 -44 15 -44 21 0 13 -46 -11 -63 -28 -20 3 -77 42 -77 28 1 30 5 9 18 -29 18 1 95 50 127 18 11 24 85 7 85 -2 0 -6 18 -10 39 -9 45 25 96 52 80 25 -16 23 -6 -20 82 -22 46 -30 84 -20 91 11 6 14 26 7 44 -11 28 -4 30 54 13 37 -10 68 -19 69 -19 1 0 20 -16 42 -35 48 -42 79 -125 46 -125 -12 0 -17 -9 -10 -20 17 -28 -9 -103 -31 -89 -10 6 -13 -3 -6 -21 7 -19 25 -27 47 -20 28 9 39 -7 57 -76 37 -147 74 -205 103 -161 20 33 22 33 12 2 -13 -41 9 -45 47 -10 21 20 24 20 13 0 -10 -17 2 -25 37 -25 51 0 68 27 31 50 -11 7 -20 2 -20 -10 0 -12 -9 -17 -21 -9 -11 7 -15 32 -8 56 12 41 12 41 -15 6 -26 -33 -28 -28 -25 56 2 78 -5 98 -49 130 l-52 37 55 26 c62 28 155 -5 155 -55 0 -15 14 -27 30 -27 17 0 30 -10 30 -22 0 -12 14 -17 31 -10 18 6 29 1 27 -13 -16 -131 4 -215 51 -215 69 0 77 61 63 512 -13 435 -10 413 -69 604 -25 80 -40 162 -33 183 12 40 -26 141 -54 141 -10 0 -14 7 -9 16 6 9 -14 60 -44 115 -48 89 -54 123 -59 329 -5 204 -44 496 -78 580 -7 17 -11 37 -9 45 2 8 -6 15 -17 15 -11 0 -20 -8 -20 -18z"/> <path d="M5110 2433 c-10 -24 -4 -47 20 -70 33 -30 35 -30 24 0 -15 44 6 62 40 34 15 -12 33 -16 41 -9 18 19 -38 54 -69 43 -13 -5 -27 2 -32 15 -6 15 -15 10 -24 -13z"/> <path d="M4506 2401 c5 -23 2 -41 -8 -41 -10 0 -18 9 -18 20 0 11 -20 19 -45 18 -25 0 -34 -6 -20 -11 14 -6 25 -20 25 -31 0 -11 -13 -15 -30 -9 -18 7 -30 0 -30 -18 0 -17 -25 -35 -59 -42 -59 -12 -149 -87 -104 -87 13 0 23 -9 23 -19 0 -11 -13 -15 -30 -8 -16 6 -30 1 -30 -11 0 -12 9 -22 20 -22 11 0 20 -14 20 -32 0 -21 -11 -28 -31 -20 -24 9 -30 1 -25 -33 3 -25 14 -40 24 -35 9 6 25 -10 34 -35 24 -64 66 -58 49 7 -12 49 -11 50 20 20 32 -32 69 -27 69 9 0 10 -16 13 -35 7 -33 -11 -33 -10 0 18 38 31 47 74 15 74 -11 0 -18 -11 -15 -24 3 -13 -9 -27 -27 -31 -40 -9 -38 70 3 96 16 10 20 19 9 19 -11 0 -7 9 9 19 18 12 38 11 53 0 15 -13 31 -9 48 11 14 16 37 30 52 30 16 0 28 14 28 30 0 39 6 38 85 -10 36 -22 54 -40 40 -40 -35 0 -31 -53 5 -67 17 -7 30 -22 30 -34 0 -12 -9 -16 -20 -9 -11 7 -20 3 -20 -8 0 -11 8 -25 19 -31 27 -17 48 67 24 96 -15 18 -11 24 17 24 20 0 33 -7 27 -15 -16 -27 81 -16 119 13 42 31 15 58 -37 38 -23 -9 -31 -6 -22 8 8 13 -1 18 -25 11 -38 -10 -92 53 -71 82 5 7 -2 3 -15 -8 -38 -32 -56 -24 -56 27 0 31 -18 55 -53 71 -48 21 -51 20 -41 -17z"/> <path d="M5616 2363 l45 -13 -41 -36 c-23 -19 -50 -30 -59 -24 -10 6 -31 -3 -48 -20 -16 -16 -43 -25 -59 -19 -17 7 -36 2 -43 -10 -7 -11 -31 -21 -53 -21 -22 0 -35 -9 -28 -20 7 -11 3 -20 -9 -20 -11 0 -21 11 -21 24 0 13 -12 7 -27 -13 -16 -22 -40 -32 -58 -26 -33 13 -67 -64 -38 -84 9 -6 22 -29 31 -50 12 -34 17 -35 33 -10 12 19 18 21 19 4 0 -14 20 -25 45 -25 43 0 43 2 -10 36 -42 28 -49 42 -31 60 19 19 30 14 50 -21 l25 -45 -4 50 c-4 40 4 50 38 49 26 -1 39 8 34 23 -6 13 0 30 12 37 12 8 21 7 19 -3 -7 -41 5 -43 43 -5 27 27 55 37 80 29 25 -8 39 -3 39 14 1 21 4 20 18 -2 10 -15 27 -22 37 -15 11 7 32 -1 46 -18 26 -32 -31 -109 -80 -109 -12 0 -21 -9 -21 -20 0 -11 -7 -19 -15 -18 -43 7 -86 -4 -77 -19 6 -10 32 -14 58 -9 42 8 48 2 50 -52 1 -41 -8 -62 -27 -62 -39 0 -36 -20 6 -51 24 -18 42 -19 60 -5 14 12 26 18 26 13 1 -4 5 -33 9 -64 10 -71 24 -87 54 -57 26 26 26 171 0 179 -9 3 -13 33 -8 66 7 50 13 55 31 30 16 -21 32 -25 53 -11 26 17 26 19 -3 20 -33 0 -59 41 -66 105 -3 19 3 35 12 35 32 0 17 57 -37 138 -40 63 -65 82 -105 80 -49 -2 -50 -2 -5 -15z"/> <path d="M4502 2232 c-17 -20 -15 -33 9 -53 24 -19 25 -29 6 -41 -14 -9 -34 -3 -46 14 -18 25 -25 24 -51 -7 -41 -49 -54 -122 -16 -90 17 14 38 16 56 5 15 -9 37 -12 47 -6 11 7 13 2 5 -10 -7 -12 -29 -17 -48 -10 -26 9 -25 4 6 -20 53 -41 86 -12 74 66 -5 33 0 60 11 60 22 0 9 95 -15 110 -9 5 -26 -3 -38 -18z"/> <path d="M4960 2176 c0 -10 -16 -16 -35 -14 -40 5 -145 -41 -145 -64 0 -27 89 -11 112 20 20 25 25 23 37 -13 11 -38 19 -40 63 -21 28 13 45 35 39 50 -5 14 3 26 20 26 16 0 29 8 29 19 0 10 -27 18 -60 17 -33 -1 -60 -10 -60 -20z"/> <path d="M5484 2134 c-67 -69 -85 -121 -34 -101 16 6 26 17 22 24 -16 26 46 88 77 76 17 -6 31 -3 31 8 0 10 -10 19 -21 19 -12 0 -16 9 -9 20 23 38 -2 20 -66 -46z"/> <path d="M2123 1870 c-2 -231 47 -470 96 -470 29 0 30 -960 1 -1060 -43 -150 -26 -340 30 -340 28 0 50 2 50 5 0 3 -13 45 -27 94 -33 109 -9 206 60 243 52 27 55 181 7 338 -49 160 -56 244 -27 313 15 38 23 77 18 86 -6 10 -3 21 7 24 12 4 11 42 0 97 -11 50 -24 116 -29 149 -5 32 -27 78 -49 101 -22 23 -40 62 -40 85 0 63 -21 106 -45 92 -15 -9 -17 23 -8 101 10 84 8 111 -9 101 -17 -11 -20 15 -13 93 6 59 4 126 -5 148 -9 23 -16 -60 -17 -200z"/> <path d="M4780 1980 c0 -11 10 -20 22 -20 16 0 15 -9 -2 -30 -14 -16 -17 -30 -7 -30 9 0 5 -8 -10 -18 -19 -12 -21 -21 -5 -31 27 -16 66 76 49 119 -13 34 -47 41 -47 10z"/> <path d="M4885 1975 c-21 -27 -46 -115 -33 -115 33 0 85 80 53 81 -31 2 -30 4 4 17 23 9 30 20 17 28 -12 8 -30 2 -41 -11z"/> <path d="M3954 1907 c13 -5 19 -25 13 -43 -8 -27 -6 -28 9 -7 16 23 23 21 39 -8 14 -25 31 -31 58 -19 34 15 34 17 2 25 -19 4 -35 17 -35 28 0 10 -8 14 -19 8 -10 -6 -24 -3 -31 9 -7 11 -23 19 -36 18 -19 -1 -19 -3 0 -11z"/> <path d="M4191 1888 c-21 -15 -29 -28 -16 -28 12 0 36 -5 53 -12 21 -8 32 -1 32 19 0 45 -25 53 -69 21z"/> <path d="M4192 1779 c-22 -21 -33 -45 -25 -52 7 -8 13 -3 13 10 0 13 7 23 17 23 9 0 12 -27 7 -60 -5 -36 0 -60 14 -60 12 0 22 -13 22 -30 0 -27 24 -39 66 -32 9 1 33 -7 55 -18 25 -14 39 -14 39 -1 0 11 14 14 31 8 17 -7 27 -25 21 -40 -7 -18 6 -28 44 -29 36 -2 42 -6 18 -12 -23 -6 -33 -21 -25 -39 6 -17 11 -43 11 -59 0 -24 5 -25 28 -4 15 14 20 29 10 33 -33 12 -19 34 22 34 25 0 37 -10 31 -25 -15 -39 11 -31 64 19 36 34 44 36 34 10 -8 -21 -4 -35 9 -35 13 0 28 13 35 30 13 35 47 20 47 -21 0 -16 -13 -29 -30 -29 -16 0 -30 -10 -30 -23 0 -13 6 -18 13 -10 19 18 72 -63 57 -87 -7 -11 8 -19 34 -18 25 0 35 6 21 11 -14 6 -25 20 -25 31 0 11 14 15 30 9 17 -7 30 -4 30 6 0 10 -11 22 -25 27 -17 7 -13 19 15 40 28 21 44 24 53 9 10 -16 23 -15 45 4 25 20 32 20 32 1 0 -15 16 -20 41 -14 26 7 38 2 33 -13 -5 -12 -28 -21 -52 -18 -26 3 -39 -4 -32 -15 7 -11 -2 -20 -19 -20 -18 0 -31 -17 -31 -40 0 -61 -2 -68 -24 -95 -16 -19 -8 -25 33 -25 30 0 48 9 41 20 -18 30 34 75 74 65 29 -8 36 3 37 58 l1 67 27 -60 c18 -39 28 -48 29 -25 2 37 42 50 42 14 0 -11 20 -2 44 21 25 22 56 37 70 31 14 -5 26 2 26 16 0 17 52 36 145 52 212 38 403 135 330 169 -20 10 -20 14 0 24 37 17 30 42 -15 54 -22 6 -40 2 -40 -7 0 -10 -15 -12 -33 -5 -25 9 -31 5 -22 -18 9 -23 -12 -35 -86 -53 -127 -29 -173 -11 -161 62 1 8 -7 15 -18 15 -12 0 -15 -21 -8 -51 7 -28 5 -49 -5 -47 -45 8 -70 -5 -61 -30 11 -27 -83 -62 -143 -53 -15 2 -21 -5 -15 -16 18 -28 -14 -44 -47 -23 -17 10 -46 5 -75 -15 -44 -29 -50 -28 -88 12 -22 24 -53 43 -69 43 -16 0 -29 11 -29 25 -1 19 -5 18 -17 -1 -18 -28 -83 17 -83 57 0 11 -16 19 -35 19 -30 1 -31 3 -5 20 22 14 23 19 4 20 -18 0 -23 19 -17 60 5 33 1 60 -9 60 -10 0 -18 -13 -18 -30 0 -19 -19 -30 -49 -30 -36 0 -47 -8 -38 -30 6 -16 2 -30 -10 -30 -11 0 -25 16 -31 35 -9 28 -38 36 -135 40 -151 5 -197 19 -197 58 0 16 9 24 20 17 11 -7 20 2 20 19 0 43 -62 37 -108 -10z"/> <path d="M2809 1665 c-8 -24 -22 -40 -31 -34 -10 6 -18 2 -18 -10 0 -11 14 -21 31 -21 19 0 26 -9 17 -23 -10 -16 -3 -20 20 -10 20 7 46 13 59 13 15 1 16 6 2 15 -11 8 -31 38 -43 65 l-24 50 -13 -45z"/> <path d="M4808 1608 c7 -17 12 -39 12 -50 0 -10 18 -15 39 -12 52 8 78 34 34 34 -19 0 -39 14 -46 30 -6 17 -20 30 -31 30 -11 0 -15 -14 -8 -32z"/> <path d="M2670 1580 c-8 -14 -4 -31 10 -40 19 -12 20 -31 1 -88 -33 -98 -22 -117 44 -83 64 33 67 28 21 -45 -19 -30 -27 -48 -18 -40 23 19 99 -56 83 -82 -7 -12 -4 -22 6 -22 11 0 24 20 29 45 6 34 9 29 11 -18 3 -62 -38 -101 -79 -76 -10 6 -18 3 -18 -8 0 -11 9 -23 21 -27 34 -11 37 -82 6 -131 -15 -25 -20 -45 -10 -45 27 0 69 114 56 150 -7 16 -4 30 6 30 10 0 24 -27 31 -61 11 -49 19 -57 42 -38 15 13 23 32 17 41 -6 10 3 18 20 18 49 0 36 40 -14 42 -43 2 -43 3 5 18 l50 16 -45 15 c-45 14 -63 49 -25 49 11 0 20 14 20 31 0 17 -9 26 -20 19 -19 -12 -29 29 -21 86 2 15 -7 40 -20 55 -13 16 -19 47 -13 69 7 28 -6 52 -46 80 -71 51 -79 50 -82 -5 -2 -41 -4 -41 -12 -5 -14 56 -39 78 -56 50z"/> <path d="M5091 1524 c-19 -19 -12 -64 10 -64 12 0 15 10 8 22 -10 15 0 18 28 9 24 -8 43 -5 43 5 0 22 -72 45 -89 28z"/> <path d="M6180 1421 c0 -20 81 -43 103 -29 35 22 15 42 -43 44 -33 1 -60 -6 -60 -15z"/> <path d="M4475 1276 c-5 -14 -3 -43 4 -65 13 -34 15 -34 27 -5 18 47 54 42 54 -7 0 -23 8 -36 19 -30 30 19 15 91 -19 91 -18 0 -42 10 -53 21 -15 15 -25 14 -32 -5z"/> <path d="M5485 1273 c-25 -12 -45 -29 -45 -37 0 -19 -167 -96 -207 -96 -16 0 -33 -12 -39 -27 -30 -78 273 22 348 114 54 67 28 88 -57 46z"/> <path d="M4270 1260 c-18 -30 7 -60 51 -60 26 0 39 14 39 40 0 42 -67 57 -90 20z"/> <path d="M2724 1215 c3 -23 17 -44 32 -47 14 -3 16 0 5 5 -33 16 -24 47 9 34 17 -6 30 -2 30 9 0 10 -19 24 -41 30 -33 9 -40 3 -35 -31z"/> <path d="M6286 1172 c7 -18 4 -32 -7 -32 -10 0 -19 -16 -19 -35 0 -22 6 -27 15 -13 16 24 68 24 140 0 36 -12 42 -8 33 17 -7 17 -20 31 -30 31 -10 0 -18 10 -18 21 0 13 17 16 40 9 23 -7 40 -4 40 9 0 30 -95 26 -106 -4 -7 -20 -18 -19 -54 2 -40 24 -44 23 -34 -5z"/> <path d="M2574 1153 c-10 -31 7 -93 26 -93 9 0 12 17 6 38 -7 26 2 41 27 46 32 7 31 9 -7 20 -25 7 -47 2 -52 -11z"/> <path d="M3014 1007 c-8 -7 -8 -48 -1 -90 10 -67 8 -76 -21 -65 -24 9 -29 4 -20 -20 7 -19 2 -32 -14 -32 -16 0 -13 -9 10 -26 64 -47 1 -167 -81 -152 -44 8 -88 -4 -78 -20 10 -16 40 -17 172 -5 31 3 40 41 39 161 0 54 5 63 27 45 15 -13 34 -16 43 -8 9 8 11 -1 4 -20 -7 -19 -4 -35 7 -35 10 0 19 16 20 35 0 27 7 23 29 -15 l29 -50 0 47 c1 30 -13 50 -39 57 -48 13 -50 33 -11 72 26 26 21 31 -40 43 -38 7 -69 21 -69 31 0 10 16 13 35 6 31 -12 32 -9 8 20 -32 39 -32 39 -49 21z"/> <path d="M6412 1005 c-7 -7 -37 -14 -66 -14 -85 -2 -74 -41 13 -44 49 -1 83 8 89 25 11 30 -15 54 -36 33z"/> <path d="M6000 980 c0 -11 9 -20 20 -20 11 0 20 -9 20 -20 0 -11 -13 -20 -30 -20 -54 0 -31 -37 31 -50 82 -18 86 -10 33 66 -44 64 -74 81 -74 44z"/> <path d="M2833 827 c-23 -24 -14 -44 40 -94 50 -47 107 -52 107 -10 0 11 -9 14 -20 7 -11 -7 -20 -1 -20 14 -1 21 -4 21 -17 0 -12 -19 -25 -10 -47 35 -16 34 -35 55 -43 48z"/> <path d="M4735 825 c47 -4 123 -4 170 0 47 5 9 8 -85 8 -93 0 -132 -3 -85 -8z"/> <path d="M6551 821 c-21 -33 14 -189 52 -239 31 -40 37 -42 37 -11 0 20 -14 52 -32 71 -24 27 -26 44 -9 76 30 57 -16 155 -48 103z"/> <path d="M2590 740 c-7 -22 -21 -35 -31 -29 -55 34 -8 -28 49 -65 l68 -44 10 54 c7 37 -1 65 -27 89 -47 44 -53 44 -69 -5z"/> <path d="M3127 671 c-35 -15 -69 -23 -75 -17 -6 7 0 -12 14 -41 13 -29 39 -53 58 -53 18 0 39 -9 46 -20 7 -12 -13 -20 -49 -20 -91 0 -369 -81 -387 -113 -9 -15 -25 -23 -35 -16 -10 6 -35 2 -54 -9 -32 -19 -32 -21 -2 -21 19 -1 61 -23 93 -51 40 -33 84 -50 132 -50 70 0 94 -24 51 -51 -27 -16 14 -69 53 -69 16 0 28 -9 28 -21 0 -32 -78 -108 -94 -91 -8 8 -2 22 14 32 16 10 22 25 14 33 -8 8 -29 -6 -46 -30 -24 -34 -48 -44 -95 -39 l-63 6 4 125 c2 73 -4 121 -15 114 -10 -6 -13 3 -7 20 9 23 4 28 -19 19 -17 -6 -31 -35 -31 -65 1 -167 -11 -211 -62 -225 -47 -13 -46 -14 14 -16 44 -1 66 8 72 33 9 33 9 33 12 0 2 -40 468 -54 492 -15 7 11 4 20 -7 20 -10 0 -17 15 -16 33 2 22 -20 40 -66 52 -43 11 -59 24 -44 33 17 11 10 30 -26 70 -28 30 -51 67 -51 83 0 16 -9 29 -20 29 -11 0 -20 -11 -20 -25 -1 -18 -6 -17 -18 3 -24 37 99 101 207 107 74 5 80 1 93 -60 7 -36 37 -100 66 -141 28 -42 52 -99 52 -126 0 -55 33 -98 75 -98 19 0 23 13 15 40 -10 30 -5 37 19 28 17 -7 32 -5 33 5 1 9 4 38 6 63 4 34 -17 62 -81 108 -82 59 -122 134 -59 110 15 -6 45 1 65 17 35 26 34 28 -16 28 -89 1 -178 48 -156 82 30 48 21 108 -21 139 -40 29 -58 73 -20 50 11 -7 20 -3 20 9 0 27 -16 26 -93 -8z"/> <path d="M2610 559 c-22 -70 23 -103 74 -53 14 14 42 32 61 39 19 8 35 25 35 39 -1 20 -5 19 -18 -2 -14 -21 -31 -23 -79 -6 -53 19 -63 16 -73 -17z"/> <path d="M5791 510 c31 -24 32 -28 5 -18 -25 8 -33 1 -31 -30 2 -23 10 -42 18 -42 7 0 27 -5 43 -11 37 -15 29 89 -10 114 -45 29 -66 18 -25 -13z"/> <path d="M2391 301 c-13 -21 8 -35 44 -30 14 2 34 5 45 7 11 1 20 11 20 22 0 25 -94 26 -109 1z"/> <path d="M2420 220 c0 -23 -9 -37 -20 -30 -11 7 -20 -7 -20 -30 0 -35 5 -38 26 -16 38 38 55 93 33 107 -10 6 -19 -8 -19 -31z"/> <path d="M2609 223 c12 -21 6 -24 -26 -14 -47 15 -64 -37 -18 -56 20 -8 20 -10 0 -11 -14 -1 -25 -12 -25 -23 0 -12 9 -16 21 -8 11 7 32 3 45 -8 29 -24 35 103 6 130 -11 10 -12 6 -3 -10z"/> <path d="M6278 150 c-6 -22 -8 -51 -3 -65 10 -30 85 -34 85 -5 0 11 -13 20 -29 20 -15 0 -31 20 -35 45 -6 42 -8 43 -18 5z"/> </g> </svg> 